<mxfile host="app.diagrams.net" modified="2021-02-26T07:43:05.124Z" agent="5.0 (Windows NT 10.0; Win64; x64) AppleWebKit/537.36 (KHTML, like Gecko) Chrome/88.0.4324.190 Safari/537.36" etag="lbShqXHiZqxEudZgpMqL" version="14.2.9" type="github" pages="5">
  <diagram name="Page-1" id="16e2658f-23c8-b752-8be9-c03fbebb8bbe">
    <mxGraphModel dx="3838" dy="1588" grid="1" gridSize="10" guides="1" tooltips="1" connect="1" arrows="1" fold="1" page="1" pageScale="1" pageWidth="1100" pageHeight="850" background="#ffffff" math="0" shadow="0">
      <root>
        <mxCell id="0" />
        <mxCell id="1" parent="0" />
        <mxCell id="6d250d948d6a1778-13" style="edgeStyle=orthogonalEdgeStyle;rounded=0;html=1;exitX=0;exitY=0.5;exitPerimeter=0;entryX=0;entryY=0.5;entryPerimeter=0;labelBackgroundColor=none;startArrow=none;startFill=0;startSize=5;endArrow=none;endFill=0;endSize=5;jettySize=auto;orthogonalLoop=1;strokeWidth=1;fontFamily=Verdana;fontSize=12" parent="1" source="6d250d948d6a1778-4" edge="1">
          <mxGeometry relative="1" as="geometry">
            <Array as="points">
              <mxPoint x="400" y="470" />
              <mxPoint x="230" y="470" />
            </Array>
            <mxPoint x="230" y="370" as="targetPoint" />
          </mxGeometry>
        </mxCell>
        <mxCell id="6d250d948d6a1778-14" style="edgeStyle=orthogonalEdgeStyle;rounded=0;html=1;exitX=0;exitY=0.5;exitPerimeter=0;entryX=0;entryY=0.5;entryPerimeter=0;labelBackgroundColor=none;startArrow=none;startFill=0;startSize=5;endArrow=none;endFill=0;endSize=5;jettySize=auto;orthogonalLoop=1;strokeWidth=1;fontFamily=Verdana;fontSize=12" parent="1" source="6d250d948d6a1778-5" edge="1">
          <mxGeometry relative="1" as="geometry">
            <Array as="points">
              <mxPoint x="640" y="470" />
              <mxPoint x="230" y="470" />
            </Array>
            <mxPoint x="230" y="370" as="targetPoint" />
          </mxGeometry>
        </mxCell>
        <mxCell id="fG5aWg38ouM_ZfObHPuz-10" style="edgeStyle=orthogonalEdgeStyle;rounded=0;orthogonalLoop=1;jettySize=auto;html=1;exitX=1;exitY=0.25;exitDx=0;exitDy=0;entryX=0.15;entryY=1;entryDx=0;entryDy=0;entryPerimeter=0;endArrow=none;endFill=0;" edge="1" parent="1" source="fG5aWg38ouM_ZfObHPuz-1" target="fG5aWg38ouM_ZfObHPuz-8">
          <mxGeometry relative="1" as="geometry" />
        </mxCell>
        <mxCell id="fG5aWg38ouM_ZfObHPuz-40" style="edgeStyle=none;rounded=0;orthogonalLoop=1;jettySize=auto;html=1;exitX=0.75;exitY=0;exitDx=0;exitDy=0;entryX=0.192;entryY=0.967;entryDx=0;entryDy=0;entryPerimeter=0;endArrow=none;endFill=0;" edge="1" parent="1" source="fG5aWg38ouM_ZfObHPuz-1" target="fG5aWg38ouM_ZfObHPuz-17">
          <mxGeometry relative="1" as="geometry" />
        </mxCell>
        <mxCell id="fG5aWg38ouM_ZfObHPuz-1" value="switch" style="whiteSpace=wrap;html=1;aspect=fixed;fillColor=#dae8fc;strokeColor=#6c8ebf;" vertex="1" parent="1">
          <mxGeometry x="120" y="400" width="130" height="130" as="geometry" />
        </mxCell>
        <mxCell id="fG5aWg38ouM_ZfObHPuz-4" value="" style="endArrow=none;html=1;entryX=0.025;entryY=0.55;entryDx=0;entryDy=0;entryPerimeter=0;" edge="1" parent="1" target="fG5aWg38ouM_ZfObHPuz-7">
          <mxGeometry width="50" height="50" relative="1" as="geometry">
            <mxPoint x="250" y="430" as="sourcePoint" />
            <mxPoint x="330" y="430" as="targetPoint" />
          </mxGeometry>
        </mxCell>
        <mxCell id="fG5aWg38ouM_ZfObHPuz-5" value="1A" style="text;html=1;resizable=0;autosize=1;align=center;verticalAlign=middle;points=[];fillColor=none;strokeColor=none;rounded=0;" vertex="1" parent="1">
          <mxGeometry x="220" y="425" width="30" height="20" as="geometry" />
        </mxCell>
        <mxCell id="fG5aWg38ouM_ZfObHPuz-6" value="PMOS" style="whiteSpace=wrap;html=1;aspect=fixed;fillColor=#d5e8d4;strokeColor=#82b366;" vertex="1" parent="1">
          <mxGeometry x="420" y="230" width="140" height="140" as="geometry" />
        </mxCell>
        <mxCell id="fG5aWg38ouM_ZfObHPuz-7" value="GP1" style="text;html=1;resizable=0;autosize=1;align=center;verticalAlign=middle;points=[];fillColor=none;strokeColor=none;rounded=0;" vertex="1" parent="1">
          <mxGeometry x="420" y="270" width="40" height="20" as="geometry" />
        </mxCell>
        <mxCell id="fG5aWg38ouM_ZfObHPuz-8" value="NMOS" style="whiteSpace=wrap;html=1;aspect=fixed;fillColor=#fff2cc;strokeColor=#d6b656;" vertex="1" parent="1">
          <mxGeometry x="630" y="250" width="140" height="140" as="geometry" />
        </mxCell>
        <mxCell id="fG5aWg38ouM_ZfObHPuz-11" value="GN1" style="text;html=1;resizable=0;autosize=1;align=center;verticalAlign=middle;points=[];fillColor=none;strokeColor=none;rounded=0;" vertex="1" parent="1">
          <mxGeometry x="630" y="370" width="40" height="20" as="geometry" />
        </mxCell>
        <mxCell id="fG5aWg38ouM_ZfObHPuz-21" style="edgeStyle=orthogonalEdgeStyle;rounded=0;orthogonalLoop=1;jettySize=auto;html=1;entryX=0;entryY=0.5;entryDx=0;entryDy=0;entryPerimeter=0;endArrow=none;endFill=0;fillColor=#f8cecc;strokeColor=#b85450;exitX=0.007;exitY=0.679;exitDx=0;exitDy=0;exitPerimeter=0;" edge="1" parent="1" source="fG5aWg38ouM_ZfObHPuz-6" target="fG5aWg38ouM_ZfObHPuz-24">
          <mxGeometry relative="1" as="geometry">
            <mxPoint x="390" y="360" as="sourcePoint" />
            <Array as="points">
              <mxPoint x="421" y="320" />
              <mxPoint x="385" y="320" />
              <mxPoint x="385" y="370" />
              <mxPoint x="360" y="370" />
              <mxPoint x="360" y="500" />
              <mxPoint x="440" y="500" />
              <mxPoint x="440" y="640" />
              <mxPoint x="350" y="640" />
              <mxPoint x="350" y="670" />
            </Array>
          </mxGeometry>
        </mxCell>
        <mxCell id="fG5aWg38ouM_ZfObHPuz-12" value="DP1" style="text;html=1;resizable=0;autosize=1;align=center;verticalAlign=middle;points=[];fillColor=none;strokeColor=none;rounded=0;" vertex="1" parent="1">
          <mxGeometry x="420" y="310" width="40" height="20" as="geometry" />
        </mxCell>
        <mxCell id="fG5aWg38ouM_ZfObHPuz-14" value="" style="shape=image;html=1;verticalAlign=top;verticalLabelPosition=bottom;labelBackgroundColor=none;imageAspect=0;aspect=fixed;image=https://cdn2.iconfinder.com/data/icons/electronic-13/480/6-electronic-led-icon-2-128.png;labelBorderColor=none;imageBackground=#006666;" vertex="1" parent="1">
          <mxGeometry x="550" y="510" width="128" height="128" as="geometry" />
        </mxCell>
        <mxCell id="fG5aWg38ouM_ZfObHPuz-19" style="edgeStyle=orthogonalEdgeStyle;rounded=0;orthogonalLoop=1;jettySize=auto;html=1;exitX=0;exitY=0.5;exitDx=0;exitDy=0;exitPerimeter=0;entryX=0;entryY=0.25;entryDx=0;entryDy=0;endArrow=none;endFill=0;" edge="1" parent="1" source="fG5aWg38ouM_ZfObHPuz-15" target="fG5aWg38ouM_ZfObHPuz-18">
          <mxGeometry relative="1" as="geometry" />
        </mxCell>
        <mxCell id="fG5aWg38ouM_ZfObHPuz-15" value="" style="pointerEvents=1;verticalLabelPosition=bottom;shadow=0;dashed=0;align=center;html=1;verticalAlign=top;shape=mxgraph.electrical.resistors.resistor_1;fillColor=#ffe6cc;strokeColor=#d79b00;" vertex="1" parent="1">
          <mxGeometry x="20" y="415" width="100" height="20" as="geometry" />
        </mxCell>
        <mxCell id="fG5aWg38ouM_ZfObHPuz-17" value="&lt;font style=&quot;font-size: 30px&quot;&gt;+&lt;/font&gt;" style="rounded=0;whiteSpace=wrap;html=1;strokeColor=#B20000;fontColor=#ffffff;fillColor=#e51400;" vertex="1" parent="1">
          <mxGeometry x="30" y="80" width="1010" height="30" as="geometry" />
        </mxCell>
        <mxCell id="fG5aWg38ouM_ZfObHPuz-18" value="&lt;font style=&quot;font-size: 30px&quot;&gt;-&lt;/font&gt;" style="rounded=0;whiteSpace=wrap;html=1;strokeColor=#314354;fontColor=#ffffff;fillColor=#647687;" vertex="1" parent="1">
          <mxGeometry x="50" y="770" width="1010" height="30" as="geometry" />
        </mxCell>
        <mxCell id="fG5aWg38ouM_ZfObHPuz-20" value="resistor" style="text;html=1;resizable=0;autosize=1;align=center;verticalAlign=middle;points=[];fillColor=none;strokeColor=none;rounded=0;" vertex="1" parent="1">
          <mxGeometry x="45" y="395" width="50" height="20" as="geometry" />
        </mxCell>
        <mxCell id="fG5aWg38ouM_ZfObHPuz-23" style="edgeStyle=orthogonalEdgeStyle;rounded=0;orthogonalLoop=1;jettySize=auto;html=1;endArrow=none;endFill=0;exitX=0.45;exitY=1;exitDx=0;exitDy=0;exitPerimeter=0;fillColor=#6a00ff;strokeColor=#3700CC;" edge="1" parent="1" source="fG5aWg38ouM_ZfObHPuz-22">
          <mxGeometry relative="1" as="geometry">
            <mxPoint x="760" y="460" as="sourcePoint" />
            <mxPoint x="350" y="670" as="targetPoint" />
            <Array as="points">
              <mxPoint x="698" y="393" />
              <mxPoint x="760" y="393" />
              <mxPoint x="760" y="490" />
              <mxPoint x="550" y="490" />
              <mxPoint x="550" y="470" />
              <mxPoint x="400" y="470" />
              <mxPoint x="400" y="550" />
              <mxPoint x="25" y="550" />
            </Array>
          </mxGeometry>
        </mxCell>
        <mxCell id="fG5aWg38ouM_ZfObHPuz-22" value="DN1" style="text;html=1;resizable=0;autosize=1;align=center;verticalAlign=middle;points=[];fillColor=none;strokeColor=none;rounded=0;" vertex="1" parent="1">
          <mxGeometry x="680" y="370" width="40" height="20" as="geometry" />
        </mxCell>
        <mxCell id="fG5aWg38ouM_ZfObHPuz-25" style="edgeStyle=orthogonalEdgeStyle;rounded=0;orthogonalLoop=1;jettySize=auto;html=1;exitX=1;exitY=0.5;exitDx=0;exitDy=0;exitPerimeter=0;endArrow=none;endFill=0;entryX=0.656;entryY=1.016;entryDx=0;entryDy=0;entryPerimeter=0;" edge="1" parent="1" source="fG5aWg38ouM_ZfObHPuz-24" target="fG5aWg38ouM_ZfObHPuz-14">
          <mxGeometry relative="1" as="geometry">
            <mxPoint x="630" y="650" as="targetPoint" />
          </mxGeometry>
        </mxCell>
        <mxCell id="fG5aWg38ouM_ZfObHPuz-24" value="resistor" style="pointerEvents=1;verticalLabelPosition=bottom;shadow=0;dashed=0;align=center;html=1;verticalAlign=top;shape=mxgraph.electrical.resistors.resistor_1;fillColor=#ffe6cc;strokeColor=#d79b00;" vertex="1" parent="1">
          <mxGeometry x="390" y="660" width="100" height="20" as="geometry" />
        </mxCell>
        <mxCell id="fG5aWg38ouM_ZfObHPuz-26" value="" style="endArrow=none;html=1;exitX=0.521;exitY=0.033;exitDx=0;exitDy=0;exitPerimeter=0;" edge="1" parent="1" source="fG5aWg38ouM_ZfObHPuz-18">
          <mxGeometry width="50" height="50" relative="1" as="geometry">
            <mxPoint x="575" y="770" as="sourcePoint" />
            <mxPoint x="575" y="638" as="targetPoint" />
          </mxGeometry>
        </mxCell>
        <mxCell id="fG5aWg38ouM_ZfObHPuz-27" value="SP1" style="text;html=1;resizable=0;autosize=1;align=center;verticalAlign=middle;points=[];fillColor=none;strokeColor=none;rounded=0;labelBackgroundColor=none;" vertex="1" parent="1">
          <mxGeometry x="420" y="340" width="40" height="20" as="geometry" />
        </mxCell>
        <mxCell id="fG5aWg38ouM_ZfObHPuz-28" value="" style="endArrow=none;html=1;rounded=0;fillColor=#d5e8d4;strokeColor=#82b366;" edge="1" parent="1">
          <mxGeometry width="50" height="50" relative="1" as="geometry">
            <mxPoint x="440" y="410" as="sourcePoint" />
            <mxPoint x="439.5" y="370" as="targetPoint" />
            <Array as="points" />
          </mxGeometry>
        </mxCell>
        <mxCell id="fG5aWg38ouM_ZfObHPuz-29" value="" style="endArrow=none;html=1;fillColor=#d5e8d4;strokeColor=#82b366;" edge="1" parent="1">
          <mxGeometry width="50" height="50" relative="1" as="geometry">
            <mxPoint x="440" y="410" as="sourcePoint" />
            <mxPoint x="600" y="410" as="targetPoint" />
          </mxGeometry>
        </mxCell>
        <mxCell id="fG5aWg38ouM_ZfObHPuz-30" value="" style="endArrow=none;html=1;entryX=0.567;entryY=1;entryDx=0;entryDy=0;entryPerimeter=0;fillColor=#d5e8d4;strokeColor=#82b366;" edge="1" parent="1" target="fG5aWg38ouM_ZfObHPuz-17">
          <mxGeometry width="50" height="50" relative="1" as="geometry">
            <mxPoint x="600" y="410" as="sourcePoint" />
            <mxPoint x="650" y="360" as="targetPoint" />
          </mxGeometry>
        </mxCell>
        <mxCell id="fG5aWg38ouM_ZfObHPuz-31" value="SN1" style="text;html=1;resizable=0;autosize=1;align=center;verticalAlign=middle;points=[];fillColor=none;strokeColor=none;rounded=0;labelBackgroundColor=none;" vertex="1" parent="1">
          <mxGeometry x="730" y="370" width="40" height="20" as="geometry" />
        </mxCell>
        <mxCell id="fG5aWg38ouM_ZfObHPuz-32" value="" style="endArrow=none;html=1;entryX=0.5;entryY=1;entryDx=0;entryDy=0;entryPerimeter=0;exitX=0.693;exitY=-0.033;exitDx=0;exitDy=0;exitPerimeter=0;fillColor=#1ba1e2;strokeColor=#006EAF;" edge="1" parent="1" source="fG5aWg38ouM_ZfObHPuz-18" target="fG5aWg38ouM_ZfObHPuz-31">
          <mxGeometry width="50" height="50" relative="1" as="geometry">
            <mxPoint x="750" y="520" as="sourcePoint" />
            <mxPoint x="570" y="470" as="targetPoint" />
            <Array as="points">
              <mxPoint x="750" y="460" />
            </Array>
          </mxGeometry>
        </mxCell>
        <mxCell id="fG5aWg38ouM_ZfObHPuz-38" style="edgeStyle=none;rounded=0;orthogonalLoop=1;jettySize=auto;html=1;exitX=0.5;exitY=0;exitDx=0;exitDy=0;entryX=0;entryY=0.5;entryDx=0;entryDy=0;endArrow=none;endFill=0;fillColor=#e51400;strokeColor=#B20000;" edge="1" parent="1" source="fG5aWg38ouM_ZfObHPuz-37" target="fG5aWg38ouM_ZfObHPuz-17">
          <mxGeometry relative="1" as="geometry" />
        </mxCell>
        <mxCell id="fG5aWg38ouM_ZfObHPuz-39" style="edgeStyle=none;rounded=0;orthogonalLoop=1;jettySize=auto;html=1;exitX=0.5;exitY=1;exitDx=0;exitDy=0;entryX=0;entryY=0.75;entryDx=0;entryDy=0;endArrow=none;endFill=0;fillColor=#647687;strokeColor=#314354;" edge="1" parent="1" source="fG5aWg38ouM_ZfObHPuz-37" target="fG5aWg38ouM_ZfObHPuz-18">
          <mxGeometry relative="1" as="geometry" />
        </mxCell>
        <mxCell id="fG5aWg38ouM_ZfObHPuz-37" value="Power&lt;br&gt;Supply" style="whiteSpace=wrap;html=1;aspect=fixed;labelBackgroundColor=none;fillColor=#fa6800;strokeColor=#C73500;fontColor=#ffffff;" vertex="1" parent="1">
          <mxGeometry x="-160" y="380" width="80" height="80" as="geometry" />
        </mxCell>
        <mxCell id="fG5aWg38ouM_ZfObHPuz-41" value="&lt;font style=&quot;font-size: 25px&quot;&gt;Inverter&lt;/font&gt;" style="text;html=1;resizable=0;autosize=1;align=center;verticalAlign=middle;points=[];fillColor=none;strokeColor=none;rounded=0;labelBackgroundColor=none;" vertex="1" parent="1">
          <mxGeometry x="400" y="20" width="100" height="20" as="geometry" />
        </mxCell>
      </root>
    </mxGraphModel>
  </diagram>
  <diagram id="2Sqm9BGkKo_XTua3aQiY" name="Page-2">
    <mxGraphModel dx="3588" dy="2688" grid="1" gridSize="10" guides="1" tooltips="1" connect="1" arrows="1" fold="1" page="1" pageScale="1" pageWidth="850" pageHeight="1100" math="0" shadow="0">
      <root>
        <mxCell id="O5oOF6hbG1hNPCvQYXTQ-0" />
        <mxCell id="O5oOF6hbG1hNPCvQYXTQ-1" parent="O5oOF6hbG1hNPCvQYXTQ-0" />
        <mxCell id="OkhAWuhY4NtXZ4p-h41I-0" value="&lt;font style=&quot;font-size: 23px&quot;&gt;2 Input NOR Gate&lt;/font&gt;" style="text;html=1;resizable=0;autosize=1;align=center;verticalAlign=middle;points=[];fillColor=none;strokeColor=none;rounded=0;labelBackgroundColor=none;" vertex="1" parent="O5oOF6hbG1hNPCvQYXTQ-1">
          <mxGeometry x="290" y="-20" width="200" height="20" as="geometry" />
        </mxCell>
        <mxCell id="OkhAWuhY4NtXZ4p-h41I-6" style="edgeStyle=elbowEdgeStyle;rounded=1;orthogonalLoop=1;jettySize=auto;elbow=vertical;html=1;exitX=0.75;exitY=1;exitDx=0;exitDy=0;endArrow=none;endFill=0;entryX=0;entryY=0;entryDx=0;entryDy=0;" edge="1" parent="O5oOF6hbG1hNPCvQYXTQ-1" source="OkhAWuhY4NtXZ4p-h41I-1" target="OkhAWuhY4NtXZ4p-h41I-3">
          <mxGeometry relative="1" as="geometry">
            <mxPoint x="11" y="700" as="targetPoint" />
          </mxGeometry>
        </mxCell>
        <mxCell id="OkhAWuhY4NtXZ4p-h41I-1" value="Power Supply" style="whiteSpace=wrap;html=1;aspect=fixed;labelBackgroundColor=none;fillColor=#fa6800;strokeColor=#C73500;fontColor=#ffffff;" vertex="1" parent="O5oOF6hbG1hNPCvQYXTQ-1">
          <mxGeometry x="-450" y="280" width="80" height="80" as="geometry" />
        </mxCell>
        <mxCell id="OkhAWuhY4NtXZ4p-h41I-3" value="&lt;font style=&quot;font-size: 35px&quot;&gt;-&lt;/font&gt;" style="rounded=0;whiteSpace=wrap;html=1;fillColor=#647687;strokeColor=#314354;fontColor=#ffffff;" vertex="1" parent="O5oOF6hbG1hNPCvQYXTQ-1">
          <mxGeometry x="30" y="700" width="750" height="30" as="geometry" />
        </mxCell>
        <mxCell id="OkhAWuhY4NtXZ4p-h41I-5" value="&lt;span style=&quot;font-size: 35px&quot;&gt;+&lt;/span&gt;" style="rounded=0;whiteSpace=wrap;html=1;fillColor=#e51400;strokeColor=#B20000;fontColor=#ffffff;" vertex="1" parent="O5oOF6hbG1hNPCvQYXTQ-1">
          <mxGeometry x="40" y="30" width="750" height="30" as="geometry" />
        </mxCell>
        <mxCell id="OkhAWuhY4NtXZ4p-h41I-21" style="edgeStyle=elbowEdgeStyle;rounded=1;orthogonalLoop=1;jettySize=auto;elbow=vertical;html=1;exitX=0.5;exitY=1;exitDx=0;exitDy=0;endArrow=none;endFill=0;fillColor=#e1d5e7;strokeColor=#9673a6;" edge="1" parent="O5oOF6hbG1hNPCvQYXTQ-1" source="OkhAWuhY4NtXZ4p-h41I-7">
          <mxGeometry relative="1" as="geometry">
            <mxPoint x="249" y="460" as="targetPoint" />
            <Array as="points">
              <mxPoint x="230" y="490" />
              <mxPoint x="200" y="480" />
            </Array>
          </mxGeometry>
        </mxCell>
        <mxCell id="OkhAWuhY4NtXZ4p-h41I-23" style="edgeStyle=orthogonalEdgeStyle;rounded=1;orthogonalLoop=1;jettySize=auto;elbow=vertical;html=1;endArrow=none;endFill=0;exitX=1;exitY=0.5;exitDx=0;exitDy=0;exitPerimeter=0;fillColor=#f8cecc;strokeColor=#b85450;" edge="1" parent="O5oOF6hbG1hNPCvQYXTQ-1" source="OkhAWuhY4NtXZ4p-h41I-9">
          <mxGeometry relative="1" as="geometry">
            <mxPoint x="239" y="220" as="targetPoint" />
            <mxPoint x="210" y="270" as="sourcePoint" />
            <Array as="points">
              <mxPoint x="260" y="270" />
              <mxPoint x="260" y="280" />
              <mxPoint x="290" y="280" />
              <mxPoint x="290" y="260" />
              <mxPoint x="250" y="260" />
              <mxPoint x="250" y="240" />
              <mxPoint x="239" y="240" />
            </Array>
          </mxGeometry>
        </mxCell>
        <mxCell id="OkhAWuhY4NtXZ4p-h41I-29" style="edgeStyle=orthogonalEdgeStyle;rounded=1;orthogonalLoop=1;jettySize=auto;html=1;exitX=1;exitY=0.25;exitDx=0;exitDy=0;endArrow=none;endFill=0;fillColor=#f8cecc;strokeColor=#b85450;entryX=0.5;entryY=1;entryDx=0;entryDy=0;entryPerimeter=0;" edge="1" parent="O5oOF6hbG1hNPCvQYXTQ-1" source="OkhAWuhY4NtXZ4p-h41I-7" target="OkhAWuhY4NtXZ4p-h41I-27">
          <mxGeometry relative="1" as="geometry">
            <mxPoint x="444" y="200" as="targetPoint" />
          </mxGeometry>
        </mxCell>
        <mxCell id="xidnGpYoMKaCa2fDNDg2-0" style="edgeStyle=orthogonalEdgeStyle;rounded=1;orthogonalLoop=1;jettySize=auto;html=1;exitX=0.25;exitY=1;exitDx=0;exitDy=0;endArrow=none;endFill=0;fillColor=#e1d5e7;strokeColor=#9673a6;" edge="1" parent="O5oOF6hbG1hNPCvQYXTQ-1" source="OkhAWuhY4NtXZ4p-h41I-7">
          <mxGeometry relative="1" as="geometry">
            <mxPoint x="559" y="430" as="targetPoint" />
            <Array as="points">
              <mxPoint x="140" y="340" />
              <mxPoint x="140" y="510" />
              <mxPoint x="490" y="510" />
              <mxPoint x="490" y="490" />
              <mxPoint x="559" y="490" />
            </Array>
          </mxGeometry>
        </mxCell>
        <mxCell id="NDq7LN0bjbZ0-C0emVrj-1" style="edgeStyle=orthogonalEdgeStyle;rounded=1;orthogonalLoop=1;jettySize=auto;html=1;exitX=0.25;exitY=0;exitDx=0;exitDy=0;entryX=0.076;entryY=1.067;entryDx=0;entryDy=0;entryPerimeter=0;endArrow=none;endFill=0;" edge="1" parent="O5oOF6hbG1hNPCvQYXTQ-1" source="OkhAWuhY4NtXZ4p-h41I-7" target="OkhAWuhY4NtXZ4p-h41I-5">
          <mxGeometry relative="1" as="geometry" />
        </mxCell>
        <mxCell id="NDq7LN0bjbZ0-C0emVrj-2" style="edgeStyle=orthogonalEdgeStyle;rounded=1;orthogonalLoop=1;jettySize=auto;html=1;exitX=0.5;exitY=0;exitDx=0;exitDy=0;endArrow=none;endFill=0;entryX=0.115;entryY=1.067;entryDx=0;entryDy=0;entryPerimeter=0;" edge="1" parent="O5oOF6hbG1hNPCvQYXTQ-1" source="OkhAWuhY4NtXZ4p-h41I-7" target="OkhAWuhY4NtXZ4p-h41I-5">
          <mxGeometry relative="1" as="geometry">
            <mxPoint x="125" y="63" as="targetPoint" />
          </mxGeometry>
        </mxCell>
        <mxCell id="OkhAWuhY4NtXZ4p-h41I-7" value="Switch" style="whiteSpace=wrap;html=1;aspect=fixed;labelBackgroundColor=none;fillColor=#1ba1e2;strokeColor=#006EAF;fontColor=#ffffff;" vertex="1" parent="O5oOF6hbG1hNPCvQYXTQ-1">
          <mxGeometry x="80" y="240" width="100" height="100" as="geometry" />
        </mxCell>
        <mxCell id="OkhAWuhY4NtXZ4p-h41I-8" value="1A" style="text;html=1;resizable=0;autosize=1;align=center;verticalAlign=middle;points=[];fillColor=none;strokeColor=none;rounded=0;labelBackgroundColor=none;" vertex="1" parent="O5oOF6hbG1hNPCvQYXTQ-1">
          <mxGeometry x="115" y="320" width="30" height="20" as="geometry" />
        </mxCell>
        <mxCell id="OkhAWuhY4NtXZ4p-h41I-9" value="2A" style="text;html=1;resizable=0;autosize=1;align=center;verticalAlign=middle;points=[];fillColor=none;strokeColor=none;rounded=0;labelBackgroundColor=none;" vertex="1" parent="O5oOF6hbG1hNPCvQYXTQ-1">
          <mxGeometry x="150" y="260" width="30" height="20" as="geometry" />
        </mxCell>
        <mxCell id="xidnGpYoMKaCa2fDNDg2-10" style="edgeStyle=orthogonalEdgeStyle;rounded=1;orthogonalLoop=1;jettySize=auto;html=1;exitX=0.75;exitY=1;exitDx=0;exitDy=0;entryX=0.427;entryY=1;entryDx=0;entryDy=0;entryPerimeter=0;endArrow=none;endFill=0;" edge="1" parent="O5oOF6hbG1hNPCvQYXTQ-1" source="OkhAWuhY4NtXZ4p-h41I-10" target="OkhAWuhY4NtXZ4p-h41I-5">
          <mxGeometry relative="1" as="geometry" />
        </mxCell>
        <mxCell id="xidnGpYoMKaCa2fDNDg2-11" style="edgeStyle=orthogonalEdgeStyle;rounded=1;orthogonalLoop=1;jettySize=auto;html=1;exitX=0.069;exitY=1;exitDx=0;exitDy=0;endArrow=none;endFill=0;entryX=0.325;entryY=0.95;entryDx=0;entryDy=0;entryPerimeter=0;fillColor=#a20025;strokeColor=#6F0000;exitPerimeter=0;" edge="1" parent="O5oOF6hbG1hNPCvQYXTQ-1" source="OkhAWuhY4NtXZ4p-h41I-10" target="OkhAWuhY4NtXZ4p-h41I-25">
          <mxGeometry relative="1" as="geometry">
            <mxPoint x="240" y="470" as="targetPoint" />
            <Array as="points">
              <mxPoint x="229" y="560" />
              <mxPoint x="285" y="560" />
              <mxPoint x="285" y="480" />
              <mxPoint x="238" y="480" />
            </Array>
          </mxGeometry>
        </mxCell>
        <mxCell id="xidnGpYoMKaCa2fDNDg2-12" style="edgeStyle=orthogonalEdgeStyle;rounded=1;orthogonalLoop=1;jettySize=auto;html=1;exitX=0.5;exitY=1;exitDx=0;exitDy=0;endArrow=none;endFill=0;" edge="1" parent="O5oOF6hbG1hNPCvQYXTQ-1" source="OkhAWuhY4NtXZ4p-h41I-10">
          <mxGeometry relative="1" as="geometry">
            <mxPoint x="297" y="462" as="targetPoint" />
            <Array as="points">
              <mxPoint x="285" y="230" />
              <mxPoint x="297" y="230" />
              <mxPoint x="297" y="300" />
              <mxPoint x="480" y="300" />
              <mxPoint x="480" y="520" />
              <mxPoint x="300" y="520" />
              <mxPoint x="300" y="462" />
            </Array>
          </mxGeometry>
        </mxCell>
        <mxCell id="xidnGpYoMKaCa2fDNDg2-26" style="edgeStyle=orthogonalEdgeStyle;rounded=1;orthogonalLoop=1;jettySize=auto;html=1;exitX=0.75;exitY=1;exitDx=0;exitDy=0;endArrow=none;endFill=0;entryX=0.567;entryY=1.15;entryDx=0;entryDy=0;entryPerimeter=0;fillColor=#b1ddf0;strokeColor=#10739e;" edge="1" parent="O5oOF6hbG1hNPCvQYXTQ-1" source="OkhAWuhY4NtXZ4p-h41I-10" target="xidnGpYoMKaCa2fDNDg2-7">
          <mxGeometry relative="1" as="geometry">
            <mxPoint x="350" y="490" as="targetPoint" />
            <Array as="points">
              <mxPoint x="318" y="260" />
              <mxPoint x="410" y="260" />
              <mxPoint x="410" y="315" />
              <mxPoint x="420" y="315" />
              <mxPoint x="420" y="500" />
              <mxPoint x="350" y="500" />
              <mxPoint x="350" y="463" />
            </Array>
          </mxGeometry>
        </mxCell>
        <mxCell id="OkhAWuhY4NtXZ4p-h41I-10" value="PMOS" style="whiteSpace=wrap;html=1;aspect=fixed;labelBackgroundColor=none;fillColor=#d5e8d4;strokeColor=#82b366;" vertex="1" parent="O5oOF6hbG1hNPCvQYXTQ-1">
          <mxGeometry x="220" y="90" width="130" height="130" as="geometry" />
        </mxCell>
        <mxCell id="xidnGpYoMKaCa2fDNDg2-17" style="edgeStyle=orthogonalEdgeStyle;rounded=1;orthogonalLoop=1;jettySize=auto;html=1;exitX=0.5;exitY=1;exitDx=0;exitDy=0;endArrow=none;endFill=0;fillColor=#d80073;strokeColor=#A50040;" edge="1" parent="O5oOF6hbG1hNPCvQYXTQ-1" source="OkhAWuhY4NtXZ4p-h41I-11">
          <mxGeometry relative="1" as="geometry">
            <mxPoint x="580" y="220" as="targetPoint" />
            <Array as="points">
              <mxPoint x="455" y="240" />
              <mxPoint x="530" y="240" />
              <mxPoint x="530" y="190" />
              <mxPoint x="580" y="190" />
            </Array>
          </mxGeometry>
        </mxCell>
        <mxCell id="xidnGpYoMKaCa2fDNDg2-27" style="edgeStyle=orthogonalEdgeStyle;rounded=1;orthogonalLoop=1;jettySize=auto;html=1;exitX=0.75;exitY=1;exitDx=0;exitDy=0;endArrow=none;endFill=0;entryX=0.5;entryY=1.05;entryDx=0;entryDy=0;entryPerimeter=0;fillColor=#ffcd28;strokeColor=#d79b00;gradientColor=#ffa500;" edge="1" parent="O5oOF6hbG1hNPCvQYXTQ-1" source="OkhAWuhY4NtXZ4p-h41I-11" target="xidnGpYoMKaCa2fDNDg2-9">
          <mxGeometry relative="1" as="geometry">
            <mxPoint x="500" y="520" as="targetPoint" />
            <Array as="points">
              <mxPoint x="488" y="410" />
              <mxPoint x="510" y="410" />
              <mxPoint x="510" y="520" />
              <mxPoint x="662" y="520" />
              <mxPoint x="662" y="431" />
            </Array>
          </mxGeometry>
        </mxCell>
        <mxCell id="OkhAWuhY4NtXZ4p-h41I-11" value="NMOS" style="whiteSpace=wrap;html=1;aspect=fixed;labelBackgroundColor=none;fillColor=#fff2cc;strokeColor=#d6b656;" vertex="1" parent="O5oOF6hbG1hNPCvQYXTQ-1">
          <mxGeometry x="390" y="90" width="130" height="130" as="geometry" />
        </mxCell>
        <mxCell id="xidnGpYoMKaCa2fDNDg2-29" style="edgeStyle=orthogonalEdgeStyle;rounded=1;orthogonalLoop=1;jettySize=auto;html=1;exitX=0.5;exitY=1;exitDx=0;exitDy=0;endArrow=none;endFill=0;entryX=0;entryY=0.5;entryDx=0;entryDy=0;entryPerimeter=0;" edge="1" parent="O5oOF6hbG1hNPCvQYXTQ-1" source="OkhAWuhY4NtXZ4p-h41I-12" target="xidnGpYoMKaCa2fDNDg2-22">
          <mxGeometry relative="1" as="geometry">
            <mxPoint x="540" y="220" as="targetPoint" />
            <Array as="points">
              <mxPoint x="300" y="480" />
              <mxPoint x="520" y="480" />
              <mxPoint x="520" y="220" />
            </Array>
          </mxGeometry>
        </mxCell>
        <mxCell id="OkhAWuhY4NtXZ4p-h41I-12" value="PMOS" style="whiteSpace=wrap;html=1;aspect=fixed;labelBackgroundColor=none;fillColor=#d5e8d4;strokeColor=#82b366;" vertex="1" parent="O5oOF6hbG1hNPCvQYXTQ-1">
          <mxGeometry x="230" y="320" width="140" height="140" as="geometry" />
        </mxCell>
        <mxCell id="xidnGpYoMKaCa2fDNDg2-28" style="edgeStyle=orthogonalEdgeStyle;rounded=1;orthogonalLoop=1;jettySize=auto;html=1;entryX=0.88;entryY=0;entryDx=0;entryDy=0;entryPerimeter=0;endArrow=none;endFill=0;exitX=0.845;exitY=1;exitDx=0;exitDy=0;exitPerimeter=0;fillColor=#fff2cc;strokeColor=#d6b656;" edge="1" parent="O5oOF6hbG1hNPCvQYXTQ-1" source="OkhAWuhY4NtXZ4p-h41I-13" target="OkhAWuhY4NtXZ4p-h41I-3">
          <mxGeometry relative="1" as="geometry">
            <mxPoint x="660" y="440" as="sourcePoint" />
          </mxGeometry>
        </mxCell>
        <mxCell id="xidnGpYoMKaCa2fDNDg2-30" style="edgeStyle=orthogonalEdgeStyle;rounded=1;orthogonalLoop=1;jettySize=auto;html=1;exitX=0.5;exitY=1;exitDx=0;exitDy=0;endArrow=none;endFill=0;" edge="1" parent="O5oOF6hbG1hNPCvQYXTQ-1" source="OkhAWuhY4NtXZ4p-h41I-13">
          <mxGeometry relative="1" as="geometry">
            <mxPoint x="520" y="450" as="targetPoint" />
          </mxGeometry>
        </mxCell>
        <mxCell id="OkhAWuhY4NtXZ4p-h41I-13" value="NMOS" style="whiteSpace=wrap;html=1;aspect=fixed;labelBackgroundColor=none;fillColor=#fff2cc;strokeColor=#d6b656;" vertex="1" parent="O5oOF6hbG1hNPCvQYXTQ-1">
          <mxGeometry x="540" y="288" width="142" height="142" as="geometry" />
        </mxCell>
        <mxCell id="xidnGpYoMKaCa2fDNDg2-20" style="edgeStyle=orthogonalEdgeStyle;rounded=1;orthogonalLoop=1;jettySize=auto;html=1;exitX=0.25;exitY=1;exitDx=0;exitDy=0;entryX=0.948;entryY=-0.067;entryDx=0;entryDy=0;entryPerimeter=0;endArrow=none;endFill=0;" edge="1" parent="O5oOF6hbG1hNPCvQYXTQ-1" source="OkhAWuhY4NtXZ4p-h41I-16" target="OkhAWuhY4NtXZ4p-h41I-3">
          <mxGeometry relative="1" as="geometry" />
        </mxCell>
        <mxCell id="OkhAWuhY4NtXZ4p-h41I-16" value="" style="shape=image;html=1;verticalAlign=top;verticalLabelPosition=bottom;labelBackgroundColor=#ffffff;imageAspect=0;aspect=fixed;image=https://cdn2.iconfinder.com/data/icons/electronic-13/480/6-electronic-led-icon-2-128.png;fillColor=#ffffff;gradientColor=none;imageBackground=#FF66FF;" vertex="1" parent="O5oOF6hbG1hNPCvQYXTQ-1">
          <mxGeometry x="720" y="120" width="68" height="68" as="geometry" />
        </mxCell>
        <mxCell id="xidnGpYoMKaCa2fDNDg2-16" style="edgeStyle=orthogonalEdgeStyle;rounded=1;orthogonalLoop=1;jettySize=auto;html=1;exitX=0;exitY=0.5;exitDx=0;exitDy=0;exitPerimeter=0;endArrow=none;endFill=0;fillColor=#6a00ff;strokeColor=#3700CC;" edge="1" parent="O5oOF6hbG1hNPCvQYXTQ-1" source="OkhAWuhY4NtXZ4p-h41I-18">
          <mxGeometry relative="1" as="geometry">
            <mxPoint x="-30" y="450" as="targetPoint" />
            <Array as="points">
              <mxPoint x="-140" y="260" />
              <mxPoint x="-140" y="410" />
              <mxPoint x="-30" y="410" />
            </Array>
          </mxGeometry>
        </mxCell>
        <mxCell id="OkhAWuhY4NtXZ4p-h41I-18" value="Resistor" style="pointerEvents=1;verticalLabelPosition=bottom;shadow=0;dashed=0;align=center;html=1;verticalAlign=top;shape=mxgraph.electrical.resistors.resistor_1;labelBackgroundColor=none;fillColor=#fad7ac;strokeColor=#b46504;" vertex="1" parent="O5oOF6hbG1hNPCvQYXTQ-1">
          <mxGeometry x="-30" y="250" width="110" height="20" as="geometry" />
        </mxCell>
        <mxCell id="OkhAWuhY4NtXZ4p-h41I-24" value="&lt;font style=&quot;font-size: 10px&quot;&gt;GP3&lt;/font&gt;" style="text;html=1;resizable=0;autosize=1;align=center;verticalAlign=middle;points=[];fillColor=none;strokeColor=none;rounded=0;labelBackgroundColor=none;" vertex="1" parent="O5oOF6hbG1hNPCvQYXTQ-1">
          <mxGeometry x="220" y="200" width="40" height="20" as="geometry" />
        </mxCell>
        <mxCell id="OkhAWuhY4NtXZ4p-h41I-25" value="&lt;font style=&quot;font-size: 10px&quot;&gt;GP2&lt;/font&gt;" style="text;html=1;resizable=0;autosize=1;align=center;verticalAlign=middle;points=[];fillColor=none;strokeColor=none;rounded=0;labelBackgroundColor=none;" vertex="1" parent="O5oOF6hbG1hNPCvQYXTQ-1">
          <mxGeometry x="225" y="440" width="40" height="20" as="geometry" />
        </mxCell>
        <mxCell id="OkhAWuhY4NtXZ4p-h41I-26" style="edgeStyle=elbowEdgeStyle;rounded=1;orthogonalLoop=1;jettySize=auto;elbow=vertical;html=1;exitX=0.75;exitY=0;exitDx=0;exitDy=0;endArrow=none;endFill=0;entryX=0;entryY=0.75;entryDx=0;entryDy=0;" edge="1" parent="O5oOF6hbG1hNPCvQYXTQ-1" source="OkhAWuhY4NtXZ4p-h41I-1" target="OkhAWuhY4NtXZ4p-h41I-5">
          <mxGeometry relative="1" as="geometry">
            <mxPoint x="60" y="320" as="sourcePoint" />
            <mxPoint x="40" y="110" as="targetPoint" />
            <Array as="points">
              <mxPoint x="-220" y="160" />
              <mxPoint x="70" y="290" />
            </Array>
          </mxGeometry>
        </mxCell>
        <mxCell id="OkhAWuhY4NtXZ4p-h41I-27" value="&lt;font style=&quot;font-size: 10px&quot;&gt;GN3&lt;/font&gt;" style="text;html=1;resizable=0;autosize=1;align=center;verticalAlign=middle;points=[];fillColor=none;strokeColor=none;rounded=0;labelBackgroundColor=none;" vertex="1" parent="O5oOF6hbG1hNPCvQYXTQ-1">
          <mxGeometry x="390" y="200" width="40" height="20" as="geometry" />
        </mxCell>
        <mxCell id="OkhAWuhY4NtXZ4p-h41I-28" value="&lt;font style=&quot;font-size: 10px&quot;&gt;GN2&lt;/font&gt;" style="text;html=1;resizable=0;autosize=1;align=center;verticalAlign=middle;points=[];fillColor=none;strokeColor=none;rounded=0;labelBackgroundColor=none;" vertex="1" parent="O5oOF6hbG1hNPCvQYXTQ-1">
          <mxGeometry x="540" y="410" width="40" height="20" as="geometry" />
        </mxCell>
        <mxCell id="xidnGpYoMKaCa2fDNDg2-2" value="&lt;font style=&quot;font-size: 10px&quot;&gt;DP3&lt;/font&gt;" style="text;html=1;resizable=0;autosize=1;align=center;verticalAlign=middle;points=[];fillColor=none;strokeColor=none;rounded=0;labelBackgroundColor=none;" vertex="1" parent="O5oOF6hbG1hNPCvQYXTQ-1">
          <mxGeometry x="270" y="200" width="30" height="20" as="geometry" />
        </mxCell>
        <mxCell id="xidnGpYoMKaCa2fDNDg2-3" value="&lt;font style=&quot;font-size: 10px&quot;&gt;SP3&lt;/font&gt;" style="text;html=1;resizable=0;autosize=1;align=center;verticalAlign=middle;points=[];fillColor=none;strokeColor=none;rounded=0;labelBackgroundColor=none;" vertex="1" parent="O5oOF6hbG1hNPCvQYXTQ-1">
          <mxGeometry x="305" y="200" width="30" height="20" as="geometry" />
        </mxCell>
        <mxCell id="xidnGpYoMKaCa2fDNDg2-4" value="&lt;font style=&quot;font-size: 10px&quot;&gt;DN3&lt;/font&gt;" style="text;html=1;resizable=0;autosize=1;align=center;verticalAlign=middle;points=[];fillColor=none;strokeColor=none;rounded=0;labelBackgroundColor=none;" vertex="1" parent="O5oOF6hbG1hNPCvQYXTQ-1">
          <mxGeometry x="435" y="200" width="40" height="20" as="geometry" />
        </mxCell>
        <mxCell id="xidnGpYoMKaCa2fDNDg2-5" value="&lt;font style=&quot;font-size: 10px&quot;&gt;SN3&lt;/font&gt;" style="text;html=1;resizable=0;autosize=1;align=center;verticalAlign=middle;points=[];fillColor=none;strokeColor=none;rounded=0;labelBackgroundColor=none;" vertex="1" parent="O5oOF6hbG1hNPCvQYXTQ-1">
          <mxGeometry x="475" y="200" width="30" height="20" as="geometry" />
        </mxCell>
        <mxCell id="xidnGpYoMKaCa2fDNDg2-6" value="&lt;font style=&quot;font-size: 10px&quot;&gt;DP2&lt;/font&gt;" style="text;html=1;resizable=0;autosize=1;align=center;verticalAlign=middle;points=[];fillColor=none;strokeColor=none;rounded=0;labelBackgroundColor=none;" vertex="1" parent="O5oOF6hbG1hNPCvQYXTQ-1">
          <mxGeometry x="285" y="440" width="30" height="20" as="geometry" />
        </mxCell>
        <mxCell id="xidnGpYoMKaCa2fDNDg2-7" value="&lt;font style=&quot;font-size: 10px&quot;&gt;SP2&lt;/font&gt;" style="text;html=1;resizable=0;autosize=1;align=center;verticalAlign=middle;points=[];fillColor=none;strokeColor=none;rounded=0;labelBackgroundColor=none;" vertex="1" parent="O5oOF6hbG1hNPCvQYXTQ-1">
          <mxGeometry x="335" y="440" width="30" height="20" as="geometry" />
        </mxCell>
        <mxCell id="xidnGpYoMKaCa2fDNDg2-8" value="&lt;font style=&quot;font-size: 10px&quot;&gt;DN2&lt;/font&gt;" style="text;html=1;resizable=0;autosize=1;align=center;verticalAlign=middle;points=[];fillColor=none;strokeColor=none;rounded=0;labelBackgroundColor=none;" vertex="1" parent="O5oOF6hbG1hNPCvQYXTQ-1">
          <mxGeometry x="591" y="410" width="40" height="20" as="geometry" />
        </mxCell>
        <mxCell id="xidnGpYoMKaCa2fDNDg2-9" value="&lt;font style=&quot;font-size: 10px&quot;&gt;SN2&lt;/font&gt;" style="text;html=1;resizable=0;autosize=1;align=center;verticalAlign=middle;points=[];fillColor=none;strokeColor=none;rounded=0;labelBackgroundColor=none;" vertex="1" parent="O5oOF6hbG1hNPCvQYXTQ-1">
          <mxGeometry x="640" y="410" width="30" height="20" as="geometry" />
        </mxCell>
        <mxCell id="xidnGpYoMKaCa2fDNDg2-21" value="" style="edgeStyle=orthogonalEdgeStyle;rounded=1;orthogonalLoop=1;jettySize=auto;html=1;endArrow=none;endFill=0;" edge="1" parent="O5oOF6hbG1hNPCvQYXTQ-1" source="OkhAWuhY4NtXZ4p-h41I-17" target="OkhAWuhY4NtXZ4p-h41I-18">
          <mxGeometry relative="1" as="geometry" />
        </mxCell>
        <mxCell id="OkhAWuhY4NtXZ4p-h41I-17" value="Resistor" style="pointerEvents=1;verticalLabelPosition=bottom;shadow=0;dashed=0;align=center;html=1;verticalAlign=top;shape=mxgraph.electrical.resistors.resistor_1;labelBackgroundColor=none;fillColor=#fad7ac;strokeColor=#b46504;" vertex="1" parent="O5oOF6hbG1hNPCvQYXTQ-1">
          <mxGeometry x="-30" y="310" width="110" height="20" as="geometry" />
        </mxCell>
        <mxCell id="xidnGpYoMKaCa2fDNDg2-15" value="" style="endArrow=none;html=1;edgeStyle=orthogonalEdgeStyle;entryX=0;entryY=0.5;entryDx=0;entryDy=0;entryPerimeter=0;exitX=0.177;exitY=-0.1;exitDx=0;exitDy=0;exitPerimeter=0;fillColor=#6a00ff;strokeColor=#3700CC;" edge="1" parent="O5oOF6hbG1hNPCvQYXTQ-1" source="OkhAWuhY4NtXZ4p-h41I-3" target="OkhAWuhY4NtXZ4p-h41I-17">
          <mxGeometry width="50" height="50" relative="1" as="geometry">
            <mxPoint x="160" y="650" as="sourcePoint" />
            <mxPoint x="-31" y="330" as="targetPoint" />
            <Array as="points">
              <mxPoint x="163" y="650" />
              <mxPoint x="-30" y="650" />
            </Array>
          </mxGeometry>
        </mxCell>
        <mxCell id="xidnGpYoMKaCa2fDNDg2-24" value="" style="edgeStyle=orthogonalEdgeStyle;rounded=1;orthogonalLoop=1;jettySize=auto;html=1;endArrow=none;endFill=0;" edge="1" parent="O5oOF6hbG1hNPCvQYXTQ-1" source="xidnGpYoMKaCa2fDNDg2-22" target="OkhAWuhY4NtXZ4p-h41I-16">
          <mxGeometry relative="1" as="geometry" />
        </mxCell>
        <mxCell id="xidnGpYoMKaCa2fDNDg2-22" value="Resistor" style="pointerEvents=1;verticalLabelPosition=bottom;shadow=0;dashed=0;align=center;html=1;verticalAlign=top;shape=mxgraph.electrical.resistors.resistor_1;labelBackgroundColor=none;fillColor=#fad7ac;strokeColor=#b46504;" vertex="1" parent="O5oOF6hbG1hNPCvQYXTQ-1">
          <mxGeometry x="591" y="210" width="110" height="20" as="geometry" />
        </mxCell>
      </root>
    </mxGraphModel>
  </diagram>
  <diagram id="ow9w4BBJnU5ACpBioDgS" name="Page-3">
    <mxGraphModel dx="3588" dy="1588" grid="1" gridSize="10" guides="1" tooltips="1" connect="1" arrows="1" fold="1" page="1" pageScale="1" pageWidth="850" pageHeight="1100" math="0" shadow="0">
      <root>
        <mxCell id="hf_IYml40izhRpLlfhsK-0" />
        <mxCell id="hf_IYml40izhRpLlfhsK-1" parent="hf_IYml40izhRpLlfhsK-0" />
        <mxCell id="10fldKgWdQZELq4I8_SG-33" style="edgeStyle=orthogonalEdgeStyle;rounded=1;orthogonalLoop=1;jettySize=auto;html=1;endArrow=none;endFill=0;exitX=0.425;exitY=1.05;exitDx=0;exitDy=0;exitPerimeter=0;gradientColor=#d5739d;fillColor=#e6d0de;strokeColor=#996185;" edge="1" parent="hf_IYml40izhRpLlfhsK-1" source="10fldKgWdQZELq4I8_SG-23">
          <mxGeometry relative="1" as="geometry">
            <mxPoint x="-80" y="520" as="targetPoint" />
            <mxPoint x="230" y="850" as="sourcePoint" />
            <Array as="points">
              <mxPoint x="230" y="811" />
              <mxPoint x="230" y="870" />
              <mxPoint x="137" y="870" />
              <mxPoint x="137" y="520" />
              <mxPoint x="-77" y="520" />
            </Array>
          </mxGeometry>
        </mxCell>
        <mxCell id="10fldKgWdQZELq4I8_SG-0" value="NMOS" style="whiteSpace=wrap;html=1;aspect=fixed;labelBackgroundColor=none;fillColor=#fff2cc;strokeColor=#d6b656;" vertex="1" parent="hf_IYml40izhRpLlfhsK-1">
          <mxGeometry x="110" y="260" width="190" height="190" as="geometry" />
        </mxCell>
        <mxCell id="10fldKgWdQZELq4I8_SG-36" style="edgeStyle=orthogonalEdgeStyle;rounded=1;orthogonalLoop=1;jettySize=auto;html=1;exitX=0.095;exitY=0.995;exitDx=0;exitDy=0;endArrow=none;endFill=0;exitPerimeter=0;entryX=1.033;entryY=0.6;entryDx=0;entryDy=0;entryPerimeter=0;fillColor=#008a00;strokeColor=#005700;" edge="1" parent="hf_IYml40izhRpLlfhsK-1" source="10fldKgWdQZELq4I8_SG-1" target="10fldKgWdQZELq4I8_SG-13">
          <mxGeometry relative="1" as="geometry">
            <mxPoint x="600" y="600" as="targetPoint" />
            <Array as="points">
              <mxPoint x="928" y="570" />
              <mxPoint x="600" y="570" />
              <mxPoint x="600" y="592" />
            </Array>
          </mxGeometry>
        </mxCell>
        <mxCell id="10fldKgWdQZELq4I8_SG-38" style="edgeStyle=orthogonalEdgeStyle;rounded=1;orthogonalLoop=1;jettySize=auto;html=1;exitX=0.5;exitY=1;exitDx=0;exitDy=0;endArrow=none;endFill=0;fillColor=#dae8fc;strokeColor=#6c8ebf;gradientColor=#7ea6e0;" edge="1" parent="hf_IYml40izhRpLlfhsK-1" source="10fldKgWdQZELq4I8_SG-1">
          <mxGeometry relative="1" as="geometry">
            <mxPoint x="581" y="440" as="targetPoint" />
            <Array as="points">
              <mxPoint x="1005" y="510" />
              <mxPoint x="630" y="510" />
              <mxPoint x="630" y="530" />
              <mxPoint x="580" y="530" />
            </Array>
          </mxGeometry>
        </mxCell>
        <mxCell id="10fldKgWdQZELq4I8_SG-42" style="edgeStyle=orthogonalEdgeStyle;rounded=1;orthogonalLoop=1;jettySize=auto;html=1;exitX=0.911;exitY=0.995;exitDx=0;exitDy=0;endArrow=none;endFill=0;exitPerimeter=0;" edge="1" parent="hf_IYml40izhRpLlfhsK-1" source="10fldKgWdQZELq4I8_SG-1">
          <mxGeometry relative="1" as="geometry">
            <mxPoint x="1094" y="170" as="targetPoint" />
            <Array as="points">
              <mxPoint x="1083" y="470" />
              <mxPoint x="1180" y="470" />
              <mxPoint x="1180" y="215" />
              <mxPoint x="1153" y="215" />
              <mxPoint x="1153" y="190" />
              <mxPoint x="1094" y="190" />
            </Array>
          </mxGeometry>
        </mxCell>
        <mxCell id="10fldKgWdQZELq4I8_SG-44" style="edgeStyle=orthogonalEdgeStyle;rounded=1;orthogonalLoop=1;jettySize=auto;html=1;endArrow=none;endFill=0;" edge="1" parent="hf_IYml40izhRpLlfhsK-1">
          <mxGeometry relative="1" as="geometry">
            <mxPoint x="659" y="450" as="targetPoint" />
            <mxPoint x="1080" y="450" as="sourcePoint" />
            <Array as="points">
              <mxPoint x="1080" y="490" />
              <mxPoint x="1053" y="490" />
              <mxPoint x="1053" y="475" />
              <mxPoint x="670" y="475" />
              <mxPoint x="670" y="500" />
              <mxPoint x="659" y="500" />
            </Array>
          </mxGeometry>
        </mxCell>
        <mxCell id="10fldKgWdQZELq4I8_SG-1" value="NMOS" style="whiteSpace=wrap;html=1;aspect=fixed;labelBackgroundColor=none;fillColor=#fff2cc;strokeColor=#d6b656;" vertex="1" parent="hf_IYml40izhRpLlfhsK-1">
          <mxGeometry x="910" y="260" width="190" height="190" as="geometry" />
        </mxCell>
        <mxCell id="10fldKgWdQZELq4I8_SG-35" style="edgeStyle=orthogonalEdgeStyle;rounded=1;orthogonalLoop=1;jettySize=auto;html=1;endArrow=none;endFill=0;exitX=0.425;exitY=1;exitDx=0;exitDy=0;exitPerimeter=0;gradientColor=#ffd966;fillColor=#fff2cc;strokeColor=#d6b656;" edge="1" parent="hf_IYml40izhRpLlfhsK-1" source="10fldKgWdQZELq4I8_SG-17">
          <mxGeometry relative="1" as="geometry">
            <mxPoint x="-80" y="554" as="targetPoint" />
            <mxPoint x="516" y="450" as="sourcePoint" />
            <Array as="points">
              <mxPoint x="507" y="520" />
              <mxPoint x="240" y="520" />
              <mxPoint x="240" y="554" />
            </Array>
          </mxGeometry>
        </mxCell>
        <mxCell id="10fldKgWdQZELq4I8_SG-37" style="edgeStyle=orthogonalEdgeStyle;rounded=1;orthogonalLoop=1;jettySize=auto;html=1;exitX=0.5;exitY=1;exitDx=0;exitDy=0;endArrow=none;endFill=0;gradientColor=#7ea6e0;fillColor=#dae8fc;strokeColor=#6c8ebf;" edge="1" parent="hf_IYml40izhRpLlfhsK-1" source="10fldKgWdQZELq4I8_SG-2">
          <mxGeometry relative="1" as="geometry">
            <mxPoint x="201" y="450" as="targetPoint" />
            <Array as="points">
              <mxPoint x="585" y="500" />
              <mxPoint x="201" y="500" />
            </Array>
          </mxGeometry>
        </mxCell>
        <mxCell id="10fldKgWdQZELq4I8_SG-45" style="edgeStyle=orthogonalEdgeStyle;rounded=1;orthogonalLoop=1;jettySize=auto;html=1;endArrow=none;endFill=0;exitX=0.475;exitY=1;exitDx=0;exitDy=0;exitPerimeter=0;" edge="1" parent="hf_IYml40izhRpLlfhsK-1" source="10fldKgWdQZELq4I8_SG-19" target="10fldKgWdQZELq4I8_SG-16">
          <mxGeometry relative="1" as="geometry">
            <mxPoint x="280" y="460" as="targetPoint" />
            <mxPoint x="654" y="450" as="sourcePoint" />
            <Array as="points">
              <mxPoint x="654" y="450" />
              <mxPoint x="654" y="480" />
              <mxPoint x="300" y="480" />
              <mxPoint x="300" y="490" />
              <mxPoint x="280" y="490" />
            </Array>
          </mxGeometry>
        </mxCell>
        <mxCell id="10fldKgWdQZELq4I8_SG-2" value="NMOS" style="whiteSpace=wrap;html=1;aspect=fixed;labelBackgroundColor=none;fillColor=#fff2cc;strokeColor=#d6b656;" vertex="1" parent="hf_IYml40izhRpLlfhsK-1">
          <mxGeometry x="490" y="260" width="190" height="190" as="geometry" />
        </mxCell>
        <mxCell id="10fldKgWdQZELq4I8_SG-40" style="edgeStyle=orthogonalEdgeStyle;rounded=1;orthogonalLoop=1;jettySize=auto;html=1;exitX=0.105;exitY=1.011;exitDx=0;exitDy=0;endArrow=none;endFill=0;exitPerimeter=0;entryX=1.067;entryY=0.65;entryDx=0;entryDy=0;entryPerimeter=0;fillColor=#008a00;strokeColor=#005700;" edge="1" parent="hf_IYml40izhRpLlfhsK-1" source="10fldKgWdQZELq4I8_SG-3" target="10fldKgWdQZELq4I8_SG-13">
          <mxGeometry relative="1" as="geometry">
            <mxPoint x="-70" y="590" as="targetPoint" />
            <Array as="points">
              <mxPoint x="1075" y="970" />
              <mxPoint x="-70" y="970" />
              <mxPoint x="-70" y="593" />
            </Array>
          </mxGeometry>
        </mxCell>
        <mxCell id="10fldKgWdQZELq4I8_SG-49" style="edgeStyle=orthogonalEdgeStyle;rounded=1;orthogonalLoop=1;jettySize=auto;html=1;exitX=0.911;exitY=1;exitDx=0;exitDy=0;entryX=0.965;entryY=0.017;entryDx=0;entryDy=0;entryPerimeter=0;endArrow=none;endFill=0;exitPerimeter=0;" edge="1" parent="hf_IYml40izhRpLlfhsK-1" source="10fldKgWdQZELq4I8_SG-3" target="10fldKgWdQZELq4I8_SG-46">
          <mxGeometry relative="1" as="geometry" />
        </mxCell>
        <mxCell id="D_Wm-GMoHNm2_G2T1SPJ-15" style="edgeStyle=orthogonalEdgeStyle;rounded=1;orthogonalLoop=1;jettySize=auto;html=1;exitX=0.5;exitY=1;exitDx=0;exitDy=0;endArrow=none;endFill=0;fillColor=#f8cecc;strokeColor=#b85450;" edge="1" parent="hf_IYml40izhRpLlfhsK-1" source="10fldKgWdQZELq4I8_SG-3">
          <mxGeometry relative="1" as="geometry">
            <mxPoint x="550" y="830" as="targetPoint" />
            <Array as="points">
              <mxPoint x="1150" y="845" />
              <mxPoint x="630" y="845" />
              <mxPoint x="630" y="880" />
            </Array>
          </mxGeometry>
        </mxCell>
        <mxCell id="10fldKgWdQZELq4I8_SG-3" value="PMOS" style="whiteSpace=wrap;html=1;aspect=fixed;labelBackgroundColor=none;fillColor=#d5e8d4;strokeColor=#82b366;" vertex="1" parent="hf_IYml40izhRpLlfhsK-1">
          <mxGeometry x="1055" y="620" width="190" height="190" as="geometry" />
        </mxCell>
        <mxCell id="10fldKgWdQZELq4I8_SG-39" style="edgeStyle=orthogonalEdgeStyle;rounded=1;orthogonalLoop=1;jettySize=auto;html=1;endArrow=none;endFill=0;exitX=0.126;exitY=1.005;exitDx=0;exitDy=0;exitPerimeter=0;entryX=1.167;entryY=0.45;entryDx=0;entryDy=0;entryPerimeter=0;gradientColor=#ffd966;fillColor=#fff2cc;strokeColor=#d6b656;" edge="1" parent="hf_IYml40izhRpLlfhsK-1" source="10fldKgWdQZELq4I8_SG-4" target="10fldKgWdQZELq4I8_SG-12">
          <mxGeometry relative="1" as="geometry">
            <mxPoint x="-30" y="560" as="targetPoint" />
            <mxPoint x="669" y="820" as="sourcePoint" />
            <Array as="points">
              <mxPoint x="674" y="900" />
              <mxPoint x="270" y="900" />
              <mxPoint x="270" y="920" />
              <mxPoint x="-30" y="920" />
              <mxPoint x="-30" y="660" />
              <mxPoint x="-10" y="660" />
              <mxPoint x="-10" y="554" />
            </Array>
          </mxGeometry>
        </mxCell>
        <mxCell id="10fldKgWdQZELq4I8_SG-48" style="edgeStyle=orthogonalEdgeStyle;rounded=1;orthogonalLoop=1;jettySize=auto;html=1;entryX=0.666;entryY=0;entryDx=0;entryDy=0;entryPerimeter=0;endArrow=none;endFill=0;exitX=0.9;exitY=0.995;exitDx=0;exitDy=0;exitPerimeter=0;" edge="1" parent="hf_IYml40izhRpLlfhsK-1" source="10fldKgWdQZELq4I8_SG-4" target="10fldKgWdQZELq4I8_SG-46">
          <mxGeometry relative="1" as="geometry" />
        </mxCell>
        <mxCell id="D_Wm-GMoHNm2_G2T1SPJ-14" style="edgeStyle=orthogonalEdgeStyle;rounded=1;orthogonalLoop=1;jettySize=auto;html=1;exitX=0.5;exitY=1;exitDx=0;exitDy=0;endArrow=none;endFill=0;fillColor=#f8cecc;strokeColor=#b85450;" edge="1" parent="hf_IYml40izhRpLlfhsK-1" source="10fldKgWdQZELq4I8_SG-4">
          <mxGeometry relative="1" as="geometry">
            <mxPoint x="50" y="850" as="targetPoint" />
          </mxGeometry>
        </mxCell>
        <mxCell id="10fldKgWdQZELq4I8_SG-4" value="PMOS&amp;nbsp;" style="whiteSpace=wrap;html=1;aspect=fixed;labelBackgroundColor=none;fillColor=#d5e8d4;strokeColor=#82b366;" vertex="1" parent="hf_IYml40izhRpLlfhsK-1">
          <mxGeometry x="650" y="620" width="190" height="190" as="geometry" />
        </mxCell>
        <mxCell id="10fldKgWdQZELq4I8_SG-47" style="edgeStyle=orthogonalEdgeStyle;rounded=1;orthogonalLoop=1;jettySize=auto;html=1;exitX=0.905;exitY=1.005;exitDx=0;exitDy=0;entryX=0.5;entryY=0;entryDx=0;entryDy=0;endArrow=none;endFill=0;exitPerimeter=0;" edge="1" parent="hf_IYml40izhRpLlfhsK-1" source="10fldKgWdQZELq4I8_SG-5" target="10fldKgWdQZELq4I8_SG-46">
          <mxGeometry relative="1" as="geometry" />
        </mxCell>
        <mxCell id="D_Wm-GMoHNm2_G2T1SPJ-13" style="edgeStyle=orthogonalEdgeStyle;rounded=1;orthogonalLoop=1;jettySize=auto;html=1;exitX=0.5;exitY=1;exitDx=0;exitDy=0;endArrow=none;endFill=0;fillColor=#f8cecc;strokeColor=#b85450;entryX=1;entryY=0.5;entryDx=0;entryDy=0;entryPerimeter=0;" edge="1" parent="hf_IYml40izhRpLlfhsK-1" source="10fldKgWdQZELq4I8_SG-5" target="D_Wm-GMoHNm2_G2T1SPJ-16">
          <mxGeometry relative="1" as="geometry">
            <mxPoint x="-30" y="530" as="targetPoint" />
            <Array as="points">
              <mxPoint x="305" y="830" />
              <mxPoint y="830" />
              <mxPoint y="580" />
              <mxPoint x="-29" y="580" />
            </Array>
          </mxGeometry>
        </mxCell>
        <mxCell id="10fldKgWdQZELq4I8_SG-5" value="PMOS" style="whiteSpace=wrap;html=1;aspect=fixed;labelBackgroundColor=none;fillColor=#d5e8d4;strokeColor=#82b366;" vertex="1" parent="hf_IYml40izhRpLlfhsK-1">
          <mxGeometry x="210" y="620" width="190" height="190" as="geometry" />
        </mxCell>
        <mxCell id="10fldKgWdQZELq4I8_SG-34" style="edgeStyle=orthogonalEdgeStyle;rounded=1;orthogonalLoop=1;jettySize=auto;html=1;exitX=1;exitY=0.25;exitDx=0;exitDy=0;entryX=0.525;entryY=1;entryDx=0;entryDy=0;entryPerimeter=0;endArrow=none;endFill=0;gradientColor=#d5739d;fillColor=#e6d0de;strokeColor=#996185;" edge="1" parent="hf_IYml40izhRpLlfhsK-1" source="10fldKgWdQZELq4I8_SG-6" target="10fldKgWdQZELq4I8_SG-14">
          <mxGeometry relative="1" as="geometry" />
        </mxCell>
        <mxCell id="D_Wm-GMoHNm2_G2T1SPJ-10" style="edgeStyle=orthogonalEdgeStyle;rounded=1;orthogonalLoop=1;jettySize=auto;html=1;exitX=0.25;exitY=1;exitDx=0;exitDy=0;entryX=0;entryY=0.75;entryDx=0;entryDy=0;endArrow=none;endFill=0;gradientColor=#97d077;fillColor=#d5e8d4;strokeColor=#82b366;" edge="1" parent="hf_IYml40izhRpLlfhsK-1" source="10fldKgWdQZELq4I8_SG-6" target="10fldKgWdQZELq4I8_SG-46">
          <mxGeometry relative="1" as="geometry" />
        </mxCell>
        <mxCell id="D_Wm-GMoHNm2_G2T1SPJ-11" style="edgeStyle=orthogonalEdgeStyle;rounded=1;orthogonalLoop=1;jettySize=auto;html=1;exitX=0.5;exitY=1;exitDx=0;exitDy=0;entryX=0;entryY=0.25;entryDx=0;entryDy=0;endArrow=none;endFill=0;gradientColor=#97d077;fillColor=#d5e8d4;strokeColor=#82b366;" edge="1" parent="hf_IYml40izhRpLlfhsK-1" source="10fldKgWdQZELq4I8_SG-6" target="10fldKgWdQZELq4I8_SG-46">
          <mxGeometry relative="1" as="geometry" />
        </mxCell>
        <mxCell id="D_Wm-GMoHNm2_G2T1SPJ-12" style="edgeStyle=orthogonalEdgeStyle;rounded=1;orthogonalLoop=1;jettySize=auto;html=1;exitX=0.75;exitY=1;exitDx=0;exitDy=0;entryX=0;entryY=0;entryDx=0;entryDy=0;endArrow=none;endFill=0;gradientColor=#97d077;fillColor=#d5e8d4;strokeColor=#82b366;" edge="1" parent="hf_IYml40izhRpLlfhsK-1" source="10fldKgWdQZELq4I8_SG-6" target="10fldKgWdQZELq4I8_SG-46">
          <mxGeometry relative="1" as="geometry" />
        </mxCell>
        <mxCell id="10fldKgWdQZELq4I8_SG-6" value="Switch" style="whiteSpace=wrap;html=1;aspect=fixed;labelBackgroundColor=none;fillColor=#0050ef;strokeColor=#001DBC;fontColor=#ffffff;" vertex="1" parent="hf_IYml40izhRpLlfhsK-1">
          <mxGeometry x="-230" y="480" width="150" height="150" as="geometry" />
        </mxCell>
        <mxCell id="10fldKgWdQZELq4I8_SG-11" value="1A&lt;span style=&quot;color: rgba(0 , 0 , 0 , 0) ; font-family: monospace ; font-size: 0px&quot;&gt;%3CmxGraphModel%3E%3Croot%3E%3CmxCell%20id%3D%220%22%2F%3E%3CmxCell%20id%3D%221%22%20parent%3D%220%22%2F%3E%3CmxCell%20id%3D%222%22%20value%3D%22%22%20style%3D%22whiteSpace%3Dwrap%3Bhtml%3D1%3Baspect%3Dfixed%3BlabelBackgroundColor%3Dnone%3BfillColor%3D%23ffffff%3BgradientColor%3Dnone%3B%22%20vertex%3D%221%22%20parent%3D%221%22%3E%3CmxGeometry%20x%3D%2280%22%20y%3D%2270%22%20width%3D%22190%22%20height%3D%22190%22%20as%3D%22geometry%22%2F%3E%3C%2FmxCell%3E%3C%2Froot%3E%3C%2FmxGraphModel%3E&lt;/span&gt;" style="text;html=1;resizable=0;autosize=1;align=center;verticalAlign=middle;points=[];fillColor=none;strokeColor=none;rounded=0;labelBackgroundColor=none;" vertex="1" parent="hf_IYml40izhRpLlfhsK-1">
          <mxGeometry x="-110" y="510" width="30" height="20" as="geometry" />
        </mxCell>
        <mxCell id="10fldKgWdQZELq4I8_SG-12" value="2B&lt;span style=&quot;color: rgba(0 , 0 , 0 , 0) ; font-family: monospace ; font-size: 0px&quot;&gt;%3CmxGraphModel%3E%3Croot%3E%3CmxCell%20id%3D%220%22%2F%3E%3CmxCell%20id%3D%221%22%20parent%3D%220%22%2F%3E%3CmxCell%20id%3D%222%22%20value%3D%22%22%20style%3D%22whiteSpace%3Dwrap%3Bhtml%3D1%3Baspect%3Dfixed%3BlabelBackgroundColor%3Dnone%3BfillColor%3D%23ffffff%3BgradientColor%3Dnone%3B%22%20vertex%3D%221%22%20parent%3D%221%22%3E%3CmxGeometry%20x%3D%2280%22%20y%3D%2270%22%20width%3D%22190%22%20height%3D%22190%22%20as%3D%22geometry%22%2F%3E%3C%2FmxCell%3E%3C%2Froot%3E%3C%2FmxGraphModel%3E&lt;/span&gt;" style="text;html=1;resizable=0;autosize=1;align=center;verticalAlign=middle;points=[];fillColor=none;strokeColor=none;rounded=0;labelBackgroundColor=none;" vertex="1" parent="hf_IYml40izhRpLlfhsK-1">
          <mxGeometry x="-110" y="545" width="30" height="20" as="geometry" />
        </mxCell>
        <mxCell id="10fldKgWdQZELq4I8_SG-13" value="3C&lt;span style=&quot;color: rgba(0 , 0 , 0 , 0) ; font-family: monospace ; font-size: 0px&quot;&gt;%3CmxGraphModel%3E%3Croot%3E%3CmxCell%20id%3D%220%22%2F%3E%3CmxCell%20id%3D%221%22%20parent%3D%220%22%2F%3E%3CmxCell%20id%3D%222%22%20value%3D%22%22%20style%3D%22whiteSpace%3Dwrap%3Bhtml%3D1%3Baspect%3Dfixed%3BlabelBackgroundColor%3Dnone%3BfillColor%3D%23ffffff%3BgradientColor%3Dnone%3B%22%20vertex%3D%221%22%20parent%3D%221%22%3E%3CmxGeometry%20x%3D%2280%22%20y%3D%2270%22%20width%3D%22190%22%20height%3D%22190%22%20as%3D%22geometry%22%2F%3E%3C%2FmxCell%3E%3C%2Froot%3E%3C%2FmxGraphModel%3E&lt;/span&gt;" style="text;html=1;resizable=0;autosize=1;align=center;verticalAlign=middle;points=[];fillColor=none;strokeColor=none;rounded=0;labelBackgroundColor=none;" vertex="1" parent="hf_IYml40izhRpLlfhsK-1">
          <mxGeometry x="-110" y="580" width="30" height="20" as="geometry" />
        </mxCell>
        <mxCell id="10fldKgWdQZELq4I8_SG-14" value="GN2&lt;span style=&quot;color: rgba(0 , 0 , 0 , 0) ; font-family: monospace ; font-size: 0px&quot;&gt;%3CmxGraphModel%3E%3Croot%3E%3CmxCell%20id%3D%220%22%2F%3E%3CmxCell%20id%3D%221%22%20parent%3D%220%22%2F%3E%3CmxCell%20id%3D%222%22%20value%3D%221A%26lt%3Bspan%20style%3D%26quot%3Bcolor%3A%20rgba(0%20%2C%200%20%2C%200%20%2C%200)%20%3B%20font-family%3A%20monospace%20%3B%20font-size%3A%200px%26quot%3B%26gt%3B%253CmxGraphModel%253E%253Croot%253E%253CmxCell%2520id%253D%25220%2522%252F%253E%253CmxCell%2520id%253D%25221%2522%2520parent%253D%25220%2522%252F%253E%253CmxCell%2520id%253D%25222%2522%2520value%253D%2522%2522%2520style%253D%2522whiteSpace%253Dwrap%253Bhtml%253D1%253Baspect%253Dfixed%253BlabelBackgroundColor%253Dnone%253BfillColor%253D%2523ffffff%253BgradientColor%253Dnone%253B%2522%2520vertex%253D%25221%2522%2520parent%253D%25221%2522%253E%253CmxGeometry%2520x%253D%252280%2522%2520y%253D%252270%2522%2520width%253D%2522190%2522%2520height%253D%2522190%2522%2520as%253D%2522geometry%2522%252F%253E%253C%252FmxCell%253E%253C%252Froot%253E%253C%252FmxGraphModel%253E%26lt%3B%2Fspan%26gt%3B%22%20style%3D%22text%3Bhtml%3D1%3Bresizable%3D0%3Bautosize%3D1%3Balign%3Dcenter%3BverticalAlign%3Dmiddle%3Bpoints%3D%5B%5D%3BfillColor%3Dnone%3BstrokeColor%3Dnone%3Brounded%3D0%3BlabelBackgroundColor%3Dnone%3B%22%20vertex%3D%221%22%20parent%3D%221%22%3E%3CmxGeometry%20x%3D%22-115%22%20y%3D%22510%22%20width%3D%2230%22%20height%3D%2220%22%20as%3D%22geometry%22%2F%3E%3C%2FmxCell%3E%3C%2Froot%3E%3C%2FmxGraphModel%3E&lt;/span&gt;" style="text;html=1;resizable=0;autosize=1;align=center;verticalAlign=middle;points=[];fillColor=none;strokeColor=none;rounded=0;labelBackgroundColor=none;" vertex="1" parent="hf_IYml40izhRpLlfhsK-1">
          <mxGeometry x="110" y="430" width="40" height="20" as="geometry" />
        </mxCell>
        <mxCell id="10fldKgWdQZELq4I8_SG-15" value="DN2&lt;span style=&quot;color: rgba(0 , 0 , 0 , 0) ; font-family: monospace ; font-size: 0px&quot;&gt;%3CmxGraphModel%3E%3Croot%3E%3CmxCell%20id%3D%220%22%2F%3E%3CmxCell%20id%3D%221%22%20parent%3D%220%22%2F%3E%3CmxCell%20id%3D%222%22%20value%3D%221A%26lt%3Bspan%20style%3D%26quot%3Bcolor%3A%20rgba(0%20%2C%200%20%2C%200%20%2C%200)%20%3B%20font-family%3A%20monospace%20%3B%20font-size%3A%200px%26quot%3B%26gt%3B%253CmxGraphModel%253E%253Croot%253E%253CmxCell%2520id%253D%25220%2522%252F%253E%253CmxCell%2520id%253D%25221%2522%2520parent%253D%25220%2522%252F%253E%253CmxCell%2520id%253D%25222%2522%2520value%253D%2522%2522%2520style%253D%2522whiteSpace%253Dwrap%253Bhtml%253D1%253Baspect%253Dfixed%253BlabelBackgroundColor%253Dnone%253BfillColor%253D%2523ffffff%253BgradientColor%253Dnone%253B%2522%2520vertex%253D%25221%2522%2520parent%253D%25221%2522%253E%253CmxGeometry%2520x%253D%252280%2522%2520y%253D%252270%2522%2520width%253D%2522190%2522%2520height%253D%2522190%2522%2520as%253D%2522geometry%2522%252F%253E%253C%252FmxCell%253E%253C%252Froot%253E%253C%252FmxGraphModel%253E%26lt%3B%2Fspan%26gt%3B%22%20style%3D%22text%3Bhtml%3D1%3Bresizable%3D0%3Bautosize%3D1%3Balign%3Dcenter%3BverticalAlign%3Dmiddle%3Bpoints%3D%5B%5D%3BfillColor%3Dnone%3BstrokeColor%3Dnone%3Brounded%3D0%3BlabelBackgroundColor%3Dnone%3B%22%20vertex%3D%221%22%20parent%3D%221%22%3E%3CmxGeometry%20x%3D%22-115%22%20y%3D%22510%22%20width%3D%2230%22%20height%3D%2220%22%20as%3D%22geometry%22%2F%3E%3C%2FmxCell%3E%3C%2Froot%3E%3C%2FmxGraphModel%3E&lt;/span&gt;" style="text;html=1;resizable=0;autosize=1;align=center;verticalAlign=middle;points=[];fillColor=none;strokeColor=none;rounded=0;labelBackgroundColor=none;" vertex="1" parent="hf_IYml40izhRpLlfhsK-1">
          <mxGeometry x="185" y="430" width="40" height="20" as="geometry" />
        </mxCell>
        <mxCell id="10fldKgWdQZELq4I8_SG-16" value="SN2&lt;span style=&quot;color: rgba(0 , 0 , 0 , 0) ; font-family: monospace ; font-size: 0px&quot;&gt;%3CmxGraphModel%3E%3Croot%3E%3CmxCell%20id%3D%220%22%2F%3E%3CmxCell%20id%3D%221%22%20parent%3D%220%22%2F%3E%3CmxCell%20id%3D%222%22%20value%3D%221A%26lt%3Bspan%20style%3D%26quot%3Bcolor%3A%20rgba(0%20%2C%200%20%2C%200%20%2C%200)%20%3B%20font-family%3A%20monospace%20%3B%20font-size%3A%200px%26quot%3B%26gt%3B%253CmxGraphModel%253E%253Croot%253E%253CmxCell%2520id%253D%25220%2522%252F%253E%253CmxCell%2520id%253D%25221%2522%2520parent%253D%25220%2522%252F%253E%253CmxCell%2520id%253D%25222%2522%2520value%253D%2522%2522%2520style%253D%2522whiteSpace%253Dwrap%253Bhtml%253D1%253Baspect%253Dfixed%253BlabelBackgroundColor%253Dnone%253BfillColor%253D%2523ffffff%253BgradientColor%253Dnone%253B%2522%2520vertex%253D%25221%2522%2520parent%253D%25221%2522%253E%253CmxGeometry%2520x%253D%252280%2522%2520y%253D%252270%2522%2520width%253D%2522190%2522%2520height%253D%2522190%2522%2520as%253D%2522geometry%2522%252F%253E%253C%252FmxCell%253E%253C%252Froot%253E%253C%252FmxGraphModel%253E%26lt%3B%2Fspan%26gt%3B%22%20style%3D%22text%3Bhtml%3D1%3Bresizable%3D0%3Bautosize%3D1%3Balign%3Dcenter%3BverticalAlign%3Dmiddle%3Bpoints%3D%5B%5D%3BfillColor%3Dnone%3BstrokeColor%3Dnone%3Brounded%3D0%3BlabelBackgroundColor%3Dnone%3B%22%20vertex%3D%221%22%20parent%3D%221%22%3E%3CmxGeometry%20x%3D%22-115%22%20y%3D%22510%22%20width%3D%2230%22%20height%3D%2220%22%20as%3D%22geometry%22%2F%3E%3C%2FmxCell%3E%3C%2Froot%3E%3C%2FmxGraphModel%3E&lt;/span&gt;" style="text;html=1;resizable=0;autosize=1;align=center;verticalAlign=middle;points=[];fillColor=none;strokeColor=none;rounded=0;labelBackgroundColor=none;" vertex="1" parent="hf_IYml40izhRpLlfhsK-1">
          <mxGeometry x="260" y="430" width="40" height="20" as="geometry" />
        </mxCell>
        <mxCell id="10fldKgWdQZELq4I8_SG-17" value="GN3&lt;span style=&quot;color: rgba(0 , 0 , 0 , 0) ; font-family: monospace ; font-size: 0px&quot;&gt;%3CmxGraphModel%3E%3Croot%3E%3CmxCell%20id%3D%220%22%2F%3E%3CmxCell%20id%3D%221%22%20parent%3D%220%22%2F%3E%3CmxCell%20id%3D%222%22%20value%3D%221A%26lt%3Bspan%20style%3D%26quot%3Bcolor%3A%20rgba(0%20%2C%200%20%2C%200%20%2C%200)%20%3B%20font-family%3A%20monospace%20%3B%20font-size%3A%200px%26quot%3B%26gt%3B%253CmxGraphModel%253E%253Croot%253E%253CmxCell%2520id%253D%25220%2522%252F%253E%253CmxCell%2520id%253D%25221%2522%2520parent%253D%25220%2522%252F%253E%253CmxCell%2520id%253D%25222%2522%2520value%253D%2522%2522%2520style%253D%2522whiteSpace%253Dwrap%253Bhtml%253D1%253Baspect%253Dfixed%253BlabelBackgroundColor%253Dnone%253BfillColor%253D%2523ffffff%253BgradientColor%253Dnone%253B%2522%2520vertex%253D%25221%2522%2520parent%253D%25221%2522%253E%253CmxGeometry%2520x%253D%252280%2522%2520y%253D%252270%2522%2520width%253D%2522190%2522%2520height%253D%2522190%2522%2520as%253D%2522geometry%2522%252F%253E%253C%252FmxCell%253E%253C%252Froot%253E%253C%252FmxGraphModel%253E%26lt%3B%2Fspan%26gt%3B%22%20style%3D%22text%3Bhtml%3D1%3Bresizable%3D0%3Bautosize%3D1%3Balign%3Dcenter%3BverticalAlign%3Dmiddle%3Bpoints%3D%5B%5D%3BfillColor%3Dnone%3BstrokeColor%3Dnone%3Brounded%3D0%3BlabelBackgroundColor%3Dnone%3B%22%20vertex%3D%221%22%20parent%3D%221%22%3E%3CmxGeometry%20x%3D%22-115%22%20y%3D%22510%22%20width%3D%2230%22%20height%3D%2220%22%20as%3D%22geometry%22%2F%3E%3C%2FmxCell%3E%3C%2Froot%3E%3C%2FmxGraphModel%3E&lt;/span&gt;" style="text;html=1;resizable=0;autosize=1;align=center;verticalAlign=middle;points=[];fillColor=none;strokeColor=none;rounded=0;labelBackgroundColor=none;" vertex="1" parent="hf_IYml40izhRpLlfhsK-1">
          <mxGeometry x="490" y="430" width="40" height="20" as="geometry" />
        </mxCell>
        <mxCell id="10fldKgWdQZELq4I8_SG-18" value="DN3&lt;span style=&quot;color: rgba(0 , 0 , 0 , 0) ; font-family: monospace ; font-size: 0px&quot;&gt;%3CmxGraphModel%3E%3Croot%3E%3CmxCell%20id%3D%220%22%2F%3E%3CmxCell%20id%3D%221%22%20parent%3D%220%22%2F%3E%3CmxCell%20id%3D%222%22%20value%3D%221A%26lt%3Bspan%20style%3D%26quot%3Bcolor%3A%20rgba(0%20%2C%200%20%2C%200%20%2C%200)%20%3B%20font-family%3A%20monospace%20%3B%20font-size%3A%200px%26quot%3B%26gt%3B%253CmxGraphModel%253E%253Croot%253E%253CmxCell%2520id%253D%25220%2522%252F%253E%253CmxCell%2520id%253D%25221%2522%2520parent%253D%25220%2522%252F%253E%253CmxCell%2520id%253D%25222%2522%2520value%253D%2522%2522%2520style%253D%2522whiteSpace%253Dwrap%253Bhtml%253D1%253Baspect%253Dfixed%253BlabelBackgroundColor%253Dnone%253BfillColor%253D%2523ffffff%253BgradientColor%253Dnone%253B%2522%2520vertex%253D%25221%2522%2520parent%253D%25221%2522%253E%253CmxGeometry%2520x%253D%252280%2522%2520y%253D%252270%2522%2520width%253D%2522190%2522%2520height%253D%2522190%2522%2520as%253D%2522geometry%2522%252F%253E%253C%252FmxCell%253E%253C%252Froot%253E%253C%252FmxGraphModel%253E%26lt%3B%2Fspan%26gt%3B%22%20style%3D%22text%3Bhtml%3D1%3Bresizable%3D0%3Bautosize%3D1%3Balign%3Dcenter%3BverticalAlign%3Dmiddle%3Bpoints%3D%5B%5D%3BfillColor%3Dnone%3BstrokeColor%3Dnone%3Brounded%3D0%3BlabelBackgroundColor%3Dnone%3B%22%20vertex%3D%221%22%20parent%3D%221%22%3E%3CmxGeometry%20x%3D%22-115%22%20y%3D%22510%22%20width%3D%2230%22%20height%3D%2220%22%20as%3D%22geometry%22%2F%3E%3C%2FmxCell%3E%3C%2Froot%3E%3C%2FmxGraphModel%3E&lt;/span&gt;" style="text;html=1;resizable=0;autosize=1;align=center;verticalAlign=middle;points=[];fillColor=none;strokeColor=none;rounded=0;labelBackgroundColor=none;" vertex="1" parent="hf_IYml40izhRpLlfhsK-1">
          <mxGeometry x="565" y="430" width="40" height="20" as="geometry" />
        </mxCell>
        <mxCell id="10fldKgWdQZELq4I8_SG-19" value="SN3&lt;span style=&quot;color: rgba(0 , 0 , 0 , 0) ; font-family: monospace ; font-size: 0px&quot;&gt;%3CmxGraphModel%3E%3Croot%3E%3CmxCell%20id%3D%220%22%2F%3E%3CmxCell%20id%3D%221%22%20parent%3D%220%22%2F%3E%3CmxCell%20id%3D%222%22%20value%3D%221A%26lt%3Bspan%20style%3D%26quot%3Bcolor%3A%20rgba(0%20%2C%200%20%2C%200%20%2C%200)%20%3B%20font-family%3A%20monospace%20%3B%20font-size%3A%200px%26quot%3B%26gt%3B%253CmxGraphModel%253E%253Croot%253E%253CmxCell%2520id%253D%25220%2522%252F%253E%253CmxCell%2520id%253D%25221%2522%2520parent%253D%25220%2522%252F%253E%253CmxCell%2520id%253D%25222%2522%2520value%253D%2522%2522%2520style%253D%2522whiteSpace%253Dwrap%253Bhtml%253D1%253Baspect%253Dfixed%253BlabelBackgroundColor%253Dnone%253BfillColor%253D%2523ffffff%253BgradientColor%253Dnone%253B%2522%2520vertex%253D%25221%2522%2520parent%253D%25221%2522%253E%253CmxGeometry%2520x%253D%252280%2522%2520y%253D%252270%2522%2520width%253D%2522190%2522%2520height%253D%2522190%2522%2520as%253D%2522geometry%2522%252F%253E%253C%252FmxCell%253E%253C%252Froot%253E%253C%252FmxGraphModel%253E%26lt%3B%2Fspan%26gt%3B%22%20style%3D%22text%3Bhtml%3D1%3Bresizable%3D0%3Bautosize%3D1%3Balign%3Dcenter%3BverticalAlign%3Dmiddle%3Bpoints%3D%5B%5D%3BfillColor%3Dnone%3BstrokeColor%3Dnone%3Brounded%3D0%3BlabelBackgroundColor%3Dnone%3B%22%20vertex%3D%221%22%20parent%3D%221%22%3E%3CmxGeometry%20x%3D%22-115%22%20y%3D%22510%22%20width%3D%2230%22%20height%3D%2220%22%20as%3D%22geometry%22%2F%3E%3C%2FmxCell%3E%3C%2Froot%3E%3C%2FmxGraphModel%3E&lt;/span&gt;" style="text;html=1;resizable=0;autosize=1;align=center;verticalAlign=middle;points=[];fillColor=none;strokeColor=none;rounded=0;labelBackgroundColor=none;" vertex="1" parent="hf_IYml40izhRpLlfhsK-1">
          <mxGeometry x="640" y="430" width="40" height="20" as="geometry" />
        </mxCell>
        <mxCell id="10fldKgWdQZELq4I8_SG-20" value="GN4&lt;span style=&quot;color: rgba(0 , 0 , 0 , 0) ; font-family: monospace ; font-size: 0px&quot;&gt;%3CmxGraphModel%3E%3Croot%3E%3CmxCell%20id%3D%220%22%2F%3E%3CmxCell%20id%3D%221%22%20parent%3D%220%22%2F%3E%3CmxCell%20id%3D%222%22%20value%3D%221A%26lt%3Bspan%20style%3D%26quot%3Bcolor%3A%20rgba(0%20%2C%200%20%2C%200%20%2C%200)%20%3B%20font-family%3A%20monospace%20%3B%20font-size%3A%200px%26quot%3B%26gt%3B%253CmxGraphModel%253E%253Croot%253E%253CmxCell%2520id%253D%25220%2522%252F%253E%253CmxCell%2520id%253D%25221%2522%2520parent%253D%25220%2522%252F%253E%253CmxCell%2520id%253D%25222%2522%2520value%253D%2522%2522%2520style%253D%2522whiteSpace%253Dwrap%253Bhtml%253D1%253Baspect%253Dfixed%253BlabelBackgroundColor%253Dnone%253BfillColor%253D%2523ffffff%253BgradientColor%253Dnone%253B%2522%2520vertex%253D%25221%2522%2520parent%253D%25221%2522%253E%253CmxGeometry%2520x%253D%252280%2522%2520y%253D%252270%2522%2520width%253D%2522190%2522%2520height%253D%2522190%2522%2520as%253D%2522geometry%2522%252F%253E%253C%252FmxCell%253E%253C%252Froot%253E%253C%252FmxGraphModel%253E%26lt%3B%2Fspan%26gt%3B%22%20style%3D%22text%3Bhtml%3D1%3Bresizable%3D0%3Bautosize%3D1%3Balign%3Dcenter%3BverticalAlign%3Dmiddle%3Bpoints%3D%5B%5D%3BfillColor%3Dnone%3BstrokeColor%3Dnone%3Brounded%3D0%3BlabelBackgroundColor%3Dnone%3B%22%20vertex%3D%221%22%20parent%3D%221%22%3E%3CmxGeometry%20x%3D%22-115%22%20y%3D%22510%22%20width%3D%2230%22%20height%3D%2220%22%20as%3D%22geometry%22%2F%3E%3C%2FmxCell%3E%3C%2Froot%3E%3C%2FmxGraphModel%3E&lt;/span&gt;" style="text;html=1;resizable=0;autosize=1;align=center;verticalAlign=middle;points=[];fillColor=none;strokeColor=none;rounded=0;labelBackgroundColor=none;" vertex="1" parent="hf_IYml40izhRpLlfhsK-1">
          <mxGeometry x="910" y="430" width="40" height="20" as="geometry" />
        </mxCell>
        <mxCell id="10fldKgWdQZELq4I8_SG-21" value="DN4&lt;span style=&quot;color: rgba(0 , 0 , 0 , 0) ; font-family: monospace ; font-size: 0px&quot;&gt;%3CmxGraphModel%3E%3Croot%3E%3CmxCell%20id%3D%220%22%2F%3E%3CmxCell%20id%3D%221%22%20parent%3D%220%22%2F%3E%3CmxCell%20id%3D%222%22%20value%3D%221A%26lt%3Bspan%20style%3D%26quot%3Bcolor%3A%20rgba(0%20%2C%200%20%2C%200%20%2C%200)%20%3B%20font-family%3A%20monospace%20%3B%20font-size%3A%200px%26quot%3B%26gt%3B%253CmxGraphModel%253E%253Croot%253E%253CmxCell%2520id%253D%25220%2522%252F%253E%253CmxCell%2520id%253D%25221%2522%2520parent%253D%25220%2522%252F%253E%253CmxCell%2520id%253D%25222%2522%2520value%253D%2522%2522%2520style%253D%2522whiteSpace%253Dwrap%253Bhtml%253D1%253Baspect%253Dfixed%253BlabelBackgroundColor%253Dnone%253BfillColor%253D%2523ffffff%253BgradientColor%253Dnone%253B%2522%2520vertex%253D%25221%2522%2520parent%253D%25221%2522%253E%253CmxGeometry%2520x%253D%252280%2522%2520y%253D%252270%2522%2520width%253D%2522190%2522%2520height%253D%2522190%2522%2520as%253D%2522geometry%2522%252F%253E%253C%252FmxCell%253E%253C%252Froot%253E%253C%252FmxGraphModel%253E%26lt%3B%2Fspan%26gt%3B%22%20style%3D%22text%3Bhtml%3D1%3Bresizable%3D0%3Bautosize%3D1%3Balign%3Dcenter%3BverticalAlign%3Dmiddle%3Bpoints%3D%5B%5D%3BfillColor%3Dnone%3BstrokeColor%3Dnone%3Brounded%3D0%3BlabelBackgroundColor%3Dnone%3B%22%20vertex%3D%221%22%20parent%3D%221%22%3E%3CmxGeometry%20x%3D%22-115%22%20y%3D%22510%22%20width%3D%2230%22%20height%3D%2220%22%20as%3D%22geometry%22%2F%3E%3C%2FmxCell%3E%3C%2Froot%3E%3C%2FmxGraphModel%3E&lt;/span&gt;" style="text;html=1;resizable=0;autosize=1;align=center;verticalAlign=middle;points=[];fillColor=none;strokeColor=none;rounded=0;labelBackgroundColor=none;" vertex="1" parent="hf_IYml40izhRpLlfhsK-1">
          <mxGeometry x="985" y="430" width="40" height="20" as="geometry" />
        </mxCell>
        <mxCell id="10fldKgWdQZELq4I8_SG-22" value="SN4&lt;span style=&quot;color: rgba(0 , 0 , 0 , 0) ; font-family: monospace ; font-size: 0px&quot;&gt;%3CmxGraphModel%3E%3Croot%3E%3CmxCell%20id%3D%220%22%2F%3E%3CmxCell%20id%3D%221%22%20parent%3D%220%22%2F%3E%3CmxCell%20id%3D%222%22%20value%3D%221A%26lt%3Bspan%20style%3D%26quot%3Bcolor%3A%20rgba(0%20%2C%200%20%2C%200%20%2C%200)%20%3B%20font-family%3A%20monospace%20%3B%20font-size%3A%200px%26quot%3B%26gt%3B%253CmxGraphModel%253E%253Croot%253E%253CmxCell%2520id%253D%25220%2522%252F%253E%253CmxCell%2520id%253D%25221%2522%2520parent%253D%25220%2522%252F%253E%253CmxCell%2520id%253D%25222%2522%2520value%253D%2522%2522%2520style%253D%2522whiteSpace%253Dwrap%253Bhtml%253D1%253Baspect%253Dfixed%253BlabelBackgroundColor%253Dnone%253BfillColor%253D%2523ffffff%253BgradientColor%253Dnone%253B%2522%2520vertex%253D%25221%2522%2520parent%253D%25221%2522%253E%253CmxGeometry%2520x%253D%252280%2522%2520y%253D%252270%2522%2520width%253D%2522190%2522%2520height%253D%2522190%2522%2520as%253D%2522geometry%2522%252F%253E%253C%252FmxCell%253E%253C%252Froot%253E%253C%252FmxGraphModel%253E%26lt%3B%2Fspan%26gt%3B%22%20style%3D%22text%3Bhtml%3D1%3Bresizable%3D0%3Bautosize%3D1%3Balign%3Dcenter%3BverticalAlign%3Dmiddle%3Bpoints%3D%5B%5D%3BfillColor%3Dnone%3BstrokeColor%3Dnone%3Brounded%3D0%3BlabelBackgroundColor%3Dnone%3B%22%20vertex%3D%221%22%20parent%3D%221%22%3E%3CmxGeometry%20x%3D%22-115%22%20y%3D%22510%22%20width%3D%2230%22%20height%3D%2220%22%20as%3D%22geometry%22%2F%3E%3C%2FmxCell%3E%3C%2Froot%3E%3C%2FmxGraphModel%3E&lt;/span&gt;" style="text;html=1;resizable=0;autosize=1;align=center;verticalAlign=middle;points=[];fillColor=none;strokeColor=none;rounded=0;labelBackgroundColor=none;" vertex="1" parent="hf_IYml40izhRpLlfhsK-1">
          <mxGeometry x="1060" y="430" width="40" height="20" as="geometry" />
        </mxCell>
        <mxCell id="10fldKgWdQZELq4I8_SG-23" value="GP2&lt;span style=&quot;color: rgba(0 , 0 , 0 , 0) ; font-family: monospace ; font-size: 0px&quot;&gt;%3CmxGraphModel%3E%3Croot%3E%3CmxCell%20id%3D%220%22%2F%3E%3CmxCell%20id%3D%221%22%20parent%3D%220%22%2F%3E%3CmxCell%20id%3D%222%22%20value%3D%221A%26lt%3Bspan%20style%3D%26quot%3Bcolor%3A%20rgba(0%20%2C%200%20%2C%200%20%2C%200)%20%3B%20font-family%3A%20monospace%20%3B%20font-size%3A%200px%26quot%3B%26gt%3B%253CmxGraphModel%253E%253Croot%253E%253CmxCell%2520id%253D%25220%2522%252F%253E%253CmxCell%2520id%253D%25221%2522%2520parent%253D%25220%2522%252F%253E%253CmxCell%2520id%253D%25222%2522%2520value%253D%2522%2522%2520style%253D%2522whiteSpace%253Dwrap%253Bhtml%253D1%253Baspect%253Dfixed%253BlabelBackgroundColor%253Dnone%253BfillColor%253D%2523ffffff%253BgradientColor%253Dnone%253B%2522%2520vertex%253D%25221%2522%2520parent%253D%25221%2522%253E%253CmxGeometry%2520x%253D%252280%2522%2520y%253D%252270%2522%2520width%253D%2522190%2522%2520height%253D%2522190%2522%2520as%253D%2522geometry%2522%252F%253E%253C%252FmxCell%253E%253C%252Froot%253E%253C%252FmxGraphModel%253E%26lt%3B%2Fspan%26gt%3B%22%20style%3D%22text%3Bhtml%3D1%3Bresizable%3D0%3Bautosize%3D1%3Balign%3Dcenter%3BverticalAlign%3Dmiddle%3Bpoints%3D%5B%5D%3BfillColor%3Dnone%3BstrokeColor%3Dnone%3Brounded%3D0%3BlabelBackgroundColor%3Dnone%3B%22%20vertex%3D%221%22%20parent%3D%221%22%3E%3CmxGeometry%20x%3D%22-115%22%20y%3D%22510%22%20width%3D%2230%22%20height%3D%2220%22%20as%3D%22geometry%22%2F%3E%3C%2FmxCell%3E%3C%2Froot%3E%3C%2FmxGraphModel%3E&lt;/span&gt;" style="text;html=1;resizable=0;autosize=1;align=center;verticalAlign=middle;points=[];fillColor=none;strokeColor=none;rounded=0;labelBackgroundColor=none;" vertex="1" parent="hf_IYml40izhRpLlfhsK-1">
          <mxGeometry x="210" y="790" width="40" height="20" as="geometry" />
        </mxCell>
        <mxCell id="10fldKgWdQZELq4I8_SG-24" value="DP2&lt;span style=&quot;color: rgba(0 , 0 , 0 , 0) ; font-family: monospace ; font-size: 0px&quot;&gt;%3CmxGraphModel%3E%3Croot%3E%3CmxCell%20id%3D%220%22%2F%3E%3CmxCell%20id%3D%221%22%20parent%3D%220%22%2F%3E%3CmxCell%20id%3D%222%22%20value%3D%221A%26lt%3Bspan%20style%3D%26quot%3Bcolor%3A%20rgba(0%20%2C%200%20%2C%200%20%2C%200)%20%3B%20font-family%3A%20monospace%20%3B%20font-size%3A%200px%26quot%3B%26gt%3B%253CmxGraphModel%253E%253Croot%253E%253CmxCell%2520id%253D%25220%2522%252F%253E%253CmxCell%2520id%253D%25221%2522%2520parent%253D%25220%2522%252F%253E%253CmxCell%2520id%253D%25222%2522%2520value%253D%2522%2522%2520style%253D%2522whiteSpace%253Dwrap%253Bhtml%253D1%253Baspect%253Dfixed%253BlabelBackgroundColor%253Dnone%253BfillColor%253D%2523ffffff%253BgradientColor%253Dnone%253B%2522%2520vertex%253D%25221%2522%2520parent%253D%25221%2522%253E%253CmxGeometry%2520x%253D%252280%2522%2520y%253D%252270%2522%2520width%253D%2522190%2522%2520height%253D%2522190%2522%2520as%253D%2522geometry%2522%252F%253E%253C%252FmxCell%253E%253C%252Froot%253E%253C%252FmxGraphModel%253E%26lt%3B%2Fspan%26gt%3B%22%20style%3D%22text%3Bhtml%3D1%3Bresizable%3D0%3Bautosize%3D1%3Balign%3Dcenter%3BverticalAlign%3Dmiddle%3Bpoints%3D%5B%5D%3BfillColor%3Dnone%3BstrokeColor%3Dnone%3Brounded%3D0%3BlabelBackgroundColor%3Dnone%3B%22%20vertex%3D%221%22%20parent%3D%221%22%3E%3CmxGeometry%20x%3D%22-115%22%20y%3D%22510%22%20width%3D%2230%22%20height%3D%2220%22%20as%3D%22geometry%22%2F%3E%3C%2FmxCell%3E%3C%2Froot%3E%3C%2FmxGraphModel%3E&lt;/span&gt;" style="text;html=1;resizable=0;autosize=1;align=center;verticalAlign=middle;points=[];fillColor=none;strokeColor=none;rounded=0;labelBackgroundColor=none;" vertex="1" parent="hf_IYml40izhRpLlfhsK-1">
          <mxGeometry x="285" y="790" width="40" height="20" as="geometry" />
        </mxCell>
        <mxCell id="10fldKgWdQZELq4I8_SG-25" value="SP2&lt;span style=&quot;color: rgba(0 , 0 , 0 , 0) ; font-family: monospace ; font-size: 0px&quot;&gt;%3CmxGraphModel%3E%3Croot%3E%3CmxCell%20id%3D%220%22%2F%3E%3CmxCell%20id%3D%221%22%20parent%3D%220%22%2F%3E%3CmxCell%20id%3D%222%22%20value%3D%221A%26lt%3Bspan%20style%3D%26quot%3Bcolor%3A%20rgba(0%20%2C%200%20%2C%200%20%2C%200)%20%3B%20font-family%3A%20monospace%20%3B%20font-size%3A%200px%26quot%3B%26gt%3B%253CmxGraphModel%253E%253Croot%253E%253CmxCell%2520id%253D%25220%2522%252F%253E%253CmxCell%2520id%253D%25221%2522%2520parent%253D%25220%2522%252F%253E%253CmxCell%2520id%253D%25222%2522%2520value%253D%2522%2522%2520style%253D%2522whiteSpace%253Dwrap%253Bhtml%253D1%253Baspect%253Dfixed%253BlabelBackgroundColor%253Dnone%253BfillColor%253D%2523ffffff%253BgradientColor%253Dnone%253B%2522%2520vertex%253D%25221%2522%2520parent%253D%25221%2522%253E%253CmxGeometry%2520x%253D%252280%2522%2520y%253D%252270%2522%2520width%253D%2522190%2522%2520height%253D%2522190%2522%2520as%253D%2522geometry%2522%252F%253E%253C%252FmxCell%253E%253C%252Froot%253E%253C%252FmxGraphModel%253E%26lt%3B%2Fspan%26gt%3B%22%20style%3D%22text%3Bhtml%3D1%3Bresizable%3D0%3Bautosize%3D1%3Balign%3Dcenter%3BverticalAlign%3Dmiddle%3Bpoints%3D%5B%5D%3BfillColor%3Dnone%3BstrokeColor%3Dnone%3Brounded%3D0%3BlabelBackgroundColor%3Dnone%3B%22%20vertex%3D%221%22%20parent%3D%221%22%3E%3CmxGeometry%20x%3D%22-115%22%20y%3D%22510%22%20width%3D%2230%22%20height%3D%2220%22%20as%3D%22geometry%22%2F%3E%3C%2FmxCell%3E%3C%2Froot%3E%3C%2FmxGraphModel%3E&lt;/span&gt;" style="text;html=1;resizable=0;autosize=1;align=center;verticalAlign=middle;points=[];fillColor=none;strokeColor=none;rounded=0;labelBackgroundColor=none;" vertex="1" parent="hf_IYml40izhRpLlfhsK-1">
          <mxGeometry x="360" y="790" width="40" height="20" as="geometry" />
        </mxCell>
        <mxCell id="10fldKgWdQZELq4I8_SG-26" value="GP3&lt;span style=&quot;color: rgba(0 , 0 , 0 , 0) ; font-family: monospace ; font-size: 0px&quot;&gt;%3CmxGraphModel%3E%3Croot%3E%3CmxCell%20id%3D%220%22%2F%3E%3CmxCell%20id%3D%221%22%20parent%3D%220%22%2F%3E%3CmxCell%20id%3D%222%22%20value%3D%221A%26lt%3Bspan%20style%3D%26quot%3Bcolor%3A%20rgba(0%20%2C%200%20%2C%200%20%2C%200)%20%3B%20font-family%3A%20monospace%20%3B%20font-size%3A%200px%26quot%3B%26gt%3B%253CmxGraphModel%253E%253Croot%253E%253CmxCell%2520id%253D%25220%2522%252F%253E%253CmxCell%2520id%253D%25221%2522%2520parent%253D%25220%2522%252F%253E%253CmxCell%2520id%253D%25222%2522%2520value%253D%2522%2522%2520style%253D%2522whiteSpace%253Dwrap%253Bhtml%253D1%253Baspect%253Dfixed%253BlabelBackgroundColor%253Dnone%253BfillColor%253D%2523ffffff%253BgradientColor%253Dnone%253B%2522%2520vertex%253D%25221%2522%2520parent%253D%25221%2522%253E%253CmxGeometry%2520x%253D%252280%2522%2520y%253D%252270%2522%2520width%253D%2522190%2522%2520height%253D%2522190%2522%2520as%253D%2522geometry%2522%252F%253E%253C%252FmxCell%253E%253C%252Froot%253E%253C%252FmxGraphModel%253E%26lt%3B%2Fspan%26gt%3B%22%20style%3D%22text%3Bhtml%3D1%3Bresizable%3D0%3Bautosize%3D1%3Balign%3Dcenter%3BverticalAlign%3Dmiddle%3Bpoints%3D%5B%5D%3BfillColor%3Dnone%3BstrokeColor%3Dnone%3Brounded%3D0%3BlabelBackgroundColor%3Dnone%3B%22%20vertex%3D%221%22%20parent%3D%221%22%3E%3CmxGeometry%20x%3D%22-115%22%20y%3D%22510%22%20width%3D%2230%22%20height%3D%2220%22%20as%3D%22geometry%22%2F%3E%3C%2FmxCell%3E%3C%2Froot%3E%3C%2FmxGraphModel%3E&lt;/span&gt;" style="text;html=1;resizable=0;autosize=1;align=center;verticalAlign=middle;points=[];fillColor=none;strokeColor=none;rounded=0;labelBackgroundColor=none;" vertex="1" parent="hf_IYml40izhRpLlfhsK-1">
          <mxGeometry x="650" y="790" width="40" height="20" as="geometry" />
        </mxCell>
        <mxCell id="10fldKgWdQZELq4I8_SG-28" value="DP3" style="text;html=1;resizable=0;autosize=1;align=center;verticalAlign=middle;points=[];fillColor=none;strokeColor=none;rounded=0;labelBackgroundColor=none;" vertex="1" parent="hf_IYml40izhRpLlfhsK-1">
          <mxGeometry x="725" y="790" width="40" height="20" as="geometry" />
        </mxCell>
        <mxCell id="10fldKgWdQZELq4I8_SG-29" value="SP3&lt;span style=&quot;color: rgba(0 , 0 , 0 , 0) ; font-family: monospace ; font-size: 0px&quot;&gt;%3CmxGraphModel%3E%3Croot%3E%3CmxCell%20id%3D%220%22%2F%3E%3CmxCell%20id%3D%221%22%20parent%3D%220%22%2F%3E%3CmxCell%20id%3D%222%22%20value%3D%221A%26lt%3Bspan%20style%3D%26quot%3Bcolor%3A%20rgba(0%20%2C%200%20%2C%200%20%2C%200)%20%3B%20font-family%3A%20monospace%20%3B%20font-size%3A%200px%26quot%3B%26gt%3B%253CmxGraphModel%253E%253Croot%253E%253CmxCell%2520id%253D%25220%2522%252F%253E%253CmxCell%2520id%253D%25221%2522%2520parent%253D%25220%2522%252F%253E%253CmxCell%2520id%253D%25222%2522%2520value%253D%2522%2522%2520style%253D%2522whiteSpace%253Dwrap%253Bhtml%253D1%253Baspect%253Dfixed%253BlabelBackgroundColor%253Dnone%253BfillColor%253D%2523ffffff%253BgradientColor%253Dnone%253B%2522%2520vertex%253D%25221%2522%2520parent%253D%25221%2522%253E%253CmxGeometry%2520x%253D%252280%2522%2520y%253D%252270%2522%2520width%253D%2522190%2522%2520height%253D%2522190%2522%2520as%253D%2522geometry%2522%252F%253E%253C%252FmxCell%253E%253C%252Froot%253E%253C%252FmxGraphModel%253E%26lt%3B%2Fspan%26gt%3B%22%20style%3D%22text%3Bhtml%3D1%3Bresizable%3D0%3Bautosize%3D1%3Balign%3Dcenter%3BverticalAlign%3Dmiddle%3Bpoints%3D%5B%5D%3BfillColor%3Dnone%3BstrokeColor%3Dnone%3Brounded%3D0%3BlabelBackgroundColor%3Dnone%3B%22%20vertex%3D%221%22%20parent%3D%221%22%3E%3CmxGeometry%20x%3D%22-115%22%20y%3D%22510%22%20width%3D%2230%22%20height%3D%2220%22%20as%3D%22geometry%22%2F%3E%3C%2FmxCell%3E%3C%2Froot%3E%3C%2FmxGraphModel%3E&lt;/span&gt;" style="text;html=1;resizable=0;autosize=1;align=center;verticalAlign=middle;points=[];fillColor=none;strokeColor=none;rounded=0;labelBackgroundColor=none;" vertex="1" parent="hf_IYml40izhRpLlfhsK-1">
          <mxGeometry x="800" y="790" width="40" height="20" as="geometry" />
        </mxCell>
        <mxCell id="10fldKgWdQZELq4I8_SG-30" value="GP4&lt;span style=&quot;color: rgba(0 , 0 , 0 , 0) ; font-family: monospace ; font-size: 0px&quot;&gt;%3CmxGraphModel%3E%3Croot%3E%3CmxCell%20id%3D%220%22%2F%3E%3CmxCell%20id%3D%221%22%20parent%3D%220%22%2F%3E%3CmxCell%20id%3D%222%22%20value%3D%221A%26lt%3Bspan%20style%3D%26quot%3Bcolor%3A%20rgba(0%20%2C%200%20%2C%200%20%2C%200)%20%3B%20font-family%3A%20monospace%20%3B%20font-size%3A%200px%26quot%3B%26gt%3B%253CmxGraphModel%253E%253Croot%253E%253CmxCell%2520id%253D%25220%2522%252F%253E%253CmxCell%2520id%253D%25221%2522%2520parent%253D%25220%2522%252F%253E%253CmxCell%2520id%253D%25222%2522%2520value%253D%2522%2522%2520style%253D%2522whiteSpace%253Dwrap%253Bhtml%253D1%253Baspect%253Dfixed%253BlabelBackgroundColor%253Dnone%253BfillColor%253D%2523ffffff%253BgradientColor%253Dnone%253B%2522%2520vertex%253D%25221%2522%2520parent%253D%25221%2522%253E%253CmxGeometry%2520x%253D%252280%2522%2520y%253D%252270%2522%2520width%253D%2522190%2522%2520height%253D%2522190%2522%2520as%253D%2522geometry%2522%252F%253E%253C%252FmxCell%253E%253C%252Froot%253E%253C%252FmxGraphModel%253E%26lt%3B%2Fspan%26gt%3B%22%20style%3D%22text%3Bhtml%3D1%3Bresizable%3D0%3Bautosize%3D1%3Balign%3Dcenter%3BverticalAlign%3Dmiddle%3Bpoints%3D%5B%5D%3BfillColor%3Dnone%3BstrokeColor%3Dnone%3Brounded%3D0%3BlabelBackgroundColor%3Dnone%3B%22%20vertex%3D%221%22%20parent%3D%221%22%3E%3CmxGeometry%20x%3D%22-115%22%20y%3D%22510%22%20width%3D%2230%22%20height%3D%2220%22%20as%3D%22geometry%22%2F%3E%3C%2FmxCell%3E%3C%2Froot%3E%3C%2FmxGraphModel%3E&lt;/span&gt;" style="text;html=1;resizable=0;autosize=1;align=center;verticalAlign=middle;points=[];fillColor=none;strokeColor=none;rounded=0;labelBackgroundColor=none;" vertex="1" parent="hf_IYml40izhRpLlfhsK-1">
          <mxGeometry x="1055" y="790" width="40" height="20" as="geometry" />
        </mxCell>
        <mxCell id="10fldKgWdQZELq4I8_SG-31" value="DP4" style="text;html=1;resizable=0;autosize=1;align=center;verticalAlign=middle;points=[];fillColor=none;strokeColor=none;rounded=0;labelBackgroundColor=none;" vertex="1" parent="hf_IYml40izhRpLlfhsK-1">
          <mxGeometry x="1130" y="790" width="40" height="20" as="geometry" />
        </mxCell>
        <mxCell id="10fldKgWdQZELq4I8_SG-32" value="SP4" style="text;html=1;resizable=0;autosize=1;align=center;verticalAlign=middle;points=[];fillColor=none;strokeColor=none;rounded=0;labelBackgroundColor=none;" vertex="1" parent="hf_IYml40izhRpLlfhsK-1">
          <mxGeometry x="1205" y="790" width="40" height="20" as="geometry" />
        </mxCell>
        <mxCell id="10fldKgWdQZELq4I8_SG-41" value="&lt;font style=&quot;font-size: 33px&quot;&gt;-&lt;/font&gt;" style="rounded=0;whiteSpace=wrap;html=1;labelBackgroundColor=none;fillColor=#647687;strokeColor=#314354;fontColor=#ffffff;" vertex="1" parent="hf_IYml40izhRpLlfhsK-1">
          <mxGeometry x="-170" y="110" width="1340" height="60" as="geometry" />
        </mxCell>
        <mxCell id="10fldKgWdQZELq4I8_SG-46" value="&lt;font style=&quot;font-size: 33px&quot;&gt;+&lt;/font&gt;" style="rounded=0;whiteSpace=wrap;html=1;labelBackgroundColor=none;fillColor=#e51400;strokeColor=#B20000;fontColor=#ffffff;" vertex="1" parent="hf_IYml40izhRpLlfhsK-1">
          <mxGeometry x="-160" y="1050" width="1340" height="60" as="geometry" />
        </mxCell>
        <mxCell id="D_Wm-GMoHNm2_G2T1SPJ-18" style="edgeStyle=orthogonalEdgeStyle;rounded=1;orthogonalLoop=1;jettySize=auto;html=1;exitX=0.75;exitY=1;exitDx=0;exitDy=0;entryX=0.25;entryY=0;entryDx=0;entryDy=0;endArrow=none;endFill=0;fillColor=#e51400;strokeColor=#B20000;" edge="1" parent="hf_IYml40izhRpLlfhsK-1" source="D_Wm-GMoHNm2_G2T1SPJ-0" target="10fldKgWdQZELq4I8_SG-46">
          <mxGeometry relative="1" as="geometry" />
        </mxCell>
        <mxCell id="D_Wm-GMoHNm2_G2T1SPJ-0" value="" style="shape=image;html=1;verticalAlign=top;verticalLabelPosition=bottom;labelBackgroundColor=#ffffff;imageAspect=0;aspect=fixed;image=https://cdn2.iconfinder.com/data/icons/electronic-13/480/6-electronic-led-icon-2-128.png;fillColor=#ffffff;gradientColor=none;imageBackground=#9933FF;" vertex="1" parent="hf_IYml40izhRpLlfhsK-1">
          <mxGeometry x="-70" y="280" width="130" height="130" as="geometry" />
        </mxCell>
        <mxCell id="D_Wm-GMoHNm2_G2T1SPJ-2" style="edgeStyle=orthogonalEdgeStyle;rounded=1;orthogonalLoop=1;jettySize=auto;html=1;exitX=0.5;exitY=1;exitDx=0;exitDy=0;entryX=0;entryY=0.5;entryDx=0;entryDy=0;endArrow=none;endFill=0;fillColor=#e51400;strokeColor=#B20000;" edge="1" parent="hf_IYml40izhRpLlfhsK-1" source="D_Wm-GMoHNm2_G2T1SPJ-1" target="10fldKgWdQZELq4I8_SG-46">
          <mxGeometry relative="1" as="geometry" />
        </mxCell>
        <mxCell id="D_Wm-GMoHNm2_G2T1SPJ-3" style="edgeStyle=orthogonalEdgeStyle;rounded=1;orthogonalLoop=1;jettySize=auto;html=1;exitX=0.5;exitY=0;exitDx=0;exitDy=0;entryX=0;entryY=0.5;entryDx=0;entryDy=0;endArrow=none;endFill=0;fillColor=#647687;strokeColor=#314354;" edge="1" parent="hf_IYml40izhRpLlfhsK-1" source="D_Wm-GMoHNm2_G2T1SPJ-1" target="10fldKgWdQZELq4I8_SG-41">
          <mxGeometry relative="1" as="geometry" />
        </mxCell>
        <mxCell id="D_Wm-GMoHNm2_G2T1SPJ-1" value="Power&amp;nbsp;&lt;br&gt;Supply" style="whiteSpace=wrap;html=1;aspect=fixed;labelBackgroundColor=none;fillColor=#ffcd28;strokeColor=#d79b00;gradientColor=#ffa500;" vertex="1" parent="hf_IYml40izhRpLlfhsK-1">
          <mxGeometry x="-590" y="470" width="160" height="160" as="geometry" />
        </mxCell>
        <mxCell id="D_Wm-GMoHNm2_G2T1SPJ-7" style="edgeStyle=orthogonalEdgeStyle;rounded=1;orthogonalLoop=1;jettySize=auto;html=1;exitX=0;exitY=0.5;exitDx=0;exitDy=0;exitPerimeter=0;entryX=0;entryY=0.75;entryDx=0;entryDy=0;endArrow=none;endFill=0;fillColor=#b0e3e6;strokeColor=#0e8088;" edge="1" parent="hf_IYml40izhRpLlfhsK-1" source="D_Wm-GMoHNm2_G2T1SPJ-4" target="10fldKgWdQZELq4I8_SG-41">
          <mxGeometry relative="1" as="geometry" />
        </mxCell>
        <mxCell id="D_Wm-GMoHNm2_G2T1SPJ-4" value="" style="pointerEvents=1;verticalLabelPosition=bottom;shadow=0;dashed=0;align=center;html=1;verticalAlign=top;shape=mxgraph.electrical.resistors.resistor_1;labelBackgroundColor=none;fillColor=#fad7ac;strokeColor=#b46504;" vertex="1" parent="hf_IYml40izhRpLlfhsK-1">
          <mxGeometry x="-330" y="510" width="100" height="20" as="geometry" />
        </mxCell>
        <mxCell id="D_Wm-GMoHNm2_G2T1SPJ-8" style="edgeStyle=orthogonalEdgeStyle;rounded=1;orthogonalLoop=1;jettySize=auto;html=1;exitX=0;exitY=0.5;exitDx=0;exitDy=0;exitPerimeter=0;entryX=0;entryY=0.25;entryDx=0;entryDy=0;endArrow=none;endFill=0;fillColor=#b0e3e6;strokeColor=#0e8088;" edge="1" parent="hf_IYml40izhRpLlfhsK-1" source="D_Wm-GMoHNm2_G2T1SPJ-5" target="10fldKgWdQZELq4I8_SG-41">
          <mxGeometry relative="1" as="geometry" />
        </mxCell>
        <mxCell id="D_Wm-GMoHNm2_G2T1SPJ-5" value="" style="pointerEvents=1;verticalLabelPosition=bottom;shadow=0;dashed=0;align=center;html=1;verticalAlign=top;shape=mxgraph.electrical.resistors.resistor_1;labelBackgroundColor=none;fillColor=#fad7ac;strokeColor=#b46504;" vertex="1" parent="hf_IYml40izhRpLlfhsK-1">
          <mxGeometry x="-330" y="545" width="100" height="20" as="geometry" />
        </mxCell>
        <mxCell id="D_Wm-GMoHNm2_G2T1SPJ-9" style="edgeStyle=orthogonalEdgeStyle;rounded=1;orthogonalLoop=1;jettySize=auto;html=1;exitX=0;exitY=0.5;exitDx=0;exitDy=0;exitPerimeter=0;entryX=0;entryY=0;entryDx=0;entryDy=0;endArrow=none;endFill=0;fillColor=#b0e3e6;strokeColor=#0e8088;" edge="1" parent="hf_IYml40izhRpLlfhsK-1" source="D_Wm-GMoHNm2_G2T1SPJ-6" target="10fldKgWdQZELq4I8_SG-41">
          <mxGeometry relative="1" as="geometry" />
        </mxCell>
        <mxCell id="D_Wm-GMoHNm2_G2T1SPJ-6" value="" style="pointerEvents=1;verticalLabelPosition=bottom;shadow=0;dashed=0;align=center;html=1;verticalAlign=top;shape=mxgraph.electrical.resistors.resistor_1;labelBackgroundColor=none;fillColor=#fad7ac;strokeColor=#b46504;" vertex="1" parent="hf_IYml40izhRpLlfhsK-1">
          <mxGeometry x="-330" y="580" width="100" height="20" as="geometry" />
        </mxCell>
        <mxCell id="D_Wm-GMoHNm2_G2T1SPJ-16" value="" style="pointerEvents=1;verticalLabelPosition=bottom;shadow=0;dashed=0;align=center;html=1;verticalAlign=top;shape=mxgraph.electrical.resistors.resistor_1;labelBackgroundColor=none;fillColor=#fad7ac;rotation=90;strokeColor=#b46504;" vertex="1" parent="hf_IYml40izhRpLlfhsK-1">
          <mxGeometry x="-80" y="450" width="100" height="20" as="geometry" />
        </mxCell>
      </root>
    </mxGraphModel>
  </diagram>
  <diagram id="3Pvzmn03Ksegju07Wwr8" name="Page-4">
    <mxGraphModel dx="2738" dy="1588" grid="1" gridSize="10" guides="1" tooltips="1" connect="1" arrows="1" fold="1" page="1" pageScale="1" pageWidth="850" pageHeight="1100" math="0" shadow="0">
      <root>
        <mxCell id="J4WyRTijxJQLKeOuPQXG-0" />
        <mxCell id="J4WyRTijxJQLKeOuPQXG-1" parent="J4WyRTijxJQLKeOuPQXG-0" />
        <mxCell id="Usw_jpKvD3mnjLfNYBB7-0" style="edgeStyle=orthogonalEdgeStyle;rounded=0;orthogonalLoop=1;jettySize=auto;html=1;exitX=1;exitY=0.25;exitDx=0;exitDy=0;endArrow=none;endFill=0;fillColor=#e51400;strokeColor=#B20000;" edge="1" parent="J4WyRTijxJQLKeOuPQXG-1" source="Usw_jpKvD3mnjLfNYBB7-2">
          <mxGeometry relative="1" as="geometry">
            <mxPoint x="1490" y="480" as="targetPoint" />
            <Array as="points">
              <mxPoint x="870" y="433" />
              <mxPoint x="870" y="680" />
              <mxPoint x="1530" y="680" />
              <mxPoint x="1530" y="480" />
            </Array>
          </mxGeometry>
        </mxCell>
        <mxCell id="Usw_jpKvD3mnjLfNYBB7-1" style="edgeStyle=none;rounded=0;orthogonalLoop=1;jettySize=auto;html=1;exitX=0.75;exitY=0;exitDx=0;exitDy=0;entryX=0.192;entryY=0.967;entryDx=0;entryDy=0;entryPerimeter=0;endArrow=none;endFill=0;" edge="1" parent="J4WyRTijxJQLKeOuPQXG-1" source="Usw_jpKvD3mnjLfNYBB7-2" target="Usw_jpKvD3mnjLfNYBB7-14">
          <mxGeometry relative="1" as="geometry" />
        </mxCell>
        <mxCell id="VCUcHQJIPQ6F4fd3T0YX-3" style="edgeStyle=orthogonalEdgeStyle;rounded=1;orthogonalLoop=1;jettySize=auto;html=1;exitX=1;exitY=1;exitDx=0;exitDy=0;endArrow=none;endFill=0;fillColor=#e3c800;strokeColor=#B09500;" edge="1" parent="J4WyRTijxJQLKeOuPQXG-1" source="Usw_jpKvD3mnjLfNYBB7-2">
          <mxGeometry relative="1" as="geometry">
            <mxPoint x="1480" y="480" as="targetPoint" />
            <Array as="points">
              <mxPoint x="250" y="498" />
              <mxPoint x="280" y="498" />
              <mxPoint x="280" y="460" />
              <mxPoint x="870" y="460" />
              <mxPoint x="870" y="620" />
              <mxPoint x="1490" y="620" />
              <mxPoint x="1490" y="480" />
            </Array>
          </mxGeometry>
        </mxCell>
        <mxCell id="VCUcHQJIPQ6F4fd3T0YX-4" style="edgeStyle=orthogonalEdgeStyle;rounded=1;orthogonalLoop=1;jettySize=auto;html=1;exitX=1;exitY=1;exitDx=0;exitDy=0;entryX=0;entryY=0.5;entryDx=0;entryDy=0;entryPerimeter=0;endArrow=none;endFill=0;fillColor=#b1ddf0;strokeColor=#10739e;" edge="1" parent="J4WyRTijxJQLKeOuPQXG-1" source="Usw_jpKvD3mnjLfNYBB7-2" target="Usw_jpKvD3mnjLfNYBB7-20">
          <mxGeometry relative="1" as="geometry">
            <Array as="points">
              <mxPoint x="280" y="530" />
              <mxPoint x="280" y="610" />
              <mxPoint x="390" y="610" />
            </Array>
          </mxGeometry>
        </mxCell>
        <mxCell id="VCUcHQJIPQ6F4fd3T0YX-5" style="edgeStyle=orthogonalEdgeStyle;rounded=1;orthogonalLoop=1;jettySize=auto;html=1;endArrow=none;endFill=0;fillColor=#fad7ac;strokeColor=#b46504;" edge="1" parent="J4WyRTijxJQLKeOuPQXG-1">
          <mxGeometry relative="1" as="geometry">
            <mxPoint x="370" y="670" as="targetPoint" />
            <mxPoint x="254" y="470" as="sourcePoint" />
            <Array as="points">
              <mxPoint x="254" y="520" />
              <mxPoint x="330" y="520" />
              <mxPoint x="330" y="670" />
            </Array>
          </mxGeometry>
        </mxCell>
        <mxCell id="VCUcHQJIPQ6F4fd3T0YX-6" style="edgeStyle=orthogonalEdgeStyle;rounded=1;orthogonalLoop=1;jettySize=auto;html=1;endArrow=none;endFill=0;exitX=1;exitY=0.45;exitDx=0;exitDy=0;exitPerimeter=0;fillColor=#6d8764;strokeColor=#3A5431;" edge="1" parent="J4WyRTijxJQLKeOuPQXG-1" source="Usw_jpKvD3mnjLfNYBB7-4">
          <mxGeometry relative="1" as="geometry">
            <mxPoint x="370" y="670" as="targetPoint" />
            <Array as="points">
              <mxPoint x="290" y="435" />
              <mxPoint x="290" y="280" />
              <mxPoint x="330" y="280" />
              <mxPoint x="330" y="610" />
              <mxPoint x="370" y="610" />
            </Array>
          </mxGeometry>
        </mxCell>
        <mxCell id="Usw_jpKvD3mnjLfNYBB7-2" value="switch" style="whiteSpace=wrap;html=1;aspect=fixed;fillColor=#dae8fc;strokeColor=#6c8ebf;" vertex="1" parent="J4WyRTijxJQLKeOuPQXG-1">
          <mxGeometry x="120" y="400" width="130" height="130" as="geometry" />
        </mxCell>
        <mxCell id="Usw_jpKvD3mnjLfNYBB7-4" value="1A" style="text;html=1;resizable=0;autosize=1;align=center;verticalAlign=middle;points=[];fillColor=none;strokeColor=none;rounded=0;" vertex="1" parent="J4WyRTijxJQLKeOuPQXG-1">
          <mxGeometry x="220" y="425" width="30" height="20" as="geometry" />
        </mxCell>
        <mxCell id="Usw_jpKvD3mnjLfNYBB7-5" value="PMOS" style="whiteSpace=wrap;html=1;aspect=fixed;fillColor=#d5e8d4;strokeColor=#82b366;" vertex="1" parent="J4WyRTijxJQLKeOuPQXG-1">
          <mxGeometry x="420" y="230" width="140" height="140" as="geometry" />
        </mxCell>
        <mxCell id="Usw_jpKvD3mnjLfNYBB7-6" value="GP1" style="text;html=1;resizable=0;autosize=1;align=center;verticalAlign=middle;points=[];fillColor=none;strokeColor=none;rounded=0;" vertex="1" parent="J4WyRTijxJQLKeOuPQXG-1">
          <mxGeometry x="420" y="270" width="40" height="20" as="geometry" />
        </mxCell>
        <mxCell id="Usw_jpKvD3mnjLfNYBB7-7" value="NMOS" style="whiteSpace=wrap;html=1;aspect=fixed;fillColor=#fff2cc;strokeColor=#d6b656;" vertex="1" parent="J4WyRTijxJQLKeOuPQXG-1">
          <mxGeometry x="630" y="250" width="140" height="140" as="geometry" />
        </mxCell>
        <mxCell id="Usw_jpKvD3mnjLfNYBB7-8" value="GN1" style="text;html=1;resizable=0;autosize=1;align=center;verticalAlign=middle;points=[];fillColor=none;strokeColor=none;rounded=0;" vertex="1" parent="J4WyRTijxJQLKeOuPQXG-1">
          <mxGeometry x="630" y="370" width="40" height="20" as="geometry" />
        </mxCell>
        <mxCell id="Usw_jpKvD3mnjLfNYBB7-9" style="edgeStyle=orthogonalEdgeStyle;rounded=0;orthogonalLoop=1;jettySize=auto;html=1;entryX=0;entryY=0.5;entryDx=0;entryDy=0;entryPerimeter=0;endArrow=none;endFill=0;fillColor=#f8cecc;strokeColor=#b85450;exitX=0.007;exitY=0.679;exitDx=0;exitDy=0;exitPerimeter=0;" edge="1" parent="J4WyRTijxJQLKeOuPQXG-1" source="Usw_jpKvD3mnjLfNYBB7-5" target="Usw_jpKvD3mnjLfNYBB7-20">
          <mxGeometry relative="1" as="geometry">
            <mxPoint x="390" y="360" as="sourcePoint" />
            <Array as="points">
              <mxPoint x="421" y="320" />
              <mxPoint x="385" y="320" />
              <mxPoint x="385" y="370" />
              <mxPoint x="360" y="370" />
              <mxPoint x="360" y="500" />
              <mxPoint x="440" y="500" />
              <mxPoint x="440" y="640" />
              <mxPoint x="350" y="640" />
              <mxPoint x="350" y="670" />
            </Array>
          </mxGeometry>
        </mxCell>
        <mxCell id="Usw_jpKvD3mnjLfNYBB7-10" value="DP1" style="text;html=1;resizable=0;autosize=1;align=center;verticalAlign=middle;points=[];fillColor=none;strokeColor=none;rounded=0;" vertex="1" parent="J4WyRTijxJQLKeOuPQXG-1">
          <mxGeometry x="420" y="310" width="40" height="20" as="geometry" />
        </mxCell>
        <mxCell id="Usw_jpKvD3mnjLfNYBB7-11" value="" style="shape=image;html=1;verticalAlign=top;verticalLabelPosition=bottom;labelBackgroundColor=none;imageAspect=0;aspect=fixed;image=https://cdn2.iconfinder.com/data/icons/electronic-13/480/6-electronic-led-icon-2-128.png;labelBorderColor=none;imageBackground=#006666;" vertex="1" parent="J4WyRTijxJQLKeOuPQXG-1">
          <mxGeometry x="550" y="510" width="128" height="128" as="geometry" />
        </mxCell>
        <mxCell id="Usw_jpKvD3mnjLfNYBB7-12" style="edgeStyle=orthogonalEdgeStyle;rounded=0;orthogonalLoop=1;jettySize=auto;html=1;exitX=0;exitY=0.5;exitDx=0;exitDy=0;exitPerimeter=0;entryX=0;entryY=0.25;entryDx=0;entryDy=0;endArrow=none;endFill=0;" edge="1" parent="J4WyRTijxJQLKeOuPQXG-1" source="Usw_jpKvD3mnjLfNYBB7-13" target="Usw_jpKvD3mnjLfNYBB7-15">
          <mxGeometry relative="1" as="geometry" />
        </mxCell>
        <mxCell id="Usw_jpKvD3mnjLfNYBB7-13" value="" style="pointerEvents=1;verticalLabelPosition=bottom;shadow=0;dashed=0;align=center;html=1;verticalAlign=top;shape=mxgraph.electrical.resistors.resistor_1;fillColor=#ffe6cc;strokeColor=#d79b00;" vertex="1" parent="J4WyRTijxJQLKeOuPQXG-1">
          <mxGeometry x="20" y="415" width="100" height="20" as="geometry" />
        </mxCell>
        <mxCell id="Usw_jpKvD3mnjLfNYBB7-14" value="&lt;font style=&quot;font-size: 30px&quot;&gt;+&lt;/font&gt;" style="rounded=0;whiteSpace=wrap;html=1;strokeColor=#B20000;fontColor=#ffffff;fillColor=#e51400;" vertex="1" parent="J4WyRTijxJQLKeOuPQXG-1">
          <mxGeometry x="30" y="80" width="1010" height="30" as="geometry" />
        </mxCell>
        <mxCell id="Usw_jpKvD3mnjLfNYBB7-15" value="&lt;font style=&quot;font-size: 30px&quot;&gt;-&lt;/font&gt;" style="rounded=0;whiteSpace=wrap;html=1;strokeColor=#314354;fontColor=#ffffff;fillColor=#647687;" vertex="1" parent="J4WyRTijxJQLKeOuPQXG-1">
          <mxGeometry x="50" y="770" width="1010" height="30" as="geometry" />
        </mxCell>
        <mxCell id="Usw_jpKvD3mnjLfNYBB7-16" value="resistor" style="text;html=1;resizable=0;autosize=1;align=center;verticalAlign=middle;points=[];fillColor=none;strokeColor=none;rounded=0;" vertex="1" parent="J4WyRTijxJQLKeOuPQXG-1">
          <mxGeometry x="45" y="395" width="50" height="20" as="geometry" />
        </mxCell>
        <mxCell id="Usw_jpKvD3mnjLfNYBB7-17" style="edgeStyle=orthogonalEdgeStyle;rounded=0;orthogonalLoop=1;jettySize=auto;html=1;endArrow=none;endFill=0;exitX=0.45;exitY=1;exitDx=0;exitDy=0;exitPerimeter=0;fillColor=#6a00ff;strokeColor=#3700CC;" edge="1" parent="J4WyRTijxJQLKeOuPQXG-1" source="Usw_jpKvD3mnjLfNYBB7-18">
          <mxGeometry relative="1" as="geometry">
            <mxPoint x="760" y="460" as="sourcePoint" />
            <mxPoint x="350" y="670" as="targetPoint" />
            <Array as="points">
              <mxPoint x="698" y="393" />
              <mxPoint x="760" y="393" />
              <mxPoint x="760" y="490" />
              <mxPoint x="400" y="490" />
              <mxPoint x="400" y="550" />
              <mxPoint x="25" y="550" />
              <mxPoint x="25" y="670" />
            </Array>
          </mxGeometry>
        </mxCell>
        <mxCell id="Usw_jpKvD3mnjLfNYBB7-18" value="DN1" style="text;html=1;resizable=0;autosize=1;align=center;verticalAlign=middle;points=[];fillColor=none;strokeColor=none;rounded=0;" vertex="1" parent="J4WyRTijxJQLKeOuPQXG-1">
          <mxGeometry x="680" y="370" width="40" height="20" as="geometry" />
        </mxCell>
        <mxCell id="Usw_jpKvD3mnjLfNYBB7-19" style="edgeStyle=orthogonalEdgeStyle;rounded=0;orthogonalLoop=1;jettySize=auto;html=1;exitX=1;exitY=0.5;exitDx=0;exitDy=0;exitPerimeter=0;endArrow=none;endFill=0;entryX=0.656;entryY=1.016;entryDx=0;entryDy=0;entryPerimeter=0;" edge="1" parent="J4WyRTijxJQLKeOuPQXG-1" source="Usw_jpKvD3mnjLfNYBB7-20" target="Usw_jpKvD3mnjLfNYBB7-11">
          <mxGeometry relative="1" as="geometry">
            <mxPoint x="630" y="650" as="targetPoint" />
          </mxGeometry>
        </mxCell>
        <mxCell id="Usw_jpKvD3mnjLfNYBB7-20" value="resistor" style="pointerEvents=1;verticalLabelPosition=bottom;shadow=0;dashed=0;align=center;html=1;verticalAlign=top;shape=mxgraph.electrical.resistors.resistor_1;fillColor=#ffe6cc;strokeColor=#d79b00;" vertex="1" parent="J4WyRTijxJQLKeOuPQXG-1">
          <mxGeometry x="390" y="660" width="100" height="20" as="geometry" />
        </mxCell>
        <mxCell id="Usw_jpKvD3mnjLfNYBB7-21" value="" style="endArrow=none;html=1;exitX=0.521;exitY=0.033;exitDx=0;exitDy=0;exitPerimeter=0;" edge="1" parent="J4WyRTijxJQLKeOuPQXG-1" source="Usw_jpKvD3mnjLfNYBB7-15">
          <mxGeometry width="50" height="50" relative="1" as="geometry">
            <mxPoint x="575" y="770" as="sourcePoint" />
            <mxPoint x="575" y="638" as="targetPoint" />
          </mxGeometry>
        </mxCell>
        <mxCell id="Usw_jpKvD3mnjLfNYBB7-22" value="SP1" style="text;html=1;resizable=0;autosize=1;align=center;verticalAlign=middle;points=[];fillColor=none;strokeColor=none;rounded=0;labelBackgroundColor=none;" vertex="1" parent="J4WyRTijxJQLKeOuPQXG-1">
          <mxGeometry x="420" y="340" width="40" height="20" as="geometry" />
        </mxCell>
        <mxCell id="Usw_jpKvD3mnjLfNYBB7-23" value="" style="endArrow=none;html=1;rounded=0;fillColor=#d5e8d4;strokeColor=#82b366;" edge="1" parent="J4WyRTijxJQLKeOuPQXG-1">
          <mxGeometry width="50" height="50" relative="1" as="geometry">
            <mxPoint x="440" y="410" as="sourcePoint" />
            <mxPoint x="439.5" y="370" as="targetPoint" />
            <Array as="points" />
          </mxGeometry>
        </mxCell>
        <mxCell id="Usw_jpKvD3mnjLfNYBB7-24" value="" style="endArrow=none;html=1;fillColor=#d5e8d4;strokeColor=#82b366;" edge="1" parent="J4WyRTijxJQLKeOuPQXG-1">
          <mxGeometry width="50" height="50" relative="1" as="geometry">
            <mxPoint x="440" y="410" as="sourcePoint" />
            <mxPoint x="600" y="410" as="targetPoint" />
          </mxGeometry>
        </mxCell>
        <mxCell id="Usw_jpKvD3mnjLfNYBB7-25" value="" style="endArrow=none;html=1;entryX=0.567;entryY=1;entryDx=0;entryDy=0;entryPerimeter=0;fillColor=#d5e8d4;strokeColor=#82b366;" edge="1" parent="J4WyRTijxJQLKeOuPQXG-1" target="Usw_jpKvD3mnjLfNYBB7-14">
          <mxGeometry width="50" height="50" relative="1" as="geometry">
            <mxPoint x="600" y="410" as="sourcePoint" />
            <mxPoint x="650" y="360" as="targetPoint" />
          </mxGeometry>
        </mxCell>
        <mxCell id="Usw_jpKvD3mnjLfNYBB7-26" value="SN1" style="text;html=1;resizable=0;autosize=1;align=center;verticalAlign=middle;points=[];fillColor=none;strokeColor=none;rounded=0;labelBackgroundColor=none;" vertex="1" parent="J4WyRTijxJQLKeOuPQXG-1">
          <mxGeometry x="730" y="370" width="40" height="20" as="geometry" />
        </mxCell>
        <mxCell id="Usw_jpKvD3mnjLfNYBB7-27" value="" style="endArrow=none;html=1;entryX=0.5;entryY=1;entryDx=0;entryDy=0;entryPerimeter=0;exitX=0.693;exitY=-0.033;exitDx=0;exitDy=0;exitPerimeter=0;fillColor=#1ba1e2;strokeColor=#006EAF;" edge="1" parent="J4WyRTijxJQLKeOuPQXG-1" source="Usw_jpKvD3mnjLfNYBB7-15" target="Usw_jpKvD3mnjLfNYBB7-26">
          <mxGeometry width="50" height="50" relative="1" as="geometry">
            <mxPoint x="750" y="520" as="sourcePoint" />
            <mxPoint x="570" y="470" as="targetPoint" />
            <Array as="points">
              <mxPoint x="750" y="460" />
            </Array>
          </mxGeometry>
        </mxCell>
        <mxCell id="mnO0MgvImo8i3oPbmCI_-0" style="edgeStyle=orthogonalEdgeStyle;rounded=1;orthogonalLoop=1;jettySize=auto;html=1;endArrow=none;endFill=0;exitX=0.425;exitY=1.05;exitDx=0;exitDy=0;exitPerimeter=0;gradientColor=#d5739d;fillColor=#e6d0de;strokeColor=#996185;" edge="1" parent="J4WyRTijxJQLKeOuPQXG-1" source="mnO0MgvImo8i3oPbmCI_-39">
          <mxGeometry relative="1" as="geometry">
            <mxPoint x="1434" y="475" as="targetPoint" />
            <mxPoint x="1744" y="805" as="sourcePoint" />
            <Array as="points">
              <mxPoint x="1744" y="766" />
              <mxPoint x="1744" y="825" />
              <mxPoint x="1651" y="825" />
              <mxPoint x="1651" y="475" />
              <mxPoint x="1437" y="475" />
            </Array>
          </mxGeometry>
        </mxCell>
        <mxCell id="mnO0MgvImo8i3oPbmCI_-1" value="NMOS" style="whiteSpace=wrap;html=1;aspect=fixed;labelBackgroundColor=none;fillColor=#fff2cc;strokeColor=#d6b656;" vertex="1" parent="J4WyRTijxJQLKeOuPQXG-1">
          <mxGeometry x="1624" y="215" width="190" height="190" as="geometry" />
        </mxCell>
        <mxCell id="mnO0MgvImo8i3oPbmCI_-2" style="edgeStyle=orthogonalEdgeStyle;rounded=1;orthogonalLoop=1;jettySize=auto;html=1;exitX=0.095;exitY=0.995;exitDx=0;exitDy=0;endArrow=none;endFill=0;exitPerimeter=0;entryX=1.033;entryY=0.6;entryDx=0;entryDy=0;entryPerimeter=0;fillColor=#008a00;strokeColor=#005700;" edge="1" parent="J4WyRTijxJQLKeOuPQXG-1" source="mnO0MgvImo8i3oPbmCI_-6" target="mnO0MgvImo8i3oPbmCI_-29">
          <mxGeometry relative="1" as="geometry">
            <mxPoint x="2114" y="555" as="targetPoint" />
            <Array as="points">
              <mxPoint x="2442" y="525" />
              <mxPoint x="2114" y="525" />
              <mxPoint x="2114" y="547" />
            </Array>
          </mxGeometry>
        </mxCell>
        <mxCell id="mnO0MgvImo8i3oPbmCI_-3" style="edgeStyle=orthogonalEdgeStyle;rounded=1;orthogonalLoop=1;jettySize=auto;html=1;exitX=0.5;exitY=1;exitDx=0;exitDy=0;endArrow=none;endFill=0;fillColor=#dae8fc;strokeColor=#6c8ebf;gradientColor=#7ea6e0;" edge="1" parent="J4WyRTijxJQLKeOuPQXG-1" source="mnO0MgvImo8i3oPbmCI_-6">
          <mxGeometry relative="1" as="geometry">
            <mxPoint x="2095" y="395" as="targetPoint" />
            <Array as="points">
              <mxPoint x="2519" y="465" />
              <mxPoint x="2144" y="465" />
              <mxPoint x="2144" y="485" />
              <mxPoint x="2094" y="485" />
            </Array>
          </mxGeometry>
        </mxCell>
        <mxCell id="mnO0MgvImo8i3oPbmCI_-4" style="edgeStyle=orthogonalEdgeStyle;rounded=1;orthogonalLoop=1;jettySize=auto;html=1;exitX=0.911;exitY=0.995;exitDx=0;exitDy=0;endArrow=none;endFill=0;exitPerimeter=0;" edge="1" parent="J4WyRTijxJQLKeOuPQXG-1" source="mnO0MgvImo8i3oPbmCI_-6">
          <mxGeometry relative="1" as="geometry">
            <mxPoint x="2608" y="125" as="targetPoint" />
            <Array as="points">
              <mxPoint x="2597" y="425" />
              <mxPoint x="2694" y="425" />
              <mxPoint x="2694" y="170" />
              <mxPoint x="2667" y="170" />
              <mxPoint x="2667" y="145" />
              <mxPoint x="2608" y="145" />
            </Array>
          </mxGeometry>
        </mxCell>
        <mxCell id="mnO0MgvImo8i3oPbmCI_-5" style="edgeStyle=orthogonalEdgeStyle;rounded=1;orthogonalLoop=1;jettySize=auto;html=1;endArrow=none;endFill=0;" edge="1" parent="J4WyRTijxJQLKeOuPQXG-1">
          <mxGeometry relative="1" as="geometry">
            <mxPoint x="2173" y="405" as="targetPoint" />
            <mxPoint x="2594" y="405" as="sourcePoint" />
            <Array as="points">
              <mxPoint x="2594" y="445" />
              <mxPoint x="2567" y="445" />
              <mxPoint x="2567" y="430" />
              <mxPoint x="2184" y="430" />
              <mxPoint x="2184" y="455" />
              <mxPoint x="2173" y="455" />
            </Array>
          </mxGeometry>
        </mxCell>
        <mxCell id="mnO0MgvImo8i3oPbmCI_-6" value="NMOS" style="whiteSpace=wrap;html=1;aspect=fixed;labelBackgroundColor=none;fillColor=#fff2cc;strokeColor=#d6b656;" vertex="1" parent="J4WyRTijxJQLKeOuPQXG-1">
          <mxGeometry x="2424" y="215" width="190" height="190" as="geometry" />
        </mxCell>
        <mxCell id="mnO0MgvImo8i3oPbmCI_-7" style="edgeStyle=orthogonalEdgeStyle;rounded=1;orthogonalLoop=1;jettySize=auto;html=1;endArrow=none;endFill=0;exitX=0.425;exitY=1;exitDx=0;exitDy=0;exitPerimeter=0;gradientColor=#ffd966;fillColor=#fff2cc;strokeColor=#d6b656;" edge="1" parent="J4WyRTijxJQLKeOuPQXG-1" source="mnO0MgvImo8i3oPbmCI_-33">
          <mxGeometry relative="1" as="geometry">
            <mxPoint x="1434" y="509" as="targetPoint" />
            <mxPoint x="2030" y="405" as="sourcePoint" />
            <Array as="points">
              <mxPoint x="2021" y="475" />
              <mxPoint x="1754" y="475" />
              <mxPoint x="1754" y="509" />
            </Array>
          </mxGeometry>
        </mxCell>
        <mxCell id="mnO0MgvImo8i3oPbmCI_-8" style="edgeStyle=orthogonalEdgeStyle;rounded=1;orthogonalLoop=1;jettySize=auto;html=1;exitX=0.5;exitY=1;exitDx=0;exitDy=0;endArrow=none;endFill=0;gradientColor=#7ea6e0;fillColor=#dae8fc;strokeColor=#6c8ebf;" edge="1" parent="J4WyRTijxJQLKeOuPQXG-1" source="mnO0MgvImo8i3oPbmCI_-10">
          <mxGeometry relative="1" as="geometry">
            <mxPoint x="1715" y="405" as="targetPoint" />
            <Array as="points">
              <mxPoint x="2099" y="455" />
              <mxPoint x="1715" y="455" />
            </Array>
          </mxGeometry>
        </mxCell>
        <mxCell id="mnO0MgvImo8i3oPbmCI_-9" style="edgeStyle=orthogonalEdgeStyle;rounded=1;orthogonalLoop=1;jettySize=auto;html=1;endArrow=none;endFill=0;exitX=0.475;exitY=1;exitDx=0;exitDy=0;exitPerimeter=0;" edge="1" parent="J4WyRTijxJQLKeOuPQXG-1" source="mnO0MgvImo8i3oPbmCI_-35" target="mnO0MgvImo8i3oPbmCI_-32">
          <mxGeometry relative="1" as="geometry">
            <mxPoint x="1794" y="415" as="targetPoint" />
            <mxPoint x="2168" y="405" as="sourcePoint" />
            <Array as="points">
              <mxPoint x="2168" y="405" />
              <mxPoint x="2168" y="435" />
              <mxPoint x="1814" y="435" />
              <mxPoint x="1814" y="445" />
              <mxPoint x="1794" y="445" />
            </Array>
          </mxGeometry>
        </mxCell>
        <mxCell id="mnO0MgvImo8i3oPbmCI_-10" value="NMOS" style="whiteSpace=wrap;html=1;aspect=fixed;labelBackgroundColor=none;fillColor=#fff2cc;strokeColor=#d6b656;" vertex="1" parent="J4WyRTijxJQLKeOuPQXG-1">
          <mxGeometry x="2004" y="215" width="190" height="190" as="geometry" />
        </mxCell>
        <mxCell id="mnO0MgvImo8i3oPbmCI_-11" style="edgeStyle=orthogonalEdgeStyle;rounded=1;orthogonalLoop=1;jettySize=auto;html=1;exitX=0.105;exitY=1.011;exitDx=0;exitDy=0;endArrow=none;endFill=0;exitPerimeter=0;entryX=1.067;entryY=0.65;entryDx=0;entryDy=0;entryPerimeter=0;fillColor=#008a00;strokeColor=#005700;" edge="1" parent="J4WyRTijxJQLKeOuPQXG-1" source="mnO0MgvImo8i3oPbmCI_-14" target="mnO0MgvImo8i3oPbmCI_-29">
          <mxGeometry relative="1" as="geometry">
            <mxPoint x="1444" y="545" as="targetPoint" />
            <Array as="points">
              <mxPoint x="2589" y="925" />
              <mxPoint x="1444" y="925" />
              <mxPoint x="1444" y="548" />
            </Array>
          </mxGeometry>
        </mxCell>
        <mxCell id="mnO0MgvImo8i3oPbmCI_-12" style="edgeStyle=orthogonalEdgeStyle;rounded=1;orthogonalLoop=1;jettySize=auto;html=1;exitX=0.911;exitY=1;exitDx=0;exitDy=0;entryX=0.965;entryY=0.017;entryDx=0;entryDy=0;entryPerimeter=0;endArrow=none;endFill=0;exitPerimeter=0;" edge="1" parent="J4WyRTijxJQLKeOuPQXG-1" source="mnO0MgvImo8i3oPbmCI_-14" target="mnO0MgvImo8i3oPbmCI_-49">
          <mxGeometry relative="1" as="geometry" />
        </mxCell>
        <mxCell id="mnO0MgvImo8i3oPbmCI_-13" style="edgeStyle=orthogonalEdgeStyle;rounded=1;orthogonalLoop=1;jettySize=auto;html=1;exitX=0.5;exitY=1;exitDx=0;exitDy=0;endArrow=none;endFill=0;fillColor=#f8cecc;strokeColor=#b85450;" edge="1" parent="J4WyRTijxJQLKeOuPQXG-1" source="mnO0MgvImo8i3oPbmCI_-14">
          <mxGeometry relative="1" as="geometry">
            <mxPoint x="2064" y="785" as="targetPoint" />
            <Array as="points">
              <mxPoint x="2664" y="800" />
              <mxPoint x="2144" y="800" />
              <mxPoint x="2144" y="835" />
            </Array>
          </mxGeometry>
        </mxCell>
        <mxCell id="mnO0MgvImo8i3oPbmCI_-14" value="PMOS" style="whiteSpace=wrap;html=1;aspect=fixed;labelBackgroundColor=none;fillColor=#d5e8d4;strokeColor=#82b366;" vertex="1" parent="J4WyRTijxJQLKeOuPQXG-1">
          <mxGeometry x="2569" y="575" width="190" height="190" as="geometry" />
        </mxCell>
        <mxCell id="mnO0MgvImo8i3oPbmCI_-15" style="edgeStyle=orthogonalEdgeStyle;rounded=1;orthogonalLoop=1;jettySize=auto;html=1;endArrow=none;endFill=0;exitX=0.126;exitY=1.005;exitDx=0;exitDy=0;exitPerimeter=0;entryX=1.167;entryY=0.45;entryDx=0;entryDy=0;entryPerimeter=0;gradientColor=#ffd966;fillColor=#fff2cc;strokeColor=#d6b656;" edge="1" parent="J4WyRTijxJQLKeOuPQXG-1" source="mnO0MgvImo8i3oPbmCI_-18" target="mnO0MgvImo8i3oPbmCI_-28">
          <mxGeometry relative="1" as="geometry">
            <mxPoint x="1484" y="515" as="targetPoint" />
            <mxPoint x="2183" y="775" as="sourcePoint" />
            <Array as="points">
              <mxPoint x="2188" y="855" />
              <mxPoint x="1784" y="855" />
              <mxPoint x="1784" y="875" />
              <mxPoint x="1484" y="875" />
              <mxPoint x="1484" y="615" />
              <mxPoint x="1504" y="615" />
              <mxPoint x="1504" y="509" />
            </Array>
          </mxGeometry>
        </mxCell>
        <mxCell id="mnO0MgvImo8i3oPbmCI_-16" style="edgeStyle=orthogonalEdgeStyle;rounded=1;orthogonalLoop=1;jettySize=auto;html=1;entryX=0.666;entryY=0;entryDx=0;entryDy=0;entryPerimeter=0;endArrow=none;endFill=0;exitX=0.9;exitY=0.995;exitDx=0;exitDy=0;exitPerimeter=0;" edge="1" parent="J4WyRTijxJQLKeOuPQXG-1" source="mnO0MgvImo8i3oPbmCI_-18" target="mnO0MgvImo8i3oPbmCI_-49">
          <mxGeometry relative="1" as="geometry" />
        </mxCell>
        <mxCell id="mnO0MgvImo8i3oPbmCI_-17" style="edgeStyle=orthogonalEdgeStyle;rounded=1;orthogonalLoop=1;jettySize=auto;html=1;exitX=0.5;exitY=1;exitDx=0;exitDy=0;endArrow=none;endFill=0;fillColor=#f8cecc;strokeColor=#b85450;" edge="1" parent="J4WyRTijxJQLKeOuPQXG-1" source="mnO0MgvImo8i3oPbmCI_-18">
          <mxGeometry relative="1" as="geometry">
            <mxPoint x="1564" y="805" as="targetPoint" />
          </mxGeometry>
        </mxCell>
        <mxCell id="mnO0MgvImo8i3oPbmCI_-18" value="PMOS&amp;nbsp;" style="whiteSpace=wrap;html=1;aspect=fixed;labelBackgroundColor=none;fillColor=#d5e8d4;strokeColor=#82b366;" vertex="1" parent="J4WyRTijxJQLKeOuPQXG-1">
          <mxGeometry x="2164" y="575" width="190" height="190" as="geometry" />
        </mxCell>
        <mxCell id="mnO0MgvImo8i3oPbmCI_-19" style="edgeStyle=orthogonalEdgeStyle;rounded=1;orthogonalLoop=1;jettySize=auto;html=1;exitX=0.905;exitY=1.005;exitDx=0;exitDy=0;entryX=0.5;entryY=0;entryDx=0;entryDy=0;endArrow=none;endFill=0;exitPerimeter=0;" edge="1" parent="J4WyRTijxJQLKeOuPQXG-1" source="mnO0MgvImo8i3oPbmCI_-21" target="mnO0MgvImo8i3oPbmCI_-49">
          <mxGeometry relative="1" as="geometry" />
        </mxCell>
        <mxCell id="mnO0MgvImo8i3oPbmCI_-20" style="edgeStyle=orthogonalEdgeStyle;rounded=1;orthogonalLoop=1;jettySize=auto;html=1;exitX=0.5;exitY=1;exitDx=0;exitDy=0;endArrow=none;endFill=0;fillColor=#f8cecc;strokeColor=#b85450;entryX=1;entryY=0.5;entryDx=0;entryDy=0;entryPerimeter=0;" edge="1" parent="J4WyRTijxJQLKeOuPQXG-1" source="mnO0MgvImo8i3oPbmCI_-21" target="mnO0MgvImo8i3oPbmCI_-60">
          <mxGeometry relative="1" as="geometry">
            <mxPoint x="1484" y="485" as="targetPoint" />
            <Array as="points">
              <mxPoint x="1819" y="785" />
              <mxPoint x="1514" y="785" />
              <mxPoint x="1514" y="535" />
              <mxPoint x="1485" y="535" />
            </Array>
          </mxGeometry>
        </mxCell>
        <mxCell id="mnO0MgvImo8i3oPbmCI_-21" value="PMOS" style="whiteSpace=wrap;html=1;aspect=fixed;labelBackgroundColor=none;fillColor=#d5e8d4;strokeColor=#82b366;" vertex="1" parent="J4WyRTijxJQLKeOuPQXG-1">
          <mxGeometry x="1724" y="575" width="190" height="190" as="geometry" />
        </mxCell>
        <mxCell id="mnO0MgvImo8i3oPbmCI_-22" style="edgeStyle=orthogonalEdgeStyle;rounded=1;orthogonalLoop=1;jettySize=auto;html=1;exitX=1;exitY=0.25;exitDx=0;exitDy=0;entryX=0.525;entryY=1;entryDx=0;entryDy=0;entryPerimeter=0;endArrow=none;endFill=0;gradientColor=#d5739d;fillColor=#e6d0de;strokeColor=#996185;" edge="1" parent="J4WyRTijxJQLKeOuPQXG-1" source="mnO0MgvImo8i3oPbmCI_-26" target="mnO0MgvImo8i3oPbmCI_-30">
          <mxGeometry relative="1" as="geometry" />
        </mxCell>
        <mxCell id="mnO0MgvImo8i3oPbmCI_-23" style="edgeStyle=orthogonalEdgeStyle;rounded=1;orthogonalLoop=1;jettySize=auto;html=1;exitX=0.25;exitY=1;exitDx=0;exitDy=0;entryX=0;entryY=0.75;entryDx=0;entryDy=0;endArrow=none;endFill=0;gradientColor=#97d077;fillColor=#d5e8d4;strokeColor=#82b366;" edge="1" parent="J4WyRTijxJQLKeOuPQXG-1" source="mnO0MgvImo8i3oPbmCI_-26" target="mnO0MgvImo8i3oPbmCI_-49">
          <mxGeometry relative="1" as="geometry" />
        </mxCell>
        <mxCell id="mnO0MgvImo8i3oPbmCI_-24" style="edgeStyle=orthogonalEdgeStyle;rounded=1;orthogonalLoop=1;jettySize=auto;html=1;exitX=0.5;exitY=1;exitDx=0;exitDy=0;entryX=0;entryY=0.25;entryDx=0;entryDy=0;endArrow=none;endFill=0;gradientColor=#97d077;fillColor=#d5e8d4;strokeColor=#82b366;" edge="1" parent="J4WyRTijxJQLKeOuPQXG-1" source="mnO0MgvImo8i3oPbmCI_-26" target="mnO0MgvImo8i3oPbmCI_-49">
          <mxGeometry relative="1" as="geometry" />
        </mxCell>
        <mxCell id="mnO0MgvImo8i3oPbmCI_-25" style="edgeStyle=orthogonalEdgeStyle;rounded=1;orthogonalLoop=1;jettySize=auto;html=1;exitX=0.75;exitY=1;exitDx=0;exitDy=0;entryX=0;entryY=0;entryDx=0;entryDy=0;endArrow=none;endFill=0;gradientColor=#97d077;fillColor=#d5e8d4;strokeColor=#82b366;" edge="1" parent="J4WyRTijxJQLKeOuPQXG-1" source="mnO0MgvImo8i3oPbmCI_-26" target="mnO0MgvImo8i3oPbmCI_-49">
          <mxGeometry relative="1" as="geometry" />
        </mxCell>
        <mxCell id="mnO0MgvImo8i3oPbmCI_-26" value="Switch" style="whiteSpace=wrap;html=1;aspect=fixed;labelBackgroundColor=none;fillColor=#0050ef;strokeColor=#001DBC;fontColor=#ffffff;" vertex="1" parent="J4WyRTijxJQLKeOuPQXG-1">
          <mxGeometry x="1284" y="435" width="150" height="150" as="geometry" />
        </mxCell>
        <mxCell id="mnO0MgvImo8i3oPbmCI_-27" value="1A&lt;span style=&quot;color: rgba(0 , 0 , 0 , 0) ; font-family: monospace ; font-size: 0px&quot;&gt;%3CmxGraphModel%3E%3Croot%3E%3CmxCell%20id%3D%220%22%2F%3E%3CmxCell%20id%3D%221%22%20parent%3D%220%22%2F%3E%3CmxCell%20id%3D%222%22%20value%3D%22%22%20style%3D%22whiteSpace%3Dwrap%3Bhtml%3D1%3Baspect%3Dfixed%3BlabelBackgroundColor%3Dnone%3BfillColor%3D%23ffffff%3BgradientColor%3Dnone%3B%22%20vertex%3D%221%22%20parent%3D%221%22%3E%3CmxGeometry%20x%3D%2280%22%20y%3D%2270%22%20width%3D%22190%22%20height%3D%22190%22%20as%3D%22geometry%22%2F%3E%3C%2FmxCell%3E%3C%2Froot%3E%3C%2FmxGraphModel%3E&lt;/span&gt;" style="text;html=1;resizable=0;autosize=1;align=center;verticalAlign=middle;points=[];fillColor=none;strokeColor=none;rounded=0;labelBackgroundColor=none;" vertex="1" parent="J4WyRTijxJQLKeOuPQXG-1">
          <mxGeometry x="1404" y="465" width="30" height="20" as="geometry" />
        </mxCell>
        <mxCell id="mnO0MgvImo8i3oPbmCI_-28" value="2B&lt;span style=&quot;color: rgba(0 , 0 , 0 , 0) ; font-family: monospace ; font-size: 0px&quot;&gt;%3CmxGraphModel%3E%3Croot%3E%3CmxCell%20id%3D%220%22%2F%3E%3CmxCell%20id%3D%221%22%20parent%3D%220%22%2F%3E%3CmxCell%20id%3D%222%22%20value%3D%22%22%20style%3D%22whiteSpace%3Dwrap%3Bhtml%3D1%3Baspect%3Dfixed%3BlabelBackgroundColor%3Dnone%3BfillColor%3D%23ffffff%3BgradientColor%3Dnone%3B%22%20vertex%3D%221%22%20parent%3D%221%22%3E%3CmxGeometry%20x%3D%2280%22%20y%3D%2270%22%20width%3D%22190%22%20height%3D%22190%22%20as%3D%22geometry%22%2F%3E%3C%2FmxCell%3E%3C%2Froot%3E%3C%2FmxGraphModel%3E&lt;/span&gt;" style="text;html=1;resizable=0;autosize=1;align=center;verticalAlign=middle;points=[];fillColor=none;strokeColor=none;rounded=0;labelBackgroundColor=none;" vertex="1" parent="J4WyRTijxJQLKeOuPQXG-1">
          <mxGeometry x="1404" y="500" width="30" height="20" as="geometry" />
        </mxCell>
        <mxCell id="mnO0MgvImo8i3oPbmCI_-29" value="3C&lt;span style=&quot;color: rgba(0 , 0 , 0 , 0) ; font-family: monospace ; font-size: 0px&quot;&gt;%3CmxGraphModel%3E%3Croot%3E%3CmxCell%20id%3D%220%22%2F%3E%3CmxCell%20id%3D%221%22%20parent%3D%220%22%2F%3E%3CmxCell%20id%3D%222%22%20value%3D%22%22%20style%3D%22whiteSpace%3Dwrap%3Bhtml%3D1%3Baspect%3Dfixed%3BlabelBackgroundColor%3Dnone%3BfillColor%3D%23ffffff%3BgradientColor%3Dnone%3B%22%20vertex%3D%221%22%20parent%3D%221%22%3E%3CmxGeometry%20x%3D%2280%22%20y%3D%2270%22%20width%3D%22190%22%20height%3D%22190%22%20as%3D%22geometry%22%2F%3E%3C%2FmxCell%3E%3C%2Froot%3E%3C%2FmxGraphModel%3E&lt;/span&gt;" style="text;html=1;resizable=0;autosize=1;align=center;verticalAlign=middle;points=[];fillColor=none;strokeColor=none;rounded=0;labelBackgroundColor=none;" vertex="1" parent="J4WyRTijxJQLKeOuPQXG-1">
          <mxGeometry x="1404" y="535" width="30" height="20" as="geometry" />
        </mxCell>
        <mxCell id="mnO0MgvImo8i3oPbmCI_-30" value="GN2&lt;span style=&quot;color: rgba(0 , 0 , 0 , 0) ; font-family: monospace ; font-size: 0px&quot;&gt;%3CmxGraphModel%3E%3Croot%3E%3CmxCell%20id%3D%220%22%2F%3E%3CmxCell%20id%3D%221%22%20parent%3D%220%22%2F%3E%3CmxCell%20id%3D%222%22%20value%3D%221A%26lt%3Bspan%20style%3D%26quot%3Bcolor%3A%20rgba(0%20%2C%200%20%2C%200%20%2C%200)%20%3B%20font-family%3A%20monospace%20%3B%20font-size%3A%200px%26quot%3B%26gt%3B%253CmxGraphModel%253E%253Croot%253E%253CmxCell%2520id%253D%25220%2522%252F%253E%253CmxCell%2520id%253D%25221%2522%2520parent%253D%25220%2522%252F%253E%253CmxCell%2520id%253D%25222%2522%2520value%253D%2522%2522%2520style%253D%2522whiteSpace%253Dwrap%253Bhtml%253D1%253Baspect%253Dfixed%253BlabelBackgroundColor%253Dnone%253BfillColor%253D%2523ffffff%253BgradientColor%253Dnone%253B%2522%2520vertex%253D%25221%2522%2520parent%253D%25221%2522%253E%253CmxGeometry%2520x%253D%252280%2522%2520y%253D%252270%2522%2520width%253D%2522190%2522%2520height%253D%2522190%2522%2520as%253D%2522geometry%2522%252F%253E%253C%252FmxCell%253E%253C%252Froot%253E%253C%252FmxGraphModel%253E%26lt%3B%2Fspan%26gt%3B%22%20style%3D%22text%3Bhtml%3D1%3Bresizable%3D0%3Bautosize%3D1%3Balign%3Dcenter%3BverticalAlign%3Dmiddle%3Bpoints%3D%5B%5D%3BfillColor%3Dnone%3BstrokeColor%3Dnone%3Brounded%3D0%3BlabelBackgroundColor%3Dnone%3B%22%20vertex%3D%221%22%20parent%3D%221%22%3E%3CmxGeometry%20x%3D%22-115%22%20y%3D%22510%22%20width%3D%2230%22%20height%3D%2220%22%20as%3D%22geometry%22%2F%3E%3C%2FmxCell%3E%3C%2Froot%3E%3C%2FmxGraphModel%3E&lt;/span&gt;" style="text;html=1;resizable=0;autosize=1;align=center;verticalAlign=middle;points=[];fillColor=none;strokeColor=none;rounded=0;labelBackgroundColor=none;" vertex="1" parent="J4WyRTijxJQLKeOuPQXG-1">
          <mxGeometry x="1624" y="385" width="40" height="20" as="geometry" />
        </mxCell>
        <mxCell id="mnO0MgvImo8i3oPbmCI_-31" value="DN2&lt;span style=&quot;color: rgba(0 , 0 , 0 , 0) ; font-family: monospace ; font-size: 0px&quot;&gt;%3CmxGraphModel%3E%3Croot%3E%3CmxCell%20id%3D%220%22%2F%3E%3CmxCell%20id%3D%221%22%20parent%3D%220%22%2F%3E%3CmxCell%20id%3D%222%22%20value%3D%221A%26lt%3Bspan%20style%3D%26quot%3Bcolor%3A%20rgba(0%20%2C%200%20%2C%200%20%2C%200)%20%3B%20font-family%3A%20monospace%20%3B%20font-size%3A%200px%26quot%3B%26gt%3B%253CmxGraphModel%253E%253Croot%253E%253CmxCell%2520id%253D%25220%2522%252F%253E%253CmxCell%2520id%253D%25221%2522%2520parent%253D%25220%2522%252F%253E%253CmxCell%2520id%253D%25222%2522%2520value%253D%2522%2522%2520style%253D%2522whiteSpace%253Dwrap%253Bhtml%253D1%253Baspect%253Dfixed%253BlabelBackgroundColor%253Dnone%253BfillColor%253D%2523ffffff%253BgradientColor%253Dnone%253B%2522%2520vertex%253D%25221%2522%2520parent%253D%25221%2522%253E%253CmxGeometry%2520x%253D%252280%2522%2520y%253D%252270%2522%2520width%253D%2522190%2522%2520height%253D%2522190%2522%2520as%253D%2522geometry%2522%252F%253E%253C%252FmxCell%253E%253C%252Froot%253E%253C%252FmxGraphModel%253E%26lt%3B%2Fspan%26gt%3B%22%20style%3D%22text%3Bhtml%3D1%3Bresizable%3D0%3Bautosize%3D1%3Balign%3Dcenter%3BverticalAlign%3Dmiddle%3Bpoints%3D%5B%5D%3BfillColor%3Dnone%3BstrokeColor%3Dnone%3Brounded%3D0%3BlabelBackgroundColor%3Dnone%3B%22%20vertex%3D%221%22%20parent%3D%221%22%3E%3CmxGeometry%20x%3D%22-115%22%20y%3D%22510%22%20width%3D%2230%22%20height%3D%2220%22%20as%3D%22geometry%22%2F%3E%3C%2FmxCell%3E%3C%2Froot%3E%3C%2FmxGraphModel%3E&lt;/span&gt;" style="text;html=1;resizable=0;autosize=1;align=center;verticalAlign=middle;points=[];fillColor=none;strokeColor=none;rounded=0;labelBackgroundColor=none;" vertex="1" parent="J4WyRTijxJQLKeOuPQXG-1">
          <mxGeometry x="1699" y="385" width="40" height="20" as="geometry" />
        </mxCell>
        <mxCell id="mnO0MgvImo8i3oPbmCI_-32" value="SN2&lt;span style=&quot;color: rgba(0 , 0 , 0 , 0) ; font-family: monospace ; font-size: 0px&quot;&gt;%3CmxGraphModel%3E%3Croot%3E%3CmxCell%20id%3D%220%22%2F%3E%3CmxCell%20id%3D%221%22%20parent%3D%220%22%2F%3E%3CmxCell%20id%3D%222%22%20value%3D%221A%26lt%3Bspan%20style%3D%26quot%3Bcolor%3A%20rgba(0%20%2C%200%20%2C%200%20%2C%200)%20%3B%20font-family%3A%20monospace%20%3B%20font-size%3A%200px%26quot%3B%26gt%3B%253CmxGraphModel%253E%253Croot%253E%253CmxCell%2520id%253D%25220%2522%252F%253E%253CmxCell%2520id%253D%25221%2522%2520parent%253D%25220%2522%252F%253E%253CmxCell%2520id%253D%25222%2522%2520value%253D%2522%2522%2520style%253D%2522whiteSpace%253Dwrap%253Bhtml%253D1%253Baspect%253Dfixed%253BlabelBackgroundColor%253Dnone%253BfillColor%253D%2523ffffff%253BgradientColor%253Dnone%253B%2522%2520vertex%253D%25221%2522%2520parent%253D%25221%2522%253E%253CmxGeometry%2520x%253D%252280%2522%2520y%253D%252270%2522%2520width%253D%2522190%2522%2520height%253D%2522190%2522%2520as%253D%2522geometry%2522%252F%253E%253C%252FmxCell%253E%253C%252Froot%253E%253C%252FmxGraphModel%253E%26lt%3B%2Fspan%26gt%3B%22%20style%3D%22text%3Bhtml%3D1%3Bresizable%3D0%3Bautosize%3D1%3Balign%3Dcenter%3BverticalAlign%3Dmiddle%3Bpoints%3D%5B%5D%3BfillColor%3Dnone%3BstrokeColor%3Dnone%3Brounded%3D0%3BlabelBackgroundColor%3Dnone%3B%22%20vertex%3D%221%22%20parent%3D%221%22%3E%3CmxGeometry%20x%3D%22-115%22%20y%3D%22510%22%20width%3D%2230%22%20height%3D%2220%22%20as%3D%22geometry%22%2F%3E%3C%2FmxCell%3E%3C%2Froot%3E%3C%2FmxGraphModel%3E&lt;/span&gt;" style="text;html=1;resizable=0;autosize=1;align=center;verticalAlign=middle;points=[];fillColor=none;strokeColor=none;rounded=0;labelBackgroundColor=none;" vertex="1" parent="J4WyRTijxJQLKeOuPQXG-1">
          <mxGeometry x="1774" y="385" width="40" height="20" as="geometry" />
        </mxCell>
        <mxCell id="mnO0MgvImo8i3oPbmCI_-33" value="GN3&lt;span style=&quot;color: rgba(0 , 0 , 0 , 0) ; font-family: monospace ; font-size: 0px&quot;&gt;%3CmxGraphModel%3E%3Croot%3E%3CmxCell%20id%3D%220%22%2F%3E%3CmxCell%20id%3D%221%22%20parent%3D%220%22%2F%3E%3CmxCell%20id%3D%222%22%20value%3D%221A%26lt%3Bspan%20style%3D%26quot%3Bcolor%3A%20rgba(0%20%2C%200%20%2C%200%20%2C%200)%20%3B%20font-family%3A%20monospace%20%3B%20font-size%3A%200px%26quot%3B%26gt%3B%253CmxGraphModel%253E%253Croot%253E%253CmxCell%2520id%253D%25220%2522%252F%253E%253CmxCell%2520id%253D%25221%2522%2520parent%253D%25220%2522%252F%253E%253CmxCell%2520id%253D%25222%2522%2520value%253D%2522%2522%2520style%253D%2522whiteSpace%253Dwrap%253Bhtml%253D1%253Baspect%253Dfixed%253BlabelBackgroundColor%253Dnone%253BfillColor%253D%2523ffffff%253BgradientColor%253Dnone%253B%2522%2520vertex%253D%25221%2522%2520parent%253D%25221%2522%253E%253CmxGeometry%2520x%253D%252280%2522%2520y%253D%252270%2522%2520width%253D%2522190%2522%2520height%253D%2522190%2522%2520as%253D%2522geometry%2522%252F%253E%253C%252FmxCell%253E%253C%252Froot%253E%253C%252FmxGraphModel%253E%26lt%3B%2Fspan%26gt%3B%22%20style%3D%22text%3Bhtml%3D1%3Bresizable%3D0%3Bautosize%3D1%3Balign%3Dcenter%3BverticalAlign%3Dmiddle%3Bpoints%3D%5B%5D%3BfillColor%3Dnone%3BstrokeColor%3Dnone%3Brounded%3D0%3BlabelBackgroundColor%3Dnone%3B%22%20vertex%3D%221%22%20parent%3D%221%22%3E%3CmxGeometry%20x%3D%22-115%22%20y%3D%22510%22%20width%3D%2230%22%20height%3D%2220%22%20as%3D%22geometry%22%2F%3E%3C%2FmxCell%3E%3C%2Froot%3E%3C%2FmxGraphModel%3E&lt;/span&gt;" style="text;html=1;resizable=0;autosize=1;align=center;verticalAlign=middle;points=[];fillColor=none;strokeColor=none;rounded=0;labelBackgroundColor=none;" vertex="1" parent="J4WyRTijxJQLKeOuPQXG-1">
          <mxGeometry x="2004" y="385" width="40" height="20" as="geometry" />
        </mxCell>
        <mxCell id="mnO0MgvImo8i3oPbmCI_-34" value="DN3&lt;span style=&quot;color: rgba(0 , 0 , 0 , 0) ; font-family: monospace ; font-size: 0px&quot;&gt;%3CmxGraphModel%3E%3Croot%3E%3CmxCell%20id%3D%220%22%2F%3E%3CmxCell%20id%3D%221%22%20parent%3D%220%22%2F%3E%3CmxCell%20id%3D%222%22%20value%3D%221A%26lt%3Bspan%20style%3D%26quot%3Bcolor%3A%20rgba(0%20%2C%200%20%2C%200%20%2C%200)%20%3B%20font-family%3A%20monospace%20%3B%20font-size%3A%200px%26quot%3B%26gt%3B%253CmxGraphModel%253E%253Croot%253E%253CmxCell%2520id%253D%25220%2522%252F%253E%253CmxCell%2520id%253D%25221%2522%2520parent%253D%25220%2522%252F%253E%253CmxCell%2520id%253D%25222%2522%2520value%253D%2522%2522%2520style%253D%2522whiteSpace%253Dwrap%253Bhtml%253D1%253Baspect%253Dfixed%253BlabelBackgroundColor%253Dnone%253BfillColor%253D%2523ffffff%253BgradientColor%253Dnone%253B%2522%2520vertex%253D%25221%2522%2520parent%253D%25221%2522%253E%253CmxGeometry%2520x%253D%252280%2522%2520y%253D%252270%2522%2520width%253D%2522190%2522%2520height%253D%2522190%2522%2520as%253D%2522geometry%2522%252F%253E%253C%252FmxCell%253E%253C%252Froot%253E%253C%252FmxGraphModel%253E%26lt%3B%2Fspan%26gt%3B%22%20style%3D%22text%3Bhtml%3D1%3Bresizable%3D0%3Bautosize%3D1%3Balign%3Dcenter%3BverticalAlign%3Dmiddle%3Bpoints%3D%5B%5D%3BfillColor%3Dnone%3BstrokeColor%3Dnone%3Brounded%3D0%3BlabelBackgroundColor%3Dnone%3B%22%20vertex%3D%221%22%20parent%3D%221%22%3E%3CmxGeometry%20x%3D%22-115%22%20y%3D%22510%22%20width%3D%2230%22%20height%3D%2220%22%20as%3D%22geometry%22%2F%3E%3C%2FmxCell%3E%3C%2Froot%3E%3C%2FmxGraphModel%3E&lt;/span&gt;" style="text;html=1;resizable=0;autosize=1;align=center;verticalAlign=middle;points=[];fillColor=none;strokeColor=none;rounded=0;labelBackgroundColor=none;" vertex="1" parent="J4WyRTijxJQLKeOuPQXG-1">
          <mxGeometry x="2079" y="385" width="40" height="20" as="geometry" />
        </mxCell>
        <mxCell id="mnO0MgvImo8i3oPbmCI_-35" value="SN3&lt;span style=&quot;color: rgba(0 , 0 , 0 , 0) ; font-family: monospace ; font-size: 0px&quot;&gt;%3CmxGraphModel%3E%3Croot%3E%3CmxCell%20id%3D%220%22%2F%3E%3CmxCell%20id%3D%221%22%20parent%3D%220%22%2F%3E%3CmxCell%20id%3D%222%22%20value%3D%221A%26lt%3Bspan%20style%3D%26quot%3Bcolor%3A%20rgba(0%20%2C%200%20%2C%200%20%2C%200)%20%3B%20font-family%3A%20monospace%20%3B%20font-size%3A%200px%26quot%3B%26gt%3B%253CmxGraphModel%253E%253Croot%253E%253CmxCell%2520id%253D%25220%2522%252F%253E%253CmxCell%2520id%253D%25221%2522%2520parent%253D%25220%2522%252F%253E%253CmxCell%2520id%253D%25222%2522%2520value%253D%2522%2522%2520style%253D%2522whiteSpace%253Dwrap%253Bhtml%253D1%253Baspect%253Dfixed%253BlabelBackgroundColor%253Dnone%253BfillColor%253D%2523ffffff%253BgradientColor%253Dnone%253B%2522%2520vertex%253D%25221%2522%2520parent%253D%25221%2522%253E%253CmxGeometry%2520x%253D%252280%2522%2520y%253D%252270%2522%2520width%253D%2522190%2522%2520height%253D%2522190%2522%2520as%253D%2522geometry%2522%252F%253E%253C%252FmxCell%253E%253C%252Froot%253E%253C%252FmxGraphModel%253E%26lt%3B%2Fspan%26gt%3B%22%20style%3D%22text%3Bhtml%3D1%3Bresizable%3D0%3Bautosize%3D1%3Balign%3Dcenter%3BverticalAlign%3Dmiddle%3Bpoints%3D%5B%5D%3BfillColor%3Dnone%3BstrokeColor%3Dnone%3Brounded%3D0%3BlabelBackgroundColor%3Dnone%3B%22%20vertex%3D%221%22%20parent%3D%221%22%3E%3CmxGeometry%20x%3D%22-115%22%20y%3D%22510%22%20width%3D%2230%22%20height%3D%2220%22%20as%3D%22geometry%22%2F%3E%3C%2FmxCell%3E%3C%2Froot%3E%3C%2FmxGraphModel%3E&lt;/span&gt;" style="text;html=1;resizable=0;autosize=1;align=center;verticalAlign=middle;points=[];fillColor=none;strokeColor=none;rounded=0;labelBackgroundColor=none;" vertex="1" parent="J4WyRTijxJQLKeOuPQXG-1">
          <mxGeometry x="2154" y="385" width="40" height="20" as="geometry" />
        </mxCell>
        <mxCell id="mnO0MgvImo8i3oPbmCI_-36" value="GN4&lt;span style=&quot;color: rgba(0 , 0 , 0 , 0) ; font-family: monospace ; font-size: 0px&quot;&gt;%3CmxGraphModel%3E%3Croot%3E%3CmxCell%20id%3D%220%22%2F%3E%3CmxCell%20id%3D%221%22%20parent%3D%220%22%2F%3E%3CmxCell%20id%3D%222%22%20value%3D%221A%26lt%3Bspan%20style%3D%26quot%3Bcolor%3A%20rgba(0%20%2C%200%20%2C%200%20%2C%200)%20%3B%20font-family%3A%20monospace%20%3B%20font-size%3A%200px%26quot%3B%26gt%3B%253CmxGraphModel%253E%253Croot%253E%253CmxCell%2520id%253D%25220%2522%252F%253E%253CmxCell%2520id%253D%25221%2522%2520parent%253D%25220%2522%252F%253E%253CmxCell%2520id%253D%25222%2522%2520value%253D%2522%2522%2520style%253D%2522whiteSpace%253Dwrap%253Bhtml%253D1%253Baspect%253Dfixed%253BlabelBackgroundColor%253Dnone%253BfillColor%253D%2523ffffff%253BgradientColor%253Dnone%253B%2522%2520vertex%253D%25221%2522%2520parent%253D%25221%2522%253E%253CmxGeometry%2520x%253D%252280%2522%2520y%253D%252270%2522%2520width%253D%2522190%2522%2520height%253D%2522190%2522%2520as%253D%2522geometry%2522%252F%253E%253C%252FmxCell%253E%253C%252Froot%253E%253C%252FmxGraphModel%253E%26lt%3B%2Fspan%26gt%3B%22%20style%3D%22text%3Bhtml%3D1%3Bresizable%3D0%3Bautosize%3D1%3Balign%3Dcenter%3BverticalAlign%3Dmiddle%3Bpoints%3D%5B%5D%3BfillColor%3Dnone%3BstrokeColor%3Dnone%3Brounded%3D0%3BlabelBackgroundColor%3Dnone%3B%22%20vertex%3D%221%22%20parent%3D%221%22%3E%3CmxGeometry%20x%3D%22-115%22%20y%3D%22510%22%20width%3D%2230%22%20height%3D%2220%22%20as%3D%22geometry%22%2F%3E%3C%2FmxCell%3E%3C%2Froot%3E%3C%2FmxGraphModel%3E&lt;/span&gt;" style="text;html=1;resizable=0;autosize=1;align=center;verticalAlign=middle;points=[];fillColor=none;strokeColor=none;rounded=0;labelBackgroundColor=none;" vertex="1" parent="J4WyRTijxJQLKeOuPQXG-1">
          <mxGeometry x="2424" y="385" width="40" height="20" as="geometry" />
        </mxCell>
        <mxCell id="mnO0MgvImo8i3oPbmCI_-37" value="DN4&lt;span style=&quot;color: rgba(0 , 0 , 0 , 0) ; font-family: monospace ; font-size: 0px&quot;&gt;%3CmxGraphModel%3E%3Croot%3E%3CmxCell%20id%3D%220%22%2F%3E%3CmxCell%20id%3D%221%22%20parent%3D%220%22%2F%3E%3CmxCell%20id%3D%222%22%20value%3D%221A%26lt%3Bspan%20style%3D%26quot%3Bcolor%3A%20rgba(0%20%2C%200%20%2C%200%20%2C%200)%20%3B%20font-family%3A%20monospace%20%3B%20font-size%3A%200px%26quot%3B%26gt%3B%253CmxGraphModel%253E%253Croot%253E%253CmxCell%2520id%253D%25220%2522%252F%253E%253CmxCell%2520id%253D%25221%2522%2520parent%253D%25220%2522%252F%253E%253CmxCell%2520id%253D%25222%2522%2520value%253D%2522%2522%2520style%253D%2522whiteSpace%253Dwrap%253Bhtml%253D1%253Baspect%253Dfixed%253BlabelBackgroundColor%253Dnone%253BfillColor%253D%2523ffffff%253BgradientColor%253Dnone%253B%2522%2520vertex%253D%25221%2522%2520parent%253D%25221%2522%253E%253CmxGeometry%2520x%253D%252280%2522%2520y%253D%252270%2522%2520width%253D%2522190%2522%2520height%253D%2522190%2522%2520as%253D%2522geometry%2522%252F%253E%253C%252FmxCell%253E%253C%252Froot%253E%253C%252FmxGraphModel%253E%26lt%3B%2Fspan%26gt%3B%22%20style%3D%22text%3Bhtml%3D1%3Bresizable%3D0%3Bautosize%3D1%3Balign%3Dcenter%3BverticalAlign%3Dmiddle%3Bpoints%3D%5B%5D%3BfillColor%3Dnone%3BstrokeColor%3Dnone%3Brounded%3D0%3BlabelBackgroundColor%3Dnone%3B%22%20vertex%3D%221%22%20parent%3D%221%22%3E%3CmxGeometry%20x%3D%22-115%22%20y%3D%22510%22%20width%3D%2230%22%20height%3D%2220%22%20as%3D%22geometry%22%2F%3E%3C%2FmxCell%3E%3C%2Froot%3E%3C%2FmxGraphModel%3E&lt;/span&gt;" style="text;html=1;resizable=0;autosize=1;align=center;verticalAlign=middle;points=[];fillColor=none;strokeColor=none;rounded=0;labelBackgroundColor=none;" vertex="1" parent="J4WyRTijxJQLKeOuPQXG-1">
          <mxGeometry x="2499" y="385" width="40" height="20" as="geometry" />
        </mxCell>
        <mxCell id="mnO0MgvImo8i3oPbmCI_-38" value="SN4&lt;span style=&quot;color: rgba(0 , 0 , 0 , 0) ; font-family: monospace ; font-size: 0px&quot;&gt;%3CmxGraphModel%3E%3Croot%3E%3CmxCell%20id%3D%220%22%2F%3E%3CmxCell%20id%3D%221%22%20parent%3D%220%22%2F%3E%3CmxCell%20id%3D%222%22%20value%3D%221A%26lt%3Bspan%20style%3D%26quot%3Bcolor%3A%20rgba(0%20%2C%200%20%2C%200%20%2C%200)%20%3B%20font-family%3A%20monospace%20%3B%20font-size%3A%200px%26quot%3B%26gt%3B%253CmxGraphModel%253E%253Croot%253E%253CmxCell%2520id%253D%25220%2522%252F%253E%253CmxCell%2520id%253D%25221%2522%2520parent%253D%25220%2522%252F%253E%253CmxCell%2520id%253D%25222%2522%2520value%253D%2522%2522%2520style%253D%2522whiteSpace%253Dwrap%253Bhtml%253D1%253Baspect%253Dfixed%253BlabelBackgroundColor%253Dnone%253BfillColor%253D%2523ffffff%253BgradientColor%253Dnone%253B%2522%2520vertex%253D%25221%2522%2520parent%253D%25221%2522%253E%253CmxGeometry%2520x%253D%252280%2522%2520y%253D%252270%2522%2520width%253D%2522190%2522%2520height%253D%2522190%2522%2520as%253D%2522geometry%2522%252F%253E%253C%252FmxCell%253E%253C%252Froot%253E%253C%252FmxGraphModel%253E%26lt%3B%2Fspan%26gt%3B%22%20style%3D%22text%3Bhtml%3D1%3Bresizable%3D0%3Bautosize%3D1%3Balign%3Dcenter%3BverticalAlign%3Dmiddle%3Bpoints%3D%5B%5D%3BfillColor%3Dnone%3BstrokeColor%3Dnone%3Brounded%3D0%3BlabelBackgroundColor%3Dnone%3B%22%20vertex%3D%221%22%20parent%3D%221%22%3E%3CmxGeometry%20x%3D%22-115%22%20y%3D%22510%22%20width%3D%2230%22%20height%3D%2220%22%20as%3D%22geometry%22%2F%3E%3C%2FmxCell%3E%3C%2Froot%3E%3C%2FmxGraphModel%3E&lt;/span&gt;" style="text;html=1;resizable=0;autosize=1;align=center;verticalAlign=middle;points=[];fillColor=none;strokeColor=none;rounded=0;labelBackgroundColor=none;" vertex="1" parent="J4WyRTijxJQLKeOuPQXG-1">
          <mxGeometry x="2574" y="385" width="40" height="20" as="geometry" />
        </mxCell>
        <mxCell id="mnO0MgvImo8i3oPbmCI_-39" value="GP2&lt;span style=&quot;color: rgba(0 , 0 , 0 , 0) ; font-family: monospace ; font-size: 0px&quot;&gt;%3CmxGraphModel%3E%3Croot%3E%3CmxCell%20id%3D%220%22%2F%3E%3CmxCell%20id%3D%221%22%20parent%3D%220%22%2F%3E%3CmxCell%20id%3D%222%22%20value%3D%221A%26lt%3Bspan%20style%3D%26quot%3Bcolor%3A%20rgba(0%20%2C%200%20%2C%200%20%2C%200)%20%3B%20font-family%3A%20monospace%20%3B%20font-size%3A%200px%26quot%3B%26gt%3B%253CmxGraphModel%253E%253Croot%253E%253CmxCell%2520id%253D%25220%2522%252F%253E%253CmxCell%2520id%253D%25221%2522%2520parent%253D%25220%2522%252F%253E%253CmxCell%2520id%253D%25222%2522%2520value%253D%2522%2522%2520style%253D%2522whiteSpace%253Dwrap%253Bhtml%253D1%253Baspect%253Dfixed%253BlabelBackgroundColor%253Dnone%253BfillColor%253D%2523ffffff%253BgradientColor%253Dnone%253B%2522%2520vertex%253D%25221%2522%2520parent%253D%25221%2522%253E%253CmxGeometry%2520x%253D%252280%2522%2520y%253D%252270%2522%2520width%253D%2522190%2522%2520height%253D%2522190%2522%2520as%253D%2522geometry%2522%252F%253E%253C%252FmxCell%253E%253C%252Froot%253E%253C%252FmxGraphModel%253E%26lt%3B%2Fspan%26gt%3B%22%20style%3D%22text%3Bhtml%3D1%3Bresizable%3D0%3Bautosize%3D1%3Balign%3Dcenter%3BverticalAlign%3Dmiddle%3Bpoints%3D%5B%5D%3BfillColor%3Dnone%3BstrokeColor%3Dnone%3Brounded%3D0%3BlabelBackgroundColor%3Dnone%3B%22%20vertex%3D%221%22%20parent%3D%221%22%3E%3CmxGeometry%20x%3D%22-115%22%20y%3D%22510%22%20width%3D%2230%22%20height%3D%2220%22%20as%3D%22geometry%22%2F%3E%3C%2FmxCell%3E%3C%2Froot%3E%3C%2FmxGraphModel%3E&lt;/span&gt;" style="text;html=1;resizable=0;autosize=1;align=center;verticalAlign=middle;points=[];fillColor=none;strokeColor=none;rounded=0;labelBackgroundColor=none;" vertex="1" parent="J4WyRTijxJQLKeOuPQXG-1">
          <mxGeometry x="1724" y="745" width="40" height="20" as="geometry" />
        </mxCell>
        <mxCell id="mnO0MgvImo8i3oPbmCI_-40" value="DP2&lt;span style=&quot;color: rgba(0 , 0 , 0 , 0) ; font-family: monospace ; font-size: 0px&quot;&gt;%3CmxGraphModel%3E%3Croot%3E%3CmxCell%20id%3D%220%22%2F%3E%3CmxCell%20id%3D%221%22%20parent%3D%220%22%2F%3E%3CmxCell%20id%3D%222%22%20value%3D%221A%26lt%3Bspan%20style%3D%26quot%3Bcolor%3A%20rgba(0%20%2C%200%20%2C%200%20%2C%200)%20%3B%20font-family%3A%20monospace%20%3B%20font-size%3A%200px%26quot%3B%26gt%3B%253CmxGraphModel%253E%253Croot%253E%253CmxCell%2520id%253D%25220%2522%252F%253E%253CmxCell%2520id%253D%25221%2522%2520parent%253D%25220%2522%252F%253E%253CmxCell%2520id%253D%25222%2522%2520value%253D%2522%2522%2520style%253D%2522whiteSpace%253Dwrap%253Bhtml%253D1%253Baspect%253Dfixed%253BlabelBackgroundColor%253Dnone%253BfillColor%253D%2523ffffff%253BgradientColor%253Dnone%253B%2522%2520vertex%253D%25221%2522%2520parent%253D%25221%2522%253E%253CmxGeometry%2520x%253D%252280%2522%2520y%253D%252270%2522%2520width%253D%2522190%2522%2520height%253D%2522190%2522%2520as%253D%2522geometry%2522%252F%253E%253C%252FmxCell%253E%253C%252Froot%253E%253C%252FmxGraphModel%253E%26lt%3B%2Fspan%26gt%3B%22%20style%3D%22text%3Bhtml%3D1%3Bresizable%3D0%3Bautosize%3D1%3Balign%3Dcenter%3BverticalAlign%3Dmiddle%3Bpoints%3D%5B%5D%3BfillColor%3Dnone%3BstrokeColor%3Dnone%3Brounded%3D0%3BlabelBackgroundColor%3Dnone%3B%22%20vertex%3D%221%22%20parent%3D%221%22%3E%3CmxGeometry%20x%3D%22-115%22%20y%3D%22510%22%20width%3D%2230%22%20height%3D%2220%22%20as%3D%22geometry%22%2F%3E%3C%2FmxCell%3E%3C%2Froot%3E%3C%2FmxGraphModel%3E&lt;/span&gt;" style="text;html=1;resizable=0;autosize=1;align=center;verticalAlign=middle;points=[];fillColor=none;strokeColor=none;rounded=0;labelBackgroundColor=none;" vertex="1" parent="J4WyRTijxJQLKeOuPQXG-1">
          <mxGeometry x="1799" y="745" width="40" height="20" as="geometry" />
        </mxCell>
        <mxCell id="mnO0MgvImo8i3oPbmCI_-41" value="SP2&lt;span style=&quot;color: rgba(0 , 0 , 0 , 0) ; font-family: monospace ; font-size: 0px&quot;&gt;%3CmxGraphModel%3E%3Croot%3E%3CmxCell%20id%3D%220%22%2F%3E%3CmxCell%20id%3D%221%22%20parent%3D%220%22%2F%3E%3CmxCell%20id%3D%222%22%20value%3D%221A%26lt%3Bspan%20style%3D%26quot%3Bcolor%3A%20rgba(0%20%2C%200%20%2C%200%20%2C%200)%20%3B%20font-family%3A%20monospace%20%3B%20font-size%3A%200px%26quot%3B%26gt%3B%253CmxGraphModel%253E%253Croot%253E%253CmxCell%2520id%253D%25220%2522%252F%253E%253CmxCell%2520id%253D%25221%2522%2520parent%253D%25220%2522%252F%253E%253CmxCell%2520id%253D%25222%2522%2520value%253D%2522%2522%2520style%253D%2522whiteSpace%253Dwrap%253Bhtml%253D1%253Baspect%253Dfixed%253BlabelBackgroundColor%253Dnone%253BfillColor%253D%2523ffffff%253BgradientColor%253Dnone%253B%2522%2520vertex%253D%25221%2522%2520parent%253D%25221%2522%253E%253CmxGeometry%2520x%253D%252280%2522%2520y%253D%252270%2522%2520width%253D%2522190%2522%2520height%253D%2522190%2522%2520as%253D%2522geometry%2522%252F%253E%253C%252FmxCell%253E%253C%252Froot%253E%253C%252FmxGraphModel%253E%26lt%3B%2Fspan%26gt%3B%22%20style%3D%22text%3Bhtml%3D1%3Bresizable%3D0%3Bautosize%3D1%3Balign%3Dcenter%3BverticalAlign%3Dmiddle%3Bpoints%3D%5B%5D%3BfillColor%3Dnone%3BstrokeColor%3Dnone%3Brounded%3D0%3BlabelBackgroundColor%3Dnone%3B%22%20vertex%3D%221%22%20parent%3D%221%22%3E%3CmxGeometry%20x%3D%22-115%22%20y%3D%22510%22%20width%3D%2230%22%20height%3D%2220%22%20as%3D%22geometry%22%2F%3E%3C%2FmxCell%3E%3C%2Froot%3E%3C%2FmxGraphModel%3E&lt;/span&gt;" style="text;html=1;resizable=0;autosize=1;align=center;verticalAlign=middle;points=[];fillColor=none;strokeColor=none;rounded=0;labelBackgroundColor=none;" vertex="1" parent="J4WyRTijxJQLKeOuPQXG-1">
          <mxGeometry x="1874" y="745" width="40" height="20" as="geometry" />
        </mxCell>
        <mxCell id="mnO0MgvImo8i3oPbmCI_-42" value="GP3&lt;span style=&quot;color: rgba(0 , 0 , 0 , 0) ; font-family: monospace ; font-size: 0px&quot;&gt;%3CmxGraphModel%3E%3Croot%3E%3CmxCell%20id%3D%220%22%2F%3E%3CmxCell%20id%3D%221%22%20parent%3D%220%22%2F%3E%3CmxCell%20id%3D%222%22%20value%3D%221A%26lt%3Bspan%20style%3D%26quot%3Bcolor%3A%20rgba(0%20%2C%200%20%2C%200%20%2C%200)%20%3B%20font-family%3A%20monospace%20%3B%20font-size%3A%200px%26quot%3B%26gt%3B%253CmxGraphModel%253E%253Croot%253E%253CmxCell%2520id%253D%25220%2522%252F%253E%253CmxCell%2520id%253D%25221%2522%2520parent%253D%25220%2522%252F%253E%253CmxCell%2520id%253D%25222%2522%2520value%253D%2522%2522%2520style%253D%2522whiteSpace%253Dwrap%253Bhtml%253D1%253Baspect%253Dfixed%253BlabelBackgroundColor%253Dnone%253BfillColor%253D%2523ffffff%253BgradientColor%253Dnone%253B%2522%2520vertex%253D%25221%2522%2520parent%253D%25221%2522%253E%253CmxGeometry%2520x%253D%252280%2522%2520y%253D%252270%2522%2520width%253D%2522190%2522%2520height%253D%2522190%2522%2520as%253D%2522geometry%2522%252F%253E%253C%252FmxCell%253E%253C%252Froot%253E%253C%252FmxGraphModel%253E%26lt%3B%2Fspan%26gt%3B%22%20style%3D%22text%3Bhtml%3D1%3Bresizable%3D0%3Bautosize%3D1%3Balign%3Dcenter%3BverticalAlign%3Dmiddle%3Bpoints%3D%5B%5D%3BfillColor%3Dnone%3BstrokeColor%3Dnone%3Brounded%3D0%3BlabelBackgroundColor%3Dnone%3B%22%20vertex%3D%221%22%20parent%3D%221%22%3E%3CmxGeometry%20x%3D%22-115%22%20y%3D%22510%22%20width%3D%2230%22%20height%3D%2220%22%20as%3D%22geometry%22%2F%3E%3C%2FmxCell%3E%3C%2Froot%3E%3C%2FmxGraphModel%3E&lt;/span&gt;" style="text;html=1;resizable=0;autosize=1;align=center;verticalAlign=middle;points=[];fillColor=none;strokeColor=none;rounded=0;labelBackgroundColor=none;" vertex="1" parent="J4WyRTijxJQLKeOuPQXG-1">
          <mxGeometry x="2164" y="745" width="40" height="20" as="geometry" />
        </mxCell>
        <mxCell id="mnO0MgvImo8i3oPbmCI_-43" value="DP3" style="text;html=1;resizable=0;autosize=1;align=center;verticalAlign=middle;points=[];fillColor=none;strokeColor=none;rounded=0;labelBackgroundColor=none;" vertex="1" parent="J4WyRTijxJQLKeOuPQXG-1">
          <mxGeometry x="2239" y="745" width="40" height="20" as="geometry" />
        </mxCell>
        <mxCell id="mnO0MgvImo8i3oPbmCI_-44" value="SP3&lt;span style=&quot;color: rgba(0 , 0 , 0 , 0) ; font-family: monospace ; font-size: 0px&quot;&gt;%3CmxGraphModel%3E%3Croot%3E%3CmxCell%20id%3D%220%22%2F%3E%3CmxCell%20id%3D%221%22%20parent%3D%220%22%2F%3E%3CmxCell%20id%3D%222%22%20value%3D%221A%26lt%3Bspan%20style%3D%26quot%3Bcolor%3A%20rgba(0%20%2C%200%20%2C%200%20%2C%200)%20%3B%20font-family%3A%20monospace%20%3B%20font-size%3A%200px%26quot%3B%26gt%3B%253CmxGraphModel%253E%253Croot%253E%253CmxCell%2520id%253D%25220%2522%252F%253E%253CmxCell%2520id%253D%25221%2522%2520parent%253D%25220%2522%252F%253E%253CmxCell%2520id%253D%25222%2522%2520value%253D%2522%2522%2520style%253D%2522whiteSpace%253Dwrap%253Bhtml%253D1%253Baspect%253Dfixed%253BlabelBackgroundColor%253Dnone%253BfillColor%253D%2523ffffff%253BgradientColor%253Dnone%253B%2522%2520vertex%253D%25221%2522%2520parent%253D%25221%2522%253E%253CmxGeometry%2520x%253D%252280%2522%2520y%253D%252270%2522%2520width%253D%2522190%2522%2520height%253D%2522190%2522%2520as%253D%2522geometry%2522%252F%253E%253C%252FmxCell%253E%253C%252Froot%253E%253C%252FmxGraphModel%253E%26lt%3B%2Fspan%26gt%3B%22%20style%3D%22text%3Bhtml%3D1%3Bresizable%3D0%3Bautosize%3D1%3Balign%3Dcenter%3BverticalAlign%3Dmiddle%3Bpoints%3D%5B%5D%3BfillColor%3Dnone%3BstrokeColor%3Dnone%3Brounded%3D0%3BlabelBackgroundColor%3Dnone%3B%22%20vertex%3D%221%22%20parent%3D%221%22%3E%3CmxGeometry%20x%3D%22-115%22%20y%3D%22510%22%20width%3D%2230%22%20height%3D%2220%22%20as%3D%22geometry%22%2F%3E%3C%2FmxCell%3E%3C%2Froot%3E%3C%2FmxGraphModel%3E&lt;/span&gt;" style="text;html=1;resizable=0;autosize=1;align=center;verticalAlign=middle;points=[];fillColor=none;strokeColor=none;rounded=0;labelBackgroundColor=none;" vertex="1" parent="J4WyRTijxJQLKeOuPQXG-1">
          <mxGeometry x="2314" y="745" width="40" height="20" as="geometry" />
        </mxCell>
        <mxCell id="mnO0MgvImo8i3oPbmCI_-45" value="GP4&lt;span style=&quot;color: rgba(0 , 0 , 0 , 0) ; font-family: monospace ; font-size: 0px&quot;&gt;%3CmxGraphModel%3E%3Croot%3E%3CmxCell%20id%3D%220%22%2F%3E%3CmxCell%20id%3D%221%22%20parent%3D%220%22%2F%3E%3CmxCell%20id%3D%222%22%20value%3D%221A%26lt%3Bspan%20style%3D%26quot%3Bcolor%3A%20rgba(0%20%2C%200%20%2C%200%20%2C%200)%20%3B%20font-family%3A%20monospace%20%3B%20font-size%3A%200px%26quot%3B%26gt%3B%253CmxGraphModel%253E%253Croot%253E%253CmxCell%2520id%253D%25220%2522%252F%253E%253CmxCell%2520id%253D%25221%2522%2520parent%253D%25220%2522%252F%253E%253CmxCell%2520id%253D%25222%2522%2520value%253D%2522%2522%2520style%253D%2522whiteSpace%253Dwrap%253Bhtml%253D1%253Baspect%253Dfixed%253BlabelBackgroundColor%253Dnone%253BfillColor%253D%2523ffffff%253BgradientColor%253Dnone%253B%2522%2520vertex%253D%25221%2522%2520parent%253D%25221%2522%253E%253CmxGeometry%2520x%253D%252280%2522%2520y%253D%252270%2522%2520width%253D%2522190%2522%2520height%253D%2522190%2522%2520as%253D%2522geometry%2522%252F%253E%253C%252FmxCell%253E%253C%252Froot%253E%253C%252FmxGraphModel%253E%26lt%3B%2Fspan%26gt%3B%22%20style%3D%22text%3Bhtml%3D1%3Bresizable%3D0%3Bautosize%3D1%3Balign%3Dcenter%3BverticalAlign%3Dmiddle%3Bpoints%3D%5B%5D%3BfillColor%3Dnone%3BstrokeColor%3Dnone%3Brounded%3D0%3BlabelBackgroundColor%3Dnone%3B%22%20vertex%3D%221%22%20parent%3D%221%22%3E%3CmxGeometry%20x%3D%22-115%22%20y%3D%22510%22%20width%3D%2230%22%20height%3D%2220%22%20as%3D%22geometry%22%2F%3E%3C%2FmxCell%3E%3C%2Froot%3E%3C%2FmxGraphModel%3E&lt;/span&gt;" style="text;html=1;resizable=0;autosize=1;align=center;verticalAlign=middle;points=[];fillColor=none;strokeColor=none;rounded=0;labelBackgroundColor=none;" vertex="1" parent="J4WyRTijxJQLKeOuPQXG-1">
          <mxGeometry x="2569" y="745" width="40" height="20" as="geometry" />
        </mxCell>
        <mxCell id="mnO0MgvImo8i3oPbmCI_-46" value="DP4" style="text;html=1;resizable=0;autosize=1;align=center;verticalAlign=middle;points=[];fillColor=none;strokeColor=none;rounded=0;labelBackgroundColor=none;" vertex="1" parent="J4WyRTijxJQLKeOuPQXG-1">
          <mxGeometry x="2644" y="745" width="40" height="20" as="geometry" />
        </mxCell>
        <mxCell id="mnO0MgvImo8i3oPbmCI_-47" value="SP4" style="text;html=1;resizable=0;autosize=1;align=center;verticalAlign=middle;points=[];fillColor=none;strokeColor=none;rounded=0;labelBackgroundColor=none;" vertex="1" parent="J4WyRTijxJQLKeOuPQXG-1">
          <mxGeometry x="2719" y="745" width="40" height="20" as="geometry" />
        </mxCell>
        <mxCell id="mnO0MgvImo8i3oPbmCI_-48" value="&lt;font style=&quot;font-size: 33px&quot;&gt;-&lt;/font&gt;" style="rounded=0;whiteSpace=wrap;html=1;labelBackgroundColor=none;fillColor=#647687;strokeColor=#314354;fontColor=#ffffff;" vertex="1" parent="J4WyRTijxJQLKeOuPQXG-1">
          <mxGeometry x="1344" y="65" width="1340" height="60" as="geometry" />
        </mxCell>
        <mxCell id="mnO0MgvImo8i3oPbmCI_-49" value="&lt;font style=&quot;font-size: 33px&quot;&gt;+&lt;/font&gt;" style="rounded=0;whiteSpace=wrap;html=1;labelBackgroundColor=none;fillColor=#e51400;strokeColor=#B20000;fontColor=#ffffff;" vertex="1" parent="J4WyRTijxJQLKeOuPQXG-1">
          <mxGeometry x="1354" y="1005" width="1340" height="60" as="geometry" />
        </mxCell>
        <mxCell id="mnO0MgvImo8i3oPbmCI_-50" style="edgeStyle=orthogonalEdgeStyle;rounded=1;orthogonalLoop=1;jettySize=auto;html=1;exitX=0.75;exitY=1;exitDx=0;exitDy=0;entryX=0.25;entryY=0;entryDx=0;entryDy=0;endArrow=none;endFill=0;fillColor=#e51400;strokeColor=#B20000;" edge="1" parent="J4WyRTijxJQLKeOuPQXG-1" source="mnO0MgvImo8i3oPbmCI_-51" target="mnO0MgvImo8i3oPbmCI_-49">
          <mxGeometry relative="1" as="geometry" />
        </mxCell>
        <mxCell id="mnO0MgvImo8i3oPbmCI_-51" value="" style="shape=image;html=1;verticalAlign=top;verticalLabelPosition=bottom;labelBackgroundColor=#ffffff;imageAspect=0;aspect=fixed;image=https://cdn2.iconfinder.com/data/icons/electronic-13/480/6-electronic-led-icon-2-128.png;fillColor=#ffffff;gradientColor=none;imageBackground=#9933FF;" vertex="1" parent="J4WyRTijxJQLKeOuPQXG-1">
          <mxGeometry x="1444" y="235" width="130" height="130" as="geometry" />
        </mxCell>
        <mxCell id="mnO0MgvImo8i3oPbmCI_-54" style="edgeStyle=orthogonalEdgeStyle;rounded=1;orthogonalLoop=1;jettySize=auto;html=1;exitX=0;exitY=0.5;exitDx=0;exitDy=0;exitPerimeter=0;entryX=0;entryY=0.75;entryDx=0;entryDy=0;endArrow=none;endFill=0;fillColor=#b0e3e6;strokeColor=#0e8088;" edge="1" parent="J4WyRTijxJQLKeOuPQXG-1" source="mnO0MgvImo8i3oPbmCI_-55" target="mnO0MgvImo8i3oPbmCI_-48">
          <mxGeometry relative="1" as="geometry" />
        </mxCell>
        <mxCell id="mnO0MgvImo8i3oPbmCI_-55" value="" style="pointerEvents=1;verticalLabelPosition=bottom;shadow=0;dashed=0;align=center;html=1;verticalAlign=top;shape=mxgraph.electrical.resistors.resistor_1;labelBackgroundColor=none;fillColor=#fad7ac;strokeColor=#b46504;" vertex="1" parent="J4WyRTijxJQLKeOuPQXG-1">
          <mxGeometry x="1184" y="465" width="100" height="20" as="geometry" />
        </mxCell>
        <mxCell id="mnO0MgvImo8i3oPbmCI_-56" style="edgeStyle=orthogonalEdgeStyle;rounded=1;orthogonalLoop=1;jettySize=auto;html=1;exitX=0;exitY=0.5;exitDx=0;exitDy=0;exitPerimeter=0;entryX=0;entryY=0.25;entryDx=0;entryDy=0;endArrow=none;endFill=0;fillColor=#b0e3e6;strokeColor=#0e8088;" edge="1" parent="J4WyRTijxJQLKeOuPQXG-1" source="mnO0MgvImo8i3oPbmCI_-57" target="mnO0MgvImo8i3oPbmCI_-48">
          <mxGeometry relative="1" as="geometry" />
        </mxCell>
        <mxCell id="mnO0MgvImo8i3oPbmCI_-57" value="" style="pointerEvents=1;verticalLabelPosition=bottom;shadow=0;dashed=0;align=center;html=1;verticalAlign=top;shape=mxgraph.electrical.resistors.resistor_1;labelBackgroundColor=none;fillColor=#fad7ac;strokeColor=#b46504;" vertex="1" parent="J4WyRTijxJQLKeOuPQXG-1">
          <mxGeometry x="1184" y="500" width="100" height="20" as="geometry" />
        </mxCell>
        <mxCell id="mnO0MgvImo8i3oPbmCI_-58" style="edgeStyle=orthogonalEdgeStyle;rounded=1;orthogonalLoop=1;jettySize=auto;html=1;exitX=0;exitY=0.5;exitDx=0;exitDy=0;exitPerimeter=0;entryX=0;entryY=0;entryDx=0;entryDy=0;endArrow=none;endFill=0;fillColor=#b0e3e6;strokeColor=#0e8088;" edge="1" parent="J4WyRTijxJQLKeOuPQXG-1" source="mnO0MgvImo8i3oPbmCI_-59" target="mnO0MgvImo8i3oPbmCI_-48">
          <mxGeometry relative="1" as="geometry" />
        </mxCell>
        <mxCell id="mnO0MgvImo8i3oPbmCI_-59" value="" style="pointerEvents=1;verticalLabelPosition=bottom;shadow=0;dashed=0;align=center;html=1;verticalAlign=top;shape=mxgraph.electrical.resistors.resistor_1;labelBackgroundColor=none;fillColor=#fad7ac;strokeColor=#b46504;" vertex="1" parent="J4WyRTijxJQLKeOuPQXG-1">
          <mxGeometry x="1184" y="535" width="100" height="20" as="geometry" />
        </mxCell>
        <mxCell id="VCUcHQJIPQ6F4fd3T0YX-0" style="edgeStyle=orthogonalEdgeStyle;rounded=1;orthogonalLoop=1;jettySize=auto;html=1;exitX=1;exitY=0.5;exitDx=0;exitDy=0;exitPerimeter=0;entryX=1;entryY=0.45;entryDx=0;entryDy=0;endArrow=none;endFill=0;entryPerimeter=0;fillColor=#76608a;strokeColor=#432D57;" edge="1" parent="J4WyRTijxJQLKeOuPQXG-1" source="mnO0MgvImo8i3oPbmCI_-60" target="VCUcHQJIPQ6F4fd3T0YX-1">
          <mxGeometry relative="1" as="geometry">
            <Array as="points">
              <mxPoint x="1484" y="485" />
              <mxPoint x="840" y="485" />
              <mxPoint x="840" y="470" />
              <mxPoint x="250" y="470" />
            </Array>
          </mxGeometry>
        </mxCell>
        <mxCell id="mnO0MgvImo8i3oPbmCI_-60" value="" style="pointerEvents=1;verticalLabelPosition=bottom;shadow=0;dashed=0;align=center;html=1;verticalAlign=top;shape=mxgraph.electrical.resistors.resistor_1;labelBackgroundColor=none;fillColor=#fad7ac;rotation=90;strokeColor=#b46504;" vertex="1" parent="J4WyRTijxJQLKeOuPQXG-1">
          <mxGeometry x="1434" y="405" width="100" height="20" as="geometry" />
        </mxCell>
        <mxCell id="VCUcHQJIPQ6F4fd3T0YX-1" value="2B" style="text;html=1;resizable=0;autosize=1;align=center;verticalAlign=middle;points=[];fillColor=none;strokeColor=none;rounded=0;" vertex="1" parent="J4WyRTijxJQLKeOuPQXG-1">
          <mxGeometry x="220" y="465" width="30" height="20" as="geometry" />
        </mxCell>
        <mxCell id="VCUcHQJIPQ6F4fd3T0YX-2" value="3C" style="text;html=1;resizable=0;autosize=1;align=center;verticalAlign=middle;points=[];fillColor=none;strokeColor=none;rounded=0;" vertex="1" parent="J4WyRTijxJQLKeOuPQXG-1">
          <mxGeometry x="220" y="510" width="30" height="20" as="geometry" />
        </mxCell>
        <mxCell id="VCUcHQJIPQ6F4fd3T0YX-7" value="Text" style="text;html=1;resizable=0;autosize=1;align=center;verticalAlign=middle;points=[];fillColor=none;strokeColor=none;rounded=0;labelBackgroundColor=none;" vertex="1" parent="J4WyRTijxJQLKeOuPQXG-1">
          <mxGeometry x="1360" y="230" width="40" height="20" as="geometry" />
        </mxCell>
        <mxCell id="VCUcHQJIPQ6F4fd3T0YX-8" value="&lt;span style=&quot;font-size: 32px&quot;&gt;3 input AND Gate&lt;/span&gt;" style="text;html=1;align=center;verticalAlign=middle;resizable=0;points=[];autosize=1;" vertex="1" parent="J4WyRTijxJQLKeOuPQXG-1">
          <mxGeometry x="930" y="15" width="260" height="30" as="geometry" />
        </mxCell>
      </root>
    </mxGraphModel>
  </diagram>
  <diagram id="-t50c6-syMm1Wq8p0O3H" name="Page-5">
    <mxGraphModel dx="3588" dy="1588" grid="1" gridSize="10" guides="1" tooltips="1" connect="1" arrows="1" fold="1" page="1" pageScale="1" pageWidth="850" pageHeight="1100" math="0" shadow="0">
      <root>
        <mxCell id="g7cslghauontFsTtZmnU-0" />
        <mxCell id="g7cslghauontFsTtZmnU-1" parent="g7cslghauontFsTtZmnU-0" />
        <mxCell id="hyZmw8ULxHdDLeU8Xs7D-0" style="edgeStyle=orthogonalEdgeStyle;rounded=0;orthogonalLoop=1;jettySize=auto;html=1;exitX=1;exitY=0.25;exitDx=0;exitDy=0;entryX=0.15;entryY=1;entryDx=0;entryDy=0;entryPerimeter=0;endArrow=none;endFill=0;" edge="1" parent="g7cslghauontFsTtZmnU-1" source="hyZmw8ULxHdDLeU8Xs7D-2" target="hyZmw8ULxHdDLeU8Xs7D-7">
          <mxGeometry relative="1" as="geometry" />
        </mxCell>
        <mxCell id="hyZmw8ULxHdDLeU8Xs7D-1" style="edgeStyle=none;rounded=0;orthogonalLoop=1;jettySize=auto;html=1;exitX=0.75;exitY=0;exitDx=0;exitDy=0;entryX=0.192;entryY=0.967;entryDx=0;entryDy=0;entryPerimeter=0;endArrow=none;endFill=0;" edge="1" parent="g7cslghauontFsTtZmnU-1" source="hyZmw8ULxHdDLeU8Xs7D-2" target="hyZmw8ULxHdDLeU8Xs7D-14">
          <mxGeometry relative="1" as="geometry" />
        </mxCell>
        <mxCell id="hyZmw8ULxHdDLeU8Xs7D-2" value="switch" style="whiteSpace=wrap;html=1;aspect=fixed;fillColor=#dae8fc;strokeColor=#6c8ebf;" vertex="1" parent="g7cslghauontFsTtZmnU-1">
          <mxGeometry x="120" y="400" width="130" height="130" as="geometry" />
        </mxCell>
        <mxCell id="hyZmw8ULxHdDLeU8Xs7D-3" value="" style="endArrow=none;html=1;entryX=0.025;entryY=0.55;entryDx=0;entryDy=0;entryPerimeter=0;" edge="1" parent="g7cslghauontFsTtZmnU-1" target="hyZmw8ULxHdDLeU8Xs7D-6">
          <mxGeometry width="50" height="50" relative="1" as="geometry">
            <mxPoint x="250" y="430" as="sourcePoint" />
            <mxPoint x="330" y="430" as="targetPoint" />
          </mxGeometry>
        </mxCell>
        <mxCell id="hyZmw8ULxHdDLeU8Xs7D-4" value="1A" style="text;html=1;resizable=0;autosize=1;align=center;verticalAlign=middle;points=[];fillColor=none;strokeColor=none;rounded=0;" vertex="1" parent="g7cslghauontFsTtZmnU-1">
          <mxGeometry x="220" y="425" width="30" height="20" as="geometry" />
        </mxCell>
        <mxCell id="hyZmw8ULxHdDLeU8Xs7D-5" value="PMOS" style="whiteSpace=wrap;html=1;aspect=fixed;fillColor=#d5e8d4;strokeColor=#82b366;" vertex="1" parent="g7cslghauontFsTtZmnU-1">
          <mxGeometry x="420" y="230" width="140" height="140" as="geometry" />
        </mxCell>
        <mxCell id="hyZmw8ULxHdDLeU8Xs7D-6" value="GP1" style="text;html=1;resizable=0;autosize=1;align=center;verticalAlign=middle;points=[];fillColor=none;strokeColor=none;rounded=0;" vertex="1" parent="g7cslghauontFsTtZmnU-1">
          <mxGeometry x="420" y="270" width="40" height="20" as="geometry" />
        </mxCell>
        <mxCell id="hyZmw8ULxHdDLeU8Xs7D-7" value="NMOS" style="whiteSpace=wrap;html=1;aspect=fixed;fillColor=#fff2cc;strokeColor=#d6b656;" vertex="1" parent="g7cslghauontFsTtZmnU-1">
          <mxGeometry x="630" y="250" width="140" height="140" as="geometry" />
        </mxCell>
        <mxCell id="hyZmw8ULxHdDLeU8Xs7D-8" value="GN1" style="text;html=1;resizable=0;autosize=1;align=center;verticalAlign=middle;points=[];fillColor=none;strokeColor=none;rounded=0;" vertex="1" parent="g7cslghauontFsTtZmnU-1">
          <mxGeometry x="630" y="370" width="40" height="20" as="geometry" />
        </mxCell>
        <mxCell id="hyZmw8ULxHdDLeU8Xs7D-9" style="edgeStyle=orthogonalEdgeStyle;rounded=0;orthogonalLoop=1;jettySize=auto;html=1;entryX=0;entryY=0.5;entryDx=0;entryDy=0;entryPerimeter=0;endArrow=none;endFill=0;fillColor=#f8cecc;strokeColor=#b85450;exitX=0.007;exitY=0.679;exitDx=0;exitDy=0;exitPerimeter=0;" edge="1" parent="g7cslghauontFsTtZmnU-1" source="hyZmw8ULxHdDLeU8Xs7D-5" target="hyZmw8ULxHdDLeU8Xs7D-20">
          <mxGeometry relative="1" as="geometry">
            <mxPoint x="390" y="360" as="sourcePoint" />
            <Array as="points">
              <mxPoint x="421" y="320" />
              <mxPoint x="385" y="320" />
              <mxPoint x="385" y="370" />
              <mxPoint x="360" y="370" />
              <mxPoint x="360" y="500" />
              <mxPoint x="440" y="500" />
              <mxPoint x="440" y="640" />
              <mxPoint x="350" y="640" />
              <mxPoint x="350" y="670" />
            </Array>
          </mxGeometry>
        </mxCell>
        <mxCell id="hyZmw8ULxHdDLeU8Xs7D-10" value="DP1" style="text;html=1;resizable=0;autosize=1;align=center;verticalAlign=middle;points=[];fillColor=none;strokeColor=none;rounded=0;" vertex="1" parent="g7cslghauontFsTtZmnU-1">
          <mxGeometry x="420" y="310" width="40" height="20" as="geometry" />
        </mxCell>
        <mxCell id="hyZmw8ULxHdDLeU8Xs7D-11" value="" style="shape=image;html=1;verticalAlign=top;verticalLabelPosition=bottom;labelBackgroundColor=none;imageAspect=0;aspect=fixed;image=https://cdn2.iconfinder.com/data/icons/electronic-13/480/6-electronic-led-icon-2-128.png;labelBorderColor=none;imageBackground=#006666;" vertex="1" parent="g7cslghauontFsTtZmnU-1">
          <mxGeometry x="550" y="510" width="128" height="128" as="geometry" />
        </mxCell>
        <mxCell id="hyZmw8ULxHdDLeU8Xs7D-12" style="edgeStyle=orthogonalEdgeStyle;rounded=0;orthogonalLoop=1;jettySize=auto;html=1;exitX=0;exitY=0.5;exitDx=0;exitDy=0;exitPerimeter=0;entryX=0;entryY=0.25;entryDx=0;entryDy=0;endArrow=none;endFill=0;" edge="1" parent="g7cslghauontFsTtZmnU-1" source="hyZmw8ULxHdDLeU8Xs7D-13" target="hyZmw8ULxHdDLeU8Xs7D-15">
          <mxGeometry relative="1" as="geometry" />
        </mxCell>
        <mxCell id="hyZmw8ULxHdDLeU8Xs7D-13" value="" style="pointerEvents=1;verticalLabelPosition=bottom;shadow=0;dashed=0;align=center;html=1;verticalAlign=top;shape=mxgraph.electrical.resistors.resistor_1;fillColor=#ffe6cc;strokeColor=#d79b00;" vertex="1" parent="g7cslghauontFsTtZmnU-1">
          <mxGeometry x="20" y="415" width="100" height="20" as="geometry" />
        </mxCell>
        <mxCell id="hyZmw8ULxHdDLeU8Xs7D-14" value="&lt;font style=&quot;font-size: 30px&quot;&gt;+&lt;/font&gt;" style="rounded=0;whiteSpace=wrap;html=1;strokeColor=#B20000;fontColor=#ffffff;fillColor=#e51400;" vertex="1" parent="g7cslghauontFsTtZmnU-1">
          <mxGeometry x="30" y="80" width="1010" height="30" as="geometry" />
        </mxCell>
        <mxCell id="hyZmw8ULxHdDLeU8Xs7D-15" value="&lt;font style=&quot;font-size: 30px&quot;&gt;-&lt;/font&gt;" style="rounded=0;whiteSpace=wrap;html=1;strokeColor=#314354;fontColor=#ffffff;fillColor=#647687;" vertex="1" parent="g7cslghauontFsTtZmnU-1">
          <mxGeometry x="50" y="770" width="1010" height="30" as="geometry" />
        </mxCell>
        <mxCell id="hyZmw8ULxHdDLeU8Xs7D-16" value="resistor" style="text;html=1;resizable=0;autosize=1;align=center;verticalAlign=middle;points=[];fillColor=none;strokeColor=none;rounded=0;" vertex="1" parent="g7cslghauontFsTtZmnU-1">
          <mxGeometry x="45" y="395" width="50" height="20" as="geometry" />
        </mxCell>
        <mxCell id="hyZmw8ULxHdDLeU8Xs7D-17" style="edgeStyle=orthogonalEdgeStyle;rounded=0;orthogonalLoop=1;jettySize=auto;html=1;endArrow=none;endFill=0;exitX=0.45;exitY=1;exitDx=0;exitDy=0;exitPerimeter=0;fillColor=#6a00ff;strokeColor=#3700CC;" edge="1" parent="g7cslghauontFsTtZmnU-1" source="hyZmw8ULxHdDLeU8Xs7D-18">
          <mxGeometry relative="1" as="geometry">
            <mxPoint x="760" y="460" as="sourcePoint" />
            <mxPoint x="350" y="670" as="targetPoint" />
            <Array as="points">
              <mxPoint x="698" y="393" />
              <mxPoint x="760" y="393" />
              <mxPoint x="760" y="490" />
              <mxPoint x="550" y="490" />
              <mxPoint x="550" y="470" />
              <mxPoint x="400" y="470" />
              <mxPoint x="400" y="550" />
              <mxPoint x="25" y="550" />
            </Array>
          </mxGeometry>
        </mxCell>
        <mxCell id="hyZmw8ULxHdDLeU8Xs7D-18" value="DN1" style="text;html=1;resizable=0;autosize=1;align=center;verticalAlign=middle;points=[];fillColor=none;strokeColor=none;rounded=0;" vertex="1" parent="g7cslghauontFsTtZmnU-1">
          <mxGeometry x="680" y="370" width="40" height="20" as="geometry" />
        </mxCell>
        <mxCell id="hyZmw8ULxHdDLeU8Xs7D-19" style="edgeStyle=orthogonalEdgeStyle;rounded=0;orthogonalLoop=1;jettySize=auto;html=1;exitX=1;exitY=0.5;exitDx=0;exitDy=0;exitPerimeter=0;endArrow=none;endFill=0;entryX=0.656;entryY=1.016;entryDx=0;entryDy=0;entryPerimeter=0;" edge="1" parent="g7cslghauontFsTtZmnU-1" source="hyZmw8ULxHdDLeU8Xs7D-20" target="hyZmw8ULxHdDLeU8Xs7D-11">
          <mxGeometry relative="1" as="geometry">
            <mxPoint x="630" y="650" as="targetPoint" />
          </mxGeometry>
        </mxCell>
        <mxCell id="hyZmw8ULxHdDLeU8Xs7D-20" value="resistor" style="pointerEvents=1;verticalLabelPosition=bottom;shadow=0;dashed=0;align=center;html=1;verticalAlign=top;shape=mxgraph.electrical.resistors.resistor_1;fillColor=#ffe6cc;strokeColor=#d79b00;" vertex="1" parent="g7cslghauontFsTtZmnU-1">
          <mxGeometry x="390" y="660" width="100" height="20" as="geometry" />
        </mxCell>
        <mxCell id="hyZmw8ULxHdDLeU8Xs7D-21" value="" style="endArrow=none;html=1;exitX=0.521;exitY=0.033;exitDx=0;exitDy=0;exitPerimeter=0;" edge="1" parent="g7cslghauontFsTtZmnU-1" source="hyZmw8ULxHdDLeU8Xs7D-15">
          <mxGeometry width="50" height="50" relative="1" as="geometry">
            <mxPoint x="575" y="770" as="sourcePoint" />
            <mxPoint x="575" y="638" as="targetPoint" />
          </mxGeometry>
        </mxCell>
        <mxCell id="hyZmw8ULxHdDLeU8Xs7D-22" value="SP1" style="text;html=1;resizable=0;autosize=1;align=center;verticalAlign=middle;points=[];fillColor=none;strokeColor=none;rounded=0;labelBackgroundColor=none;" vertex="1" parent="g7cslghauontFsTtZmnU-1">
          <mxGeometry x="420" y="340" width="40" height="20" as="geometry" />
        </mxCell>
        <mxCell id="hyZmw8ULxHdDLeU8Xs7D-23" value="" style="endArrow=none;html=1;rounded=0;fillColor=#d5e8d4;strokeColor=#82b366;" edge="1" parent="g7cslghauontFsTtZmnU-1">
          <mxGeometry width="50" height="50" relative="1" as="geometry">
            <mxPoint x="440" y="410" as="sourcePoint" />
            <mxPoint x="439.5" y="370" as="targetPoint" />
            <Array as="points" />
          </mxGeometry>
        </mxCell>
        <mxCell id="hyZmw8ULxHdDLeU8Xs7D-24" value="" style="endArrow=none;html=1;fillColor=#d5e8d4;strokeColor=#82b366;" edge="1" parent="g7cslghauontFsTtZmnU-1">
          <mxGeometry width="50" height="50" relative="1" as="geometry">
            <mxPoint x="440" y="410" as="sourcePoint" />
            <mxPoint x="600" y="410" as="targetPoint" />
          </mxGeometry>
        </mxCell>
        <mxCell id="hyZmw8ULxHdDLeU8Xs7D-25" value="" style="endArrow=none;html=1;entryX=0.567;entryY=1;entryDx=0;entryDy=0;entryPerimeter=0;fillColor=#d5e8d4;strokeColor=#82b366;" edge="1" parent="g7cslghauontFsTtZmnU-1" target="hyZmw8ULxHdDLeU8Xs7D-14">
          <mxGeometry width="50" height="50" relative="1" as="geometry">
            <mxPoint x="600" y="410" as="sourcePoint" />
            <mxPoint x="650" y="360" as="targetPoint" />
          </mxGeometry>
        </mxCell>
        <mxCell id="hyZmw8ULxHdDLeU8Xs7D-26" value="SN1" style="text;html=1;resizable=0;autosize=1;align=center;verticalAlign=middle;points=[];fillColor=none;strokeColor=none;rounded=0;labelBackgroundColor=none;" vertex="1" parent="g7cslghauontFsTtZmnU-1">
          <mxGeometry x="730" y="370" width="40" height="20" as="geometry" />
        </mxCell>
        <mxCell id="hyZmw8ULxHdDLeU8Xs7D-27" value="" style="endArrow=none;html=1;entryX=0.5;entryY=1;entryDx=0;entryDy=0;entryPerimeter=0;exitX=0.693;exitY=-0.033;exitDx=0;exitDy=0;exitPerimeter=0;fillColor=#1ba1e2;strokeColor=#006EAF;" edge="1" parent="g7cslghauontFsTtZmnU-1" source="hyZmw8ULxHdDLeU8Xs7D-15" target="hyZmw8ULxHdDLeU8Xs7D-26">
          <mxGeometry width="50" height="50" relative="1" as="geometry">
            <mxPoint x="750" y="520" as="sourcePoint" />
            <mxPoint x="570" y="470" as="targetPoint" />
            <Array as="points">
              <mxPoint x="750" y="460" />
            </Array>
          </mxGeometry>
        </mxCell>
        <mxCell id="hyZmw8ULxHdDLeU8Xs7D-28" style="edgeStyle=none;rounded=0;orthogonalLoop=1;jettySize=auto;html=1;exitX=0.5;exitY=0;exitDx=0;exitDy=0;entryX=0;entryY=0.5;entryDx=0;entryDy=0;endArrow=none;endFill=0;fillColor=#e51400;strokeColor=#B20000;" edge="1" parent="g7cslghauontFsTtZmnU-1" source="hyZmw8ULxHdDLeU8Xs7D-30" target="hyZmw8ULxHdDLeU8Xs7D-14">
          <mxGeometry relative="1" as="geometry" />
        </mxCell>
        <mxCell id="hyZmw8ULxHdDLeU8Xs7D-29" style="edgeStyle=none;rounded=0;orthogonalLoop=1;jettySize=auto;html=1;exitX=0.5;exitY=1;exitDx=0;exitDy=0;entryX=0;entryY=0.75;entryDx=0;entryDy=0;endArrow=none;endFill=0;fillColor=#647687;strokeColor=#314354;" edge="1" parent="g7cslghauontFsTtZmnU-1" source="hyZmw8ULxHdDLeU8Xs7D-30" target="hyZmw8ULxHdDLeU8Xs7D-15">
          <mxGeometry relative="1" as="geometry" />
        </mxCell>
        <mxCell id="hyZmw8ULxHdDLeU8Xs7D-30" value="Power&lt;br&gt;Supply" style="whiteSpace=wrap;html=1;aspect=fixed;labelBackgroundColor=none;fillColor=#fa6800;strokeColor=#C73500;fontColor=#ffffff;" vertex="1" parent="g7cslghauontFsTtZmnU-1">
          <mxGeometry x="-160" y="380" width="80" height="80" as="geometry" />
        </mxCell>
        <mxCell id="Fx5B6rcmBEO0O7Eg4qJ1-0" value="&lt;font style=&quot;font-size: 35px&quot;&gt;-&lt;/font&gt;" style="rounded=0;whiteSpace=wrap;html=1;fillColor=#647687;strokeColor=#314354;fontColor=#ffffff;" vertex="1" parent="g7cslghauontFsTtZmnU-1">
          <mxGeometry x="1116" y="759" width="750" height="30" as="geometry" />
        </mxCell>
        <mxCell id="Fx5B6rcmBEO0O7Eg4qJ1-1" value="&lt;span style=&quot;font-size: 35px&quot;&gt;+&lt;/span&gt;" style="rounded=0;whiteSpace=wrap;html=1;fillColor=#e51400;strokeColor=#B20000;fontColor=#ffffff;" vertex="1" parent="g7cslghauontFsTtZmnU-1">
          <mxGeometry x="1126" y="89" width="750" height="30" as="geometry" />
        </mxCell>
        <mxCell id="Fx5B6rcmBEO0O7Eg4qJ1-2" style="edgeStyle=elbowEdgeStyle;rounded=1;orthogonalLoop=1;jettySize=auto;elbow=vertical;html=1;exitX=0.5;exitY=1;exitDx=0;exitDy=0;endArrow=none;endFill=0;fillColor=#e1d5e7;strokeColor=#9673a6;" edge="1" parent="g7cslghauontFsTtZmnU-1" source="Fx5B6rcmBEO0O7Eg4qJ1-8">
          <mxGeometry relative="1" as="geometry">
            <mxPoint x="1335" y="519" as="targetPoint" />
            <Array as="points">
              <mxPoint x="1316" y="549" />
              <mxPoint x="1286" y="539" />
            </Array>
          </mxGeometry>
        </mxCell>
        <mxCell id="Fx5B6rcmBEO0O7Eg4qJ1-3" style="edgeStyle=orthogonalEdgeStyle;rounded=1;orthogonalLoop=1;jettySize=auto;elbow=vertical;html=1;endArrow=none;endFill=0;exitX=1;exitY=0.5;exitDx=0;exitDy=0;exitPerimeter=0;fillColor=#f8cecc;strokeColor=#b85450;" edge="1" parent="g7cslghauontFsTtZmnU-1" source="Fx5B6rcmBEO0O7Eg4qJ1-10">
          <mxGeometry relative="1" as="geometry">
            <mxPoint x="1325" y="279" as="targetPoint" />
            <mxPoint x="1296" y="329" as="sourcePoint" />
            <Array as="points">
              <mxPoint x="1346" y="329" />
              <mxPoint x="1346" y="339" />
              <mxPoint x="1376" y="339" />
              <mxPoint x="1376" y="319" />
              <mxPoint x="1336" y="319" />
              <mxPoint x="1336" y="299" />
              <mxPoint x="1325" y="299" />
            </Array>
          </mxGeometry>
        </mxCell>
        <mxCell id="Fx5B6rcmBEO0O7Eg4qJ1-4" style="edgeStyle=orthogonalEdgeStyle;rounded=1;orthogonalLoop=1;jettySize=auto;html=1;exitX=1;exitY=0.25;exitDx=0;exitDy=0;endArrow=none;endFill=0;fillColor=#f8cecc;strokeColor=#b85450;entryX=0.5;entryY=1;entryDx=0;entryDy=0;entryPerimeter=0;" edge="1" parent="g7cslghauontFsTtZmnU-1" source="Fx5B6rcmBEO0O7Eg4qJ1-8" target="Fx5B6rcmBEO0O7Eg4qJ1-30">
          <mxGeometry relative="1" as="geometry">
            <mxPoint x="1530" y="259" as="targetPoint" />
          </mxGeometry>
        </mxCell>
        <mxCell id="Fx5B6rcmBEO0O7Eg4qJ1-5" style="edgeStyle=orthogonalEdgeStyle;rounded=1;orthogonalLoop=1;jettySize=auto;html=1;exitX=0.25;exitY=1;exitDx=0;exitDy=0;endArrow=none;endFill=0;fillColor=#e1d5e7;strokeColor=#9673a6;" edge="1" parent="g7cslghauontFsTtZmnU-1" source="Fx5B6rcmBEO0O7Eg4qJ1-8">
          <mxGeometry relative="1" as="geometry">
            <mxPoint x="1645" y="489" as="targetPoint" />
            <Array as="points">
              <mxPoint x="1226" y="399" />
              <mxPoint x="1226" y="569" />
              <mxPoint x="1576" y="569" />
              <mxPoint x="1576" y="549" />
              <mxPoint x="1645" y="549" />
            </Array>
          </mxGeometry>
        </mxCell>
        <mxCell id="Fx5B6rcmBEO0O7Eg4qJ1-6" style="edgeStyle=orthogonalEdgeStyle;rounded=1;orthogonalLoop=1;jettySize=auto;html=1;exitX=0.25;exitY=0;exitDx=0;exitDy=0;entryX=0.076;entryY=1.067;entryDx=0;entryDy=0;entryPerimeter=0;endArrow=none;endFill=0;" edge="1" parent="g7cslghauontFsTtZmnU-1" source="Fx5B6rcmBEO0O7Eg4qJ1-8" target="Fx5B6rcmBEO0O7Eg4qJ1-1">
          <mxGeometry relative="1" as="geometry" />
        </mxCell>
        <mxCell id="Fx5B6rcmBEO0O7Eg4qJ1-7" style="edgeStyle=orthogonalEdgeStyle;rounded=1;orthogonalLoop=1;jettySize=auto;html=1;exitX=0.5;exitY=0;exitDx=0;exitDy=0;endArrow=none;endFill=0;entryX=0.115;entryY=1.067;entryDx=0;entryDy=0;entryPerimeter=0;" edge="1" parent="g7cslghauontFsTtZmnU-1" source="Fx5B6rcmBEO0O7Eg4qJ1-8" target="Fx5B6rcmBEO0O7Eg4qJ1-1">
          <mxGeometry relative="1" as="geometry">
            <mxPoint x="1211" y="122" as="targetPoint" />
          </mxGeometry>
        </mxCell>
        <mxCell id="Fx5B6rcmBEO0O7Eg4qJ1-8" value="Switch" style="whiteSpace=wrap;html=1;aspect=fixed;labelBackgroundColor=none;fillColor=#1ba1e2;strokeColor=#006EAF;fontColor=#ffffff;" vertex="1" parent="g7cslghauontFsTtZmnU-1">
          <mxGeometry x="1166" y="299" width="100" height="100" as="geometry" />
        </mxCell>
        <mxCell id="Fx5B6rcmBEO0O7Eg4qJ1-9" value="1A" style="text;html=1;resizable=0;autosize=1;align=center;verticalAlign=middle;points=[];fillColor=none;strokeColor=none;rounded=0;labelBackgroundColor=none;" vertex="1" parent="g7cslghauontFsTtZmnU-1">
          <mxGeometry x="1201" y="379" width="30" height="20" as="geometry" />
        </mxCell>
        <mxCell id="Fx5B6rcmBEO0O7Eg4qJ1-10" value="2A" style="text;html=1;resizable=0;autosize=1;align=center;verticalAlign=middle;points=[];fillColor=none;strokeColor=none;rounded=0;labelBackgroundColor=none;" vertex="1" parent="g7cslghauontFsTtZmnU-1">
          <mxGeometry x="1236" y="319" width="30" height="20" as="geometry" />
        </mxCell>
        <mxCell id="Fx5B6rcmBEO0O7Eg4qJ1-11" style="edgeStyle=orthogonalEdgeStyle;rounded=1;orthogonalLoop=1;jettySize=auto;html=1;exitX=0.75;exitY=1;exitDx=0;exitDy=0;entryX=0.427;entryY=1;entryDx=0;entryDy=0;entryPerimeter=0;endArrow=none;endFill=0;" edge="1" parent="g7cslghauontFsTtZmnU-1" source="Fx5B6rcmBEO0O7Eg4qJ1-15" target="Fx5B6rcmBEO0O7Eg4qJ1-1">
          <mxGeometry relative="1" as="geometry" />
        </mxCell>
        <mxCell id="Fx5B6rcmBEO0O7Eg4qJ1-12" style="edgeStyle=orthogonalEdgeStyle;rounded=1;orthogonalLoop=1;jettySize=auto;html=1;exitX=0.069;exitY=1;exitDx=0;exitDy=0;endArrow=none;endFill=0;entryX=0.325;entryY=0.95;entryDx=0;entryDy=0;entryPerimeter=0;fillColor=#a20025;strokeColor=#6F0000;exitPerimeter=0;" edge="1" parent="g7cslghauontFsTtZmnU-1" source="Fx5B6rcmBEO0O7Eg4qJ1-15" target="Fx5B6rcmBEO0O7Eg4qJ1-29">
          <mxGeometry relative="1" as="geometry">
            <mxPoint x="1326" y="529" as="targetPoint" />
            <Array as="points">
              <mxPoint x="1315" y="619" />
              <mxPoint x="1371" y="619" />
              <mxPoint x="1371" y="539" />
              <mxPoint x="1324" y="539" />
            </Array>
          </mxGeometry>
        </mxCell>
        <mxCell id="Fx5B6rcmBEO0O7Eg4qJ1-13" style="edgeStyle=orthogonalEdgeStyle;rounded=1;orthogonalLoop=1;jettySize=auto;html=1;exitX=0.5;exitY=1;exitDx=0;exitDy=0;endArrow=none;endFill=0;" edge="1" parent="g7cslghauontFsTtZmnU-1" source="Fx5B6rcmBEO0O7Eg4qJ1-15">
          <mxGeometry relative="1" as="geometry">
            <mxPoint x="1383" y="521" as="targetPoint" />
            <Array as="points">
              <mxPoint x="1371" y="289" />
              <mxPoint x="1383" y="289" />
              <mxPoint x="1383" y="359" />
              <mxPoint x="1566" y="359" />
              <mxPoint x="1566" y="579" />
              <mxPoint x="1386" y="579" />
              <mxPoint x="1386" y="521" />
            </Array>
          </mxGeometry>
        </mxCell>
        <mxCell id="Fx5B6rcmBEO0O7Eg4qJ1-14" style="edgeStyle=orthogonalEdgeStyle;rounded=1;orthogonalLoop=1;jettySize=auto;html=1;exitX=0.75;exitY=1;exitDx=0;exitDy=0;endArrow=none;endFill=0;entryX=0.567;entryY=1.15;entryDx=0;entryDy=0;entryPerimeter=0;fillColor=#b1ddf0;strokeColor=#10739e;" edge="1" parent="g7cslghauontFsTtZmnU-1" source="Fx5B6rcmBEO0O7Eg4qJ1-15" target="Fx5B6rcmBEO0O7Eg4qJ1-37">
          <mxGeometry relative="1" as="geometry">
            <mxPoint x="1436" y="549" as="targetPoint" />
            <Array as="points">
              <mxPoint x="1404" y="319" />
              <mxPoint x="1496" y="319" />
              <mxPoint x="1496" y="374" />
              <mxPoint x="1506" y="374" />
              <mxPoint x="1506" y="559" />
              <mxPoint x="1436" y="559" />
              <mxPoint x="1436" y="522" />
            </Array>
          </mxGeometry>
        </mxCell>
        <mxCell id="Fx5B6rcmBEO0O7Eg4qJ1-15" value="PMOS" style="whiteSpace=wrap;html=1;aspect=fixed;labelBackgroundColor=none;fillColor=#d5e8d4;strokeColor=#82b366;" vertex="1" parent="g7cslghauontFsTtZmnU-1">
          <mxGeometry x="1306" y="149" width="130" height="130" as="geometry" />
        </mxCell>
        <mxCell id="Fx5B6rcmBEO0O7Eg4qJ1-16" style="edgeStyle=orthogonalEdgeStyle;rounded=1;orthogonalLoop=1;jettySize=auto;html=1;exitX=0.5;exitY=1;exitDx=0;exitDy=0;endArrow=none;endFill=0;fillColor=#d80073;strokeColor=#A50040;" edge="1" parent="g7cslghauontFsTtZmnU-1" source="Fx5B6rcmBEO0O7Eg4qJ1-18">
          <mxGeometry relative="1" as="geometry">
            <mxPoint x="1666" y="279" as="targetPoint" />
            <Array as="points">
              <mxPoint x="1541" y="299" />
              <mxPoint x="1616" y="299" />
              <mxPoint x="1616" y="249" />
              <mxPoint x="1666" y="249" />
            </Array>
          </mxGeometry>
        </mxCell>
        <mxCell id="Fx5B6rcmBEO0O7Eg4qJ1-17" style="edgeStyle=orthogonalEdgeStyle;rounded=1;orthogonalLoop=1;jettySize=auto;html=1;exitX=0.75;exitY=1;exitDx=0;exitDy=0;endArrow=none;endFill=0;entryX=0.5;entryY=1.05;entryDx=0;entryDy=0;entryPerimeter=0;fillColor=#ffcd28;strokeColor=#d79b00;gradientColor=#ffa500;" edge="1" parent="g7cslghauontFsTtZmnU-1" source="Fx5B6rcmBEO0O7Eg4qJ1-18" target="Fx5B6rcmBEO0O7Eg4qJ1-39">
          <mxGeometry relative="1" as="geometry">
            <mxPoint x="1586" y="579" as="targetPoint" />
            <Array as="points">
              <mxPoint x="1574" y="469" />
              <mxPoint x="1596" y="469" />
              <mxPoint x="1596" y="579" />
              <mxPoint x="1748" y="579" />
              <mxPoint x="1748" y="490" />
            </Array>
          </mxGeometry>
        </mxCell>
        <mxCell id="Fx5B6rcmBEO0O7Eg4qJ1-18" value="NMOS" style="whiteSpace=wrap;html=1;aspect=fixed;labelBackgroundColor=none;fillColor=#fff2cc;strokeColor=#d6b656;" vertex="1" parent="g7cslghauontFsTtZmnU-1">
          <mxGeometry x="1476" y="149" width="130" height="130" as="geometry" />
        </mxCell>
        <mxCell id="Fx5B6rcmBEO0O7Eg4qJ1-19" style="edgeStyle=orthogonalEdgeStyle;rounded=1;orthogonalLoop=1;jettySize=auto;html=1;exitX=0.5;exitY=1;exitDx=0;exitDy=0;endArrow=none;endFill=0;entryX=0;entryY=0.5;entryDx=0;entryDy=0;entryPerimeter=0;" edge="1" parent="g7cslghauontFsTtZmnU-1" source="Fx5B6rcmBEO0O7Eg4qJ1-20" target="Fx5B6rcmBEO0O7Eg4qJ1-44">
          <mxGeometry relative="1" as="geometry">
            <mxPoint x="1626" y="279" as="targetPoint" />
            <Array as="points">
              <mxPoint x="1386" y="539" />
              <mxPoint x="1606" y="539" />
              <mxPoint x="1606" y="279" />
            </Array>
          </mxGeometry>
        </mxCell>
        <mxCell id="Fx5B6rcmBEO0O7Eg4qJ1-20" value="PMOS" style="whiteSpace=wrap;html=1;aspect=fixed;labelBackgroundColor=none;fillColor=#d5e8d4;strokeColor=#82b366;" vertex="1" parent="g7cslghauontFsTtZmnU-1">
          <mxGeometry x="1316" y="379" width="140" height="140" as="geometry" />
        </mxCell>
        <mxCell id="Fx5B6rcmBEO0O7Eg4qJ1-21" style="edgeStyle=orthogonalEdgeStyle;rounded=1;orthogonalLoop=1;jettySize=auto;html=1;entryX=0.88;entryY=0;entryDx=0;entryDy=0;entryPerimeter=0;endArrow=none;endFill=0;exitX=0.845;exitY=1;exitDx=0;exitDy=0;exitPerimeter=0;fillColor=#fff2cc;strokeColor=#d6b656;" edge="1" parent="g7cslghauontFsTtZmnU-1" source="Fx5B6rcmBEO0O7Eg4qJ1-23" target="Fx5B6rcmBEO0O7Eg4qJ1-0">
          <mxGeometry relative="1" as="geometry">
            <mxPoint x="1746" y="499" as="sourcePoint" />
          </mxGeometry>
        </mxCell>
        <mxCell id="Fx5B6rcmBEO0O7Eg4qJ1-22" style="edgeStyle=orthogonalEdgeStyle;rounded=1;orthogonalLoop=1;jettySize=auto;html=1;exitX=0.5;exitY=1;exitDx=0;exitDy=0;endArrow=none;endFill=0;" edge="1" parent="g7cslghauontFsTtZmnU-1" source="Fx5B6rcmBEO0O7Eg4qJ1-23">
          <mxGeometry relative="1" as="geometry">
            <mxPoint x="1606" y="509" as="targetPoint" />
          </mxGeometry>
        </mxCell>
        <mxCell id="Fx5B6rcmBEO0O7Eg4qJ1-23" value="NMOS" style="whiteSpace=wrap;html=1;aspect=fixed;labelBackgroundColor=none;fillColor=#fff2cc;strokeColor=#d6b656;" vertex="1" parent="g7cslghauontFsTtZmnU-1">
          <mxGeometry x="1626" y="347" width="142" height="142" as="geometry" />
        </mxCell>
        <mxCell id="Fx5B6rcmBEO0O7Eg4qJ1-24" style="edgeStyle=orthogonalEdgeStyle;rounded=1;orthogonalLoop=1;jettySize=auto;html=1;exitX=0.25;exitY=1;exitDx=0;exitDy=0;entryX=0.948;entryY=-0.067;entryDx=0;entryDy=0;entryPerimeter=0;endArrow=none;endFill=0;" edge="1" parent="g7cslghauontFsTtZmnU-1" source="Fx5B6rcmBEO0O7Eg4qJ1-25" target="Fx5B6rcmBEO0O7Eg4qJ1-0">
          <mxGeometry relative="1" as="geometry" />
        </mxCell>
        <mxCell id="Fx5B6rcmBEO0O7Eg4qJ1-25" value="" style="shape=image;html=1;verticalAlign=top;verticalLabelPosition=bottom;labelBackgroundColor=#ffffff;imageAspect=0;aspect=fixed;image=https://cdn2.iconfinder.com/data/icons/electronic-13/480/6-electronic-led-icon-2-128.png;fillColor=#ffffff;gradientColor=none;imageBackground=#FF66FF;" vertex="1" parent="g7cslghauontFsTtZmnU-1">
          <mxGeometry x="1806" y="179" width="68" height="68" as="geometry" />
        </mxCell>
        <mxCell id="Fx5B6rcmBEO0O7Eg4qJ1-26" style="edgeStyle=orthogonalEdgeStyle;rounded=1;orthogonalLoop=1;jettySize=auto;html=1;exitX=0;exitY=0.5;exitDx=0;exitDy=0;exitPerimeter=0;endArrow=none;endFill=0;fillColor=#6a00ff;strokeColor=#3700CC;" edge="1" parent="g7cslghauontFsTtZmnU-1" source="Fx5B6rcmBEO0O7Eg4qJ1-27">
          <mxGeometry relative="1" as="geometry">
            <mxPoint x="1056" y="509" as="targetPoint" />
            <Array as="points">
              <mxPoint x="946" y="319" />
              <mxPoint x="946" y="469" />
              <mxPoint x="1056" y="469" />
            </Array>
          </mxGeometry>
        </mxCell>
        <mxCell id="Fx5B6rcmBEO0O7Eg4qJ1-27" value="Resistor" style="pointerEvents=1;verticalLabelPosition=bottom;shadow=0;dashed=0;align=center;html=1;verticalAlign=top;shape=mxgraph.electrical.resistors.resistor_1;labelBackgroundColor=none;fillColor=#fad7ac;strokeColor=#b46504;" vertex="1" parent="g7cslghauontFsTtZmnU-1">
          <mxGeometry x="1056" y="309" width="110" height="20" as="geometry" />
        </mxCell>
        <mxCell id="Fx5B6rcmBEO0O7Eg4qJ1-28" value="&lt;font style=&quot;font-size: 10px&quot;&gt;GP3&lt;/font&gt;" style="text;html=1;resizable=0;autosize=1;align=center;verticalAlign=middle;points=[];fillColor=none;strokeColor=none;rounded=0;labelBackgroundColor=none;" vertex="1" parent="g7cslghauontFsTtZmnU-1">
          <mxGeometry x="1306" y="259" width="40" height="20" as="geometry" />
        </mxCell>
        <mxCell id="Fx5B6rcmBEO0O7Eg4qJ1-29" value="&lt;font style=&quot;font-size: 10px&quot;&gt;GP2&lt;/font&gt;" style="text;html=1;resizable=0;autosize=1;align=center;verticalAlign=middle;points=[];fillColor=none;strokeColor=none;rounded=0;labelBackgroundColor=none;" vertex="1" parent="g7cslghauontFsTtZmnU-1">
          <mxGeometry x="1311" y="499" width="40" height="20" as="geometry" />
        </mxCell>
        <mxCell id="Fx5B6rcmBEO0O7Eg4qJ1-30" value="&lt;font style=&quot;font-size: 10px&quot;&gt;GN3&lt;/font&gt;" style="text;html=1;resizable=0;autosize=1;align=center;verticalAlign=middle;points=[];fillColor=none;strokeColor=none;rounded=0;labelBackgroundColor=none;" vertex="1" parent="g7cslghauontFsTtZmnU-1">
          <mxGeometry x="1476" y="259" width="40" height="20" as="geometry" />
        </mxCell>
        <mxCell id="Fx5B6rcmBEO0O7Eg4qJ1-31" value="&lt;font style=&quot;font-size: 10px&quot;&gt;GN2&lt;/font&gt;" style="text;html=1;resizable=0;autosize=1;align=center;verticalAlign=middle;points=[];fillColor=none;strokeColor=none;rounded=0;labelBackgroundColor=none;" vertex="1" parent="g7cslghauontFsTtZmnU-1">
          <mxGeometry x="1626" y="469" width="40" height="20" as="geometry" />
        </mxCell>
        <mxCell id="Fx5B6rcmBEO0O7Eg4qJ1-32" value="&lt;font style=&quot;font-size: 10px&quot;&gt;DP3&lt;/font&gt;" style="text;html=1;resizable=0;autosize=1;align=center;verticalAlign=middle;points=[];fillColor=none;strokeColor=none;rounded=0;labelBackgroundColor=none;" vertex="1" parent="g7cslghauontFsTtZmnU-1">
          <mxGeometry x="1356" y="259" width="30" height="20" as="geometry" />
        </mxCell>
        <mxCell id="Fx5B6rcmBEO0O7Eg4qJ1-33" value="&lt;font style=&quot;font-size: 10px&quot;&gt;SP3&lt;/font&gt;" style="text;html=1;resizable=0;autosize=1;align=center;verticalAlign=middle;points=[];fillColor=none;strokeColor=none;rounded=0;labelBackgroundColor=none;" vertex="1" parent="g7cslghauontFsTtZmnU-1">
          <mxGeometry x="1391" y="259" width="30" height="20" as="geometry" />
        </mxCell>
        <mxCell id="Fx5B6rcmBEO0O7Eg4qJ1-34" value="&lt;font style=&quot;font-size: 10px&quot;&gt;DN3&lt;/font&gt;" style="text;html=1;resizable=0;autosize=1;align=center;verticalAlign=middle;points=[];fillColor=none;strokeColor=none;rounded=0;labelBackgroundColor=none;" vertex="1" parent="g7cslghauontFsTtZmnU-1">
          <mxGeometry x="1521" y="259" width="40" height="20" as="geometry" />
        </mxCell>
        <mxCell id="Fx5B6rcmBEO0O7Eg4qJ1-35" value="&lt;font style=&quot;font-size: 10px&quot;&gt;SN3&lt;/font&gt;" style="text;html=1;resizable=0;autosize=1;align=center;verticalAlign=middle;points=[];fillColor=none;strokeColor=none;rounded=0;labelBackgroundColor=none;" vertex="1" parent="g7cslghauontFsTtZmnU-1">
          <mxGeometry x="1561" y="259" width="30" height="20" as="geometry" />
        </mxCell>
        <mxCell id="Fx5B6rcmBEO0O7Eg4qJ1-36" value="&lt;font style=&quot;font-size: 10px&quot;&gt;DP2&lt;/font&gt;" style="text;html=1;resizable=0;autosize=1;align=center;verticalAlign=middle;points=[];fillColor=none;strokeColor=none;rounded=0;labelBackgroundColor=none;" vertex="1" parent="g7cslghauontFsTtZmnU-1">
          <mxGeometry x="1371" y="499" width="30" height="20" as="geometry" />
        </mxCell>
        <mxCell id="Fx5B6rcmBEO0O7Eg4qJ1-37" value="&lt;font style=&quot;font-size: 10px&quot;&gt;SP2&lt;/font&gt;" style="text;html=1;resizable=0;autosize=1;align=center;verticalAlign=middle;points=[];fillColor=none;strokeColor=none;rounded=0;labelBackgroundColor=none;" vertex="1" parent="g7cslghauontFsTtZmnU-1">
          <mxGeometry x="1421" y="499" width="30" height="20" as="geometry" />
        </mxCell>
        <mxCell id="Fx5B6rcmBEO0O7Eg4qJ1-38" value="&lt;font style=&quot;font-size: 10px&quot;&gt;DN2&lt;/font&gt;" style="text;html=1;resizable=0;autosize=1;align=center;verticalAlign=middle;points=[];fillColor=none;strokeColor=none;rounded=0;labelBackgroundColor=none;" vertex="1" parent="g7cslghauontFsTtZmnU-1">
          <mxGeometry x="1677" y="469" width="40" height="20" as="geometry" />
        </mxCell>
        <mxCell id="Fx5B6rcmBEO0O7Eg4qJ1-39" value="&lt;font style=&quot;font-size: 10px&quot;&gt;SN2&lt;/font&gt;" style="text;html=1;resizable=0;autosize=1;align=center;verticalAlign=middle;points=[];fillColor=none;strokeColor=none;rounded=0;labelBackgroundColor=none;" vertex="1" parent="g7cslghauontFsTtZmnU-1">
          <mxGeometry x="1726" y="469" width="30" height="20" as="geometry" />
        </mxCell>
        <mxCell id="Fx5B6rcmBEO0O7Eg4qJ1-40" value="" style="edgeStyle=orthogonalEdgeStyle;rounded=1;orthogonalLoop=1;jettySize=auto;html=1;endArrow=none;endFill=0;" edge="1" parent="g7cslghauontFsTtZmnU-1" source="Fx5B6rcmBEO0O7Eg4qJ1-41" target="Fx5B6rcmBEO0O7Eg4qJ1-27">
          <mxGeometry relative="1" as="geometry" />
        </mxCell>
        <mxCell id="Fx5B6rcmBEO0O7Eg4qJ1-41" value="Resistor" style="pointerEvents=1;verticalLabelPosition=bottom;shadow=0;dashed=0;align=center;html=1;verticalAlign=top;shape=mxgraph.electrical.resistors.resistor_1;labelBackgroundColor=none;fillColor=#fad7ac;strokeColor=#b46504;" vertex="1" parent="g7cslghauontFsTtZmnU-1">
          <mxGeometry x="1056" y="369" width="110" height="20" as="geometry" />
        </mxCell>
        <mxCell id="Fx5B6rcmBEO0O7Eg4qJ1-42" value="" style="endArrow=none;html=1;edgeStyle=orthogonalEdgeStyle;entryX=0;entryY=0.5;entryDx=0;entryDy=0;entryPerimeter=0;exitX=0.177;exitY=-0.1;exitDx=0;exitDy=0;exitPerimeter=0;fillColor=#6a00ff;strokeColor=#3700CC;" edge="1" parent="g7cslghauontFsTtZmnU-1" source="Fx5B6rcmBEO0O7Eg4qJ1-0" target="Fx5B6rcmBEO0O7Eg4qJ1-41">
          <mxGeometry width="50" height="50" relative="1" as="geometry">
            <mxPoint x="1246" y="709" as="sourcePoint" />
            <mxPoint x="1055" y="389" as="targetPoint" />
            <Array as="points">
              <mxPoint x="1249" y="709" />
              <mxPoint x="1056" y="709" />
            </Array>
          </mxGeometry>
        </mxCell>
        <mxCell id="Fx5B6rcmBEO0O7Eg4qJ1-43" value="" style="edgeStyle=orthogonalEdgeStyle;rounded=1;orthogonalLoop=1;jettySize=auto;html=1;endArrow=none;endFill=0;" edge="1" parent="g7cslghauontFsTtZmnU-1" source="Fx5B6rcmBEO0O7Eg4qJ1-44" target="Fx5B6rcmBEO0O7Eg4qJ1-25">
          <mxGeometry relative="1" as="geometry" />
        </mxCell>
        <mxCell id="Fx5B6rcmBEO0O7Eg4qJ1-45" style="edgeStyle=orthogonalEdgeStyle;rounded=1;orthogonalLoop=1;jettySize=auto;html=1;exitX=0;exitY=0.5;exitDx=0;exitDy=0;exitPerimeter=0;entryX=0;entryY=0.5;entryDx=0;entryDy=0;entryPerimeter=0;endArrow=none;endFill=0;" edge="1" parent="g7cslghauontFsTtZmnU-1" source="Fx5B6rcmBEO0O7Eg4qJ1-44" target="hyZmw8ULxHdDLeU8Xs7D-20">
          <mxGeometry relative="1" as="geometry">
            <Array as="points">
              <mxPoint x="1677" y="180" />
              <mxPoint x="370" y="180" />
              <mxPoint x="370" y="670" />
            </Array>
          </mxGeometry>
        </mxCell>
        <mxCell id="Fx5B6rcmBEO0O7Eg4qJ1-44" value="Resistor" style="pointerEvents=1;verticalLabelPosition=bottom;shadow=0;dashed=0;align=center;html=1;verticalAlign=top;shape=mxgraph.electrical.resistors.resistor_1;labelBackgroundColor=none;fillColor=#fad7ac;strokeColor=#b46504;" vertex="1" parent="g7cslghauontFsTtZmnU-1">
          <mxGeometry x="1677" y="269" width="110" height="20" as="geometry" />
        </mxCell>
        <mxCell id="Fx5B6rcmBEO0O7Eg4qJ1-46" value="Text" style="text;html=1;resizable=0;autosize=1;align=center;verticalAlign=middle;points=[];fillColor=none;strokeColor=none;rounded=0;labelBackgroundColor=none;" vertex="1" parent="g7cslghauontFsTtZmnU-1">
          <mxGeometry x="910" y="490" width="40" height="20" as="geometry" />
        </mxCell>
        <mxCell id="Fx5B6rcmBEO0O7Eg4qJ1-47" value="&lt;font style=&quot;font-size: 32px&quot;&gt;2 Input OR Gate&lt;/font&gt;" style="text;html=1;align=center;verticalAlign=middle;resizable=0;points=[];autosize=1;" vertex="1" parent="g7cslghauontFsTtZmnU-1">
          <mxGeometry x="635" y="5" width="250" height="30" as="geometry" />
        </mxCell>
      </root>
    </mxGraphModel>
  </diagram>
</mxfile>
